<?xml version="1.0" standalone="no"?>
<!DOCTYPE svg PUBLIC "-//W3C//DTD SVG 1.1//EN" "http://www.w3.org/Graphics/SVG/1.1/DTD/svg11.dtd" >
<svg xmlns="http://www.w3.org/2000/svg" xmlns:xlink="http://www.w3.org/1999/xlink" version="1.1">
<metadata>
Created by FontForge 20170731 at Fri Sep  7 16:45:05 2018
 By Aleksey,,,
Copyright 2018 The Krub Project Authors (https://github.com/cadsondemak/Krub)
</metadata>
<defs>
<font id="Krub-Medium" horiz-adv-x="0" >
  <font-face 
    font-family="Krub Medium"
    font-weight="500"
    font-stretch="normal"
    units-per-em="1000"
    panose-1="0 0 6 0 0 0 0 0 0 0"
    ascent="800"
    descent="-200"
    x-height="550"
    cap-height="700"
    bbox="-686 -501 1196 1211"
    underline-thickness="50"
    underline-position="-150"
    unicode-range="U+000D-FB02"
  />
<missing-glyph horiz-adv-x="400" 
 />
    <glyph glyph-name="fi" unicode="fi" horiz-adv-x="633" 
d="M333 771.5q28 -13.5 28 -37.5q0 -11 -4 -21.5t-9 -13.5q-33 15 -72 15q-37 0 -56.5 -24t-19.5 -70v-70h117v-65h-117v-485h-95v485h-96v65h96v71q0 77 40.5 120.5t110.5 43.5q49 0 77 -13.5zM442 550h94v-550h-94v550zM428 707v11q0 56 56 56h10q56 0 56 -56v-11
q0 -56 -56 -56h-10q-56 0 -56 56z" />
    <glyph glyph-name="fl" unicode="fl" horiz-adv-x="613" 
d="M333 771.5q28 -13.5 28 -37.5q0 -11 -4 -21.5t-9 -13.5q-33 15 -72 15q-37 0 -56.5 -24t-19.5 -70v-70h117v-65h-117v-485h-95v485h-96v65h96v71q0 77 40.5 120.5t110.5 43.5q49 0 77 -13.5zM432 791h94v-791h-94v791z" />
    <glyph glyph-name="uni0E240E45" unicode="&#xe24;&#xe45;" horiz-adv-x="942" 
d="M452 383q0 68 -40 103t-116 35q-44 0 -81 -13.5t-58 -32.5t-21 -34q0 -19 21.5 -34.5t38.5 -15.5q10 0 33 7q18 6 25 6q9 0 21 -20.5t12 -33.5q0 -8 -6 -8q-61 0 -84 -28.5t-23 -92.5v-107q0 -32 13.5 -49t37.5 -17q23 0 34.5 12t11.5 33q0 20 -11.5 31t-32.5 11
q-5 0 -33 -5q-3 8 -3 14q0 16 13 26.5t36 10.5q39 0 62.5 -22t23.5 -65q0 -45 -31 -73t-83 -28q-58 0 -94 34t-36 93v101q0 85 48 128q-30 14 -55 38t-25 51q0 32 30.5 67t87 58t128.5 23q61 0 110.5 -16.5t82.5 -48.5q76 65 180 65q93 0 148 -50t55 -140v-613h-92v614
q0 58 -30 88.5t-85 30.5q-78 0 -134 -58q12 -33 12 -75v-603h-91v603z" />
    <glyph glyph-name="uni0E260E45" unicode="&#xe26;&#xe45;" horiz-adv-x="949" 
d="M463 372q0 81 -39 115t-114 34q-46 0 -83.5 -12.5t-58.5 -30.5t-21 -33q0 -13 11 -25t25 -19.5t22 -7.5q10 0 30 8q22 8 29 8q10 0 22 -19.5t12 -32.5q0 -8 -6 -8q-42 0 -63.5 -23t-21.5 -63q0 -34 9 -77q1 -5 5 -31t4 -55q0 -50 -28.5 -79t-83.5 -29q-48 0 -75 25.5
t-27 65.5q0 36 22 57t50 21q17 0 27 -9.5t10 -26.5h-17q-19 0 -30 -10.5t-11 -29.5q0 -16 11 -27.5t30 -11.5t29.5 13t10.5 33q0 19 -4.5 41.5t-9.5 43.5q-5 22 -9.5 44.5t-4.5 42.5q0 56 39 85q-37 11 -65.5 37.5t-28.5 55.5q0 30 31.5 63.5t88.5 57t130 23.5
q127 0 189 -62q74 62 177 62q93 0 148 -50t55 -140v-613h-92v614q0 58 -30 88.5t-85 30.5q-76 0 -132 -56q15 -36 15 -88v-592h-92v592z" />
    <glyph glyph-name=".notdef" horiz-adv-x="400" 
 />
    <glyph glyph-name=".null" 
 />
    <glyph glyph-name="nonmarkingreturn" unicode="&#xd;" horiz-adv-x="258" 
 />
    <glyph glyph-name="NULL" 
 />
    <glyph glyph-name="NULL" 
 />
    <glyph glyph-name="space" unicode=" " horiz-adv-x="258" 
 />
    <glyph glyph-name="exclam" unicode="!" horiz-adv-x="246" 
d="M67 700h112l-21 -487h-70zM62 54v11q0 56 56 56h10q56 0 56 -56v-11q0 -56 -56 -56h-10q-56 0 -56 56z" />
    <glyph glyph-name="quotedbl" unicode="&#x22;" horiz-adv-x="324" 
d="M45 737h91l-13 -232h-64zM188 737h91l-14 -232h-64z" />
    <glyph glyph-name="numbersign" unicode="#" horiz-adv-x="540" 
d="M422 426l-24 -154h91v-64h-102l-33 -208h-67l33 208h-136l-33 -208h-67l33 208h-92v64h103l24 154h-101v64h111l34 210h67l-34 -210h136l34 210h67l-34 -210h83v-64h-93zM355 426h-136l-24 -154h136z" />
    <glyph glyph-name="dollar" unicode="$" horiz-adv-x="609" 
d="M505 60.5q-60 -57.5 -164 -68.5v-112h-62v110q-69 2 -124 23.5t-85.5 57t-30.5 79.5q0 25 19.5 40t53.5 16q12 -63 54.5 -98t112.5 -39v259q-82 23 -130.5 49.5t-70.5 62t-22 84.5q0 82 59.5 131.5t163.5 54.5v99h62v-101q80 -10 134 -54t74 -116q-10 -10 -27 -16.5
t-33 -6.5q-15 0 -25.5 7t-17.5 23q-16 32 -43 53.5t-62 29.5v-228q90 -28 138 -54t67 -58.5t19 -81.5q0 -88 -60 -145.5zM182 466.5q26 -23.5 97 -47.5v213q-61 -3 -92 -29t-31 -74q0 -39 26 -62.5zM431 112q32 32 32 80q0 41 -28 68t-94 50v-239q58 9 90 41z" />
    <glyph glyph-name="percent" unicode="%" horiz-adv-x="910" 
d="M614 710h89l-404 -720h-89zM122 396q-43 47 -43 127q0 81 43 129t115 48q73 0 116.5 -48t43.5 -129q0 -80 -43.5 -127t-116.5 -47q-72 0 -115 47zM319 524q0 58 -20 86t-62 28q-80 0 -80 -110q0 -117 80 -117q82 0 82 113zM555 44q-43 47 -43 127q0 81 43 129t115 48
q73 0 116.5 -48t43.5 -129q0 -80 -43.5 -127t-116.5 -47q-72 0 -115 47zM752 172q0 58 -20 86t-62 28q-80 0 -80 -110q0 -117 80 -117q82 0 82 113z" />
    <glyph glyph-name="ampersand" unicode="&#x26;" horiz-adv-x="687" 
d="M571.5 73.5q25.5 -7.5 58.5 -8.5v-34q0 -41 -55 -41q-31 0 -61.5 13.5t-64.5 43.5q-84 -57 -190 -57q-57 0 -108 20.5t-82.5 61.5t-31.5 99q0 69 33 114.5t111 94.5q-30 50 -44.5 89.5t-14.5 78.5q0 48 22 85t60 57t84 20q67 0 113 -39t46 -106q0 -59 -38.5 -102
t-123.5 -97q35 -49 83 -107.5t86 -98.5q27 42 41 93.5t15 104.5q43 0 61 -15t18 -53q0 -41 -19.5 -91t-56.5 -93q33 -25 58.5 -32.5zM227.5 619.5q-23.5 -24.5 -23.5 -69.5q0 -30 11 -60.5t34 -68.5q64 38 91.5 71t27.5 77q0 33 -20.5 54t-58.5 21t-61.5 -24.5zM169 87
q41 -32 99 -32q74 0 130 43q-107 121 -180 225q-50 -35 -70 -67t-20 -82q0 -55 41 -87z" />
    <glyph glyph-name="quotesingle" unicode="'" horiz-adv-x="223" 
d="M66 737h91l-13 -232h-65z" />
    <glyph glyph-name="parenleft" unicode="(" horiz-adv-x="390" 
d="M116.5 130q-39.5 126 -39.5 250q0 123 39.5 248.5t117.5 228.5h84q-73 -109 -108.5 -230t-35.5 -247q0 -265 144 -479h-84q-78 103 -117.5 229z" />
    <glyph glyph-name="parenright" unicode=")" horiz-adv-x="390" 
d="M72 -99q144 214 144 479q0 126 -35.5 247t-108.5 230h84q78 -103 117.5 -228.5t39.5 -248.5q0 -124 -39.5 -250t-117.5 -229h-84z" />
    <glyph glyph-name="asterisk" unicode="*" horiz-adv-x="618" 
d="M154 563l120 135l-176 38l26 76l161 -69l-17 180h83l-14 -180l160 70l26 -76l-175 -39l119 -133l-68 -46l-88 154l-89 -154z" />
    <glyph glyph-name="plus" unicode="+" horiz-adv-x="600" 
d="M265 291h-215v66h215v221h70v-221h215v-66h-215v-221h-70v221z" />
    <glyph glyph-name="comma" unicode="," horiz-adv-x="308" 
d="M200 105.5q15 -15.5 15 -42.5v-14q0 -72 -46 -142q-15 -23 -27 -33t-24 -10q-21 0 -35 12q32 37 47.5 64t20.5 58h-7q-24 0 -37.5 15t-13.5 40v13q0 25 14 40t38 15h15q25 0 40 -15.5z" />
    <glyph glyph-name="hyphen" unicode="-" horiz-adv-x="480" 
d="M60 340h360v-66h-360v66z" />
    <glyph glyph-name="period" unicode="." horiz-adv-x="309" 
d="M93 54v11q0 56 56 56h10q56 0 56 -56v-11q0 -56 -56 -56h-10q-56 0 -56 56z" />
    <glyph glyph-name="slash" unicode="/" horiz-adv-x="334" 
d="M273 811h78l-290 -866h-78z" />
    <glyph glyph-name="zero" unicode="0" horiz-adv-x="620" 
d="M110.5 79.5q-67.5 91.5 -67.5 258.5q0 178 67.5 275t199.5 97t199.5 -97t67.5 -275q0 -167 -67.5 -258.5t-199.5 -91.5t-199.5 91.5zM440 135q42 72 42 203q0 143 -42 220t-130 77q-172 0 -172 -297q0 -275 172 -275q88 0 130 72z" />
    <glyph glyph-name="one" unicode="1" horiz-adv-x="459" 
d="M395 68v-68h-330v68h122v520q-25 -19 -54 -32.5t-53 -13.5q-22 0 -35 12t-13 33q0 15 5 25q42 4 93 27t90 61h58v-632h117z" />
    <glyph glyph-name="two" unicode="2" horiz-adv-x="537" 
d="M413 289.5q-76 -98.5 -225 -217.5h293v-72h-429v49q130 106 203.5 180t108 137.5t34.5 129.5q0 63 -33 98t-94 35q-129 0 -144 -156q-41 0 -57.5 13t-16.5 43q0 45 26.5 84.5t76 63t115.5 23.5q101 0 159.5 -53.5t58.5 -158.5q0 -100 -76 -198.5z" />
    <glyph glyph-name="three" unicode="3" horiz-adv-x="550" 
d="M460 310.5q35 -37.5 35 -110.5q0 -97 -66.5 -153t-178.5 -56q-68 0 -119.5 16t-79.5 42.5t-28 57.5q0 24 16 38.5t37 14.5q29 -47 68.5 -72t108.5 -25q72 0 111 36.5t39 99.5t-35 94.5t-94 31.5l-32 -1q-22 -2 -35 -2q-17 0 -29.5 18.5t-12.5 35.5q0 16 11 16h82
q61 0 93.5 32t32.5 97q0 51 -33 79.5t-97 28.5q-56 0 -90.5 -27.5t-60.5 -80.5q-29 0 -45.5 13.5t-16.5 37.5q0 27 27 57t76.5 50.5t111.5 20.5q101 0 160.5 -46.5t59.5 -132.5q0 -62 -29 -102t-74 -58q52 -13 87 -50.5z" />
    <glyph glyph-name="four" unicode="4" horiz-adv-x="522" 
d="M324 160h-304v46q96 133 144 246t58 248q9 2 26 2q65 0 65 -69q0 -85 -59.5 -199t-133.5 -202h204v193h91v-193h88v-72h-88v-160h-91v160z" />
    <glyph glyph-name="five" unicode="5" horiz-adv-x="556" 
d="M406 432.5q51 -27.5 79.5 -79t28.5 -121.5q0 -111 -64 -176t-172 -65q-65 0 -113 18.5t-73.5 47.5t-25.5 59q0 48 51 55q42 -109 158 -109q72 0 109.5 45.5t37.5 120.5q0 81 -37.5 120t-106.5 39q-46 0 -79 -18t-60 -56l-65 11l24 376h368v-71h-289l-14 -206
q51 37 126 37q66 0 117 -27.5z" />
    <glyph glyph-name="six" unicode="6" horiz-adv-x="577" 
d="M412.5 422q50.5 -27 79 -79.5t28.5 -126.5q0 -66 -28.5 -116.5t-81 -78.5t-121.5 -28q-78 0 -133.5 37.5t-84 102t-28.5 145.5q0 116 43.5 214t118 155.5t161.5 57.5q34 0 48.5 -17.5t14.5 -51.5q-108 0 -181 -64.5t-100 -174.5q30 23 70 37.5t81 14.5q63 0 113.5 -27z
M392.5 107.5q35.5 42.5 35.5 111.5q0 81 -36.5 119.5t-102.5 38.5q-44 0 -83.5 -18.5t-69.5 -49.5q-1 -10 -1 -31q0 -96 38 -154.5t118 -58.5q66 0 101.5 42.5z" />
    <glyph glyph-name="seven" unicode="7" horiz-adv-x="482" 
d="M463 700v-47q-109 -174 -153 -304.5t-52 -276.5l-4 -72h-46q-58 0 -55 57l1 29q5 128 63 273.5t153 265.5h-280q-26 0 -39 12t-13 34q0 18 4 29h421z" />
    <glyph glyph-name="eight" unicode="8" horiz-adv-x="564" 
d="M491 284q29 -45 29 -108q0 -90 -63.5 -137.5t-174.5 -47.5q-110 0 -173.5 47.5t-63.5 137.5q0 63 30 108.5t103 75.5q-58 30 -86.5 68.5t-28.5 94.5q0 83 60 132.5t159 49.5q100 0 159 -49.5t59 -132.5q0 -57 -27.5 -96t-84.5 -67q74 -31 103 -76zM189 605.5
q-35 -29.5 -35 -79.5q0 -45 33.5 -78.5t94.5 -54.5q72 23 99.5 54t27.5 79q0 50 -34.5 79.5t-92.5 29.5t-93 -29.5zM388.5 92.5q39.5 30.5 39.5 83.5q0 34 -12.5 57.5t-43.5 43.5t-90 42q-77 -29 -111 -61t-34 -82q0 -53 39 -83.5t106 -30.5t106.5 30.5z" />
    <glyph glyph-name="nine" unicode="9" horiz-adv-x="577" 
d="M461 625q59 -77 59 -205q0 -117 -44.5 -214.5t-121.5 -155t-170 -57.5q-34 0 -49 17.5t-15 51.5q114 0 189 62t104 169q-29 -20 -66.5 -33t-77.5 -13q-101 0 -163.5 59t-62.5 166q0 67 31 119.5t84 81.5t119 29q125 0 184 -77zM427 381q1 13 1 39q0 99 -34 154t-119 55
q-67 0 -103.5 -44.5t-36.5 -116.5q0 -75 37.5 -112t106.5 -37q86 0 148 62z" />
    <glyph glyph-name="colon" unicode=":" horiz-adv-x="324" 
d="M93 416v11q0 56 56 56h10q56 0 56 -56v-11q0 -56 -56 -56h-10q-56 0 -56 56zM93 54v11q0 56 56 56h10q56 0 56 -56v-11q0 -56 -56 -56h-10q-56 0 -56 56z" />
    <glyph glyph-name="semicolon" unicode=";" horiz-adv-x="324" 
d="M200 105.5q15 -15.5 15 -42.5v-14q0 -72 -46 -142q-15 -23 -27 -33t-24 -10q-21 0 -35 12q32 37 47.5 64t20.5 58h-7q-24 0 -37.5 15t-13.5 40v13q0 25 14 40t38 15h15q25 0 40 -15.5zM93 416v11q0 56 56 56h10q56 0 56 -56v-11q0 -56 -56 -56h-10q-56 0 -56 56z" />
    <glyph glyph-name="less" unicode="&#x3c;" horiz-adv-x="600" 
d="M550 525l-412 -221l412 -223v-88l-500 272v78l500 270v-88z" />
    <glyph glyph-name="equal" unicode="=" horiz-adv-x="600" 
d="M70 468h460v-68h-460v68zM70 264h460v-68h-460v68z" />
    <glyph glyph-name="greater" unicode="&#x3e;" horiz-adv-x="600" 
d="M550 343v-78l-500 -272v88l412 223l-412 221v88z" />
    <glyph glyph-name="question" unicode="?" horiz-adv-x="475" 
d="M175 236q0 47 24 81t71 77q42 39 63 68.5t21 66.5q0 50 -30 77.5t-85 27.5q-100 0 -127 -112l-82 29q12 70 70 114t142 44q58 0 105 -21.5t74 -62.5t27 -96q0 -42 -14.5 -74t-35 -54t-53.5 -49q-43 -36 -63.5 -62.5t-20.5 -67.5v-23h-86v37zM159 54v11q0 56 56 56h10
q56 0 56 -56v-11q0 -56 -56 -56h-10q-56 0 -56 56z" />
    <glyph glyph-name="at" unicode="@" horiz-adv-x="834" 
d="M559 274q-1 -7 -3 -19.5t-2 -20.5q0 -33 33 -33t63 26.5t49 73t19 104.5q0 77 -36 135.5t-100.5 90t-148.5 31.5q-91 0 -160.5 -40t-108 -111t-38.5 -161q0 -97 39 -168t111 -109t169 -38q69 0 116 15t90 44q24 -13 24 -35q0 -20 -31.5 -38t-85 -29.5t-113.5 -11.5
q-115 0 -200.5 43.5t-132.5 127t-47 201.5q0 101 47.5 184.5t131.5 132t188 48.5q103 0 181.5 -40t122 -111.5t43.5 -162.5q0 -77 -28 -136.5t-73.5 -91.5t-95.5 -32q-30 0 -52.5 16.5t-30.5 43.5q-36 -60 -113 -60q-66 0 -105.5 43.5t-39.5 122.5q0 67 22.5 119.5
t63.5 81.5t95 29q73 0 103 -56l7 40h67zM474.5 252q29.5 51 29.5 120q0 53 -21.5 81t-58.5 28q-51 0 -77.5 -48t-26.5 -122q0 -53 18.5 -81.5t55.5 -28.5q51 0 80.5 51z" />
    <glyph glyph-name="A" unicode="A" horiz-adv-x="633" 
d="M476 193h-319q-23 -84 -43 -193h-99q41 202 101.5 371.5t149.5 328.5h102q89 -158 149.5 -327t100.5 -373h-99q-20 109 -43 193zM455 270q-54 184 -138 344q-85 -158 -139 -344h277z" />
    <glyph glyph-name="B" unicode="B" horiz-adv-x="618" 
d="M544.5 301.5q34.5 -45.5 34.5 -104.5q0 -94 -65.5 -145.5t-184.5 -51.5h-246v700h236q105 0 166.5 -50.5t61.5 -136.5q0 -53 -25 -93.5t-67 -57.5q55 -15 89.5 -60.5zM410.5 596q-36.5 29 -104.5 29h-124v-232h121q73 0 108.5 29.5t35.5 90.5q0 54 -36.5 83zM441.5 103
q37.5 28 37.5 94q0 65 -39.5 94t-128.5 29h-129v-245h131q91 0 128.5 28z" />
    <glyph glyph-name="C" unicode="C" horiz-adv-x="609" 
d="M132.5 83.5q-80.5 93.5 -80.5 266.5q0 172 81 266t229 94q60 0 112.5 -20.5t88.5 -57.5q-6 -23 -20 -39t-29 -16q-14 0 -26 9q-30 23 -60.5 33.5t-67.5 10.5q-102 0 -154 -70.5t-52 -209.5q0 -137 52.5 -208t153.5 -71q46 0 85 14.5t74 45.5q16 -4 27 -17t11 -29
q0 -25 -27 -46.5t-72.5 -35t-95.5 -13.5q-149 0 -229.5 93.5z" />
    <glyph glyph-name="D" unicode="D" horiz-adv-x="675" 
d="M539 608.5q86 -91.5 86 -258.5q0 -107 -40 -186t-114 -121.5t-175 -42.5h-217v700h217q157 0 243 -91.5zM464 145.5q60 70.5 60 203.5q0 139 -58 207.5t-176 68.5h-111v-550h111q114 0 174 70.5z" />
    <glyph glyph-name="E" unicode="E" horiz-adv-x="560" 
d="M508 75q0 -45 -10.5 -60t-41.5 -15h-377v700h425v-75h-325v-228h277v-76h-277v-246h329z" />
    <glyph glyph-name="F" unicode="F" horiz-adv-x="530" 
d="M179 625v-227h276v-75h-276v-323h-100v700h419v-75h-319z" />
    <glyph glyph-name="G" unicode="G" horiz-adv-x="673" 
d="M614 377v-304q-40 -40 -101.5 -61.5t-133.5 -21.5q-158 0 -239 91.5t-81 268.5q0 113 38.5 194t111 123.5t173.5 42.5q72 0 133 -24t96 -65q-9 -22 -24 -37.5t-28 -15.5q-15 0 -31 13q-34 26 -69.5 38t-77.5 12q-108 0 -164 -71.5t-56 -209.5q0 -142 53.5 -211.5
t162.5 -69.5q45 0 82.5 10.5t55.5 28.5v192h-114q-24 0 -34 17.5t-10 59.5h257z" />
    <glyph glyph-name="H" unicode="H" horiz-adv-x="687" 
d="M607 700v-700h-99v320h-329v-320h-100v700h100v-303h329v303h99z" />
    <glyph glyph-name="I" unicode="I" horiz-adv-x="350" 
d="M125 700h100v-700h-100v700z" />
    <glyph glyph-name="J" unicode="J" horiz-adv-x="434" 
d="M78 -1.5q-39 8.5 -57 18.5q0 68 30 68q7 0 25 -5q41 -12 73 -12q53 0 80 30t27 88v514h99v-514q0 -89 -54.5 -142.5t-146.5 -53.5q-37 0 -76 8.5z" />
    <glyph glyph-name="K" unicode="K" horiz-adv-x="630" 
d="M608 4q-23 -13 -62 -13q-21 0 -34 7t-24 24l-145 236q-24 38 -46.5 50t-72.5 12h-28v-320h-99v700h99v-305h55q12 0 18 -1l222 306h109l-246 -331q42 -25 78 -83z" />
    <glyph glyph-name="L" unicode="L" horiz-adv-x="513" 
d="M498 75v-75h-412v700h99v-625h313z" />
    <glyph glyph-name="M" unicode="M" horiz-adv-x="835" 
d="M667 0q-4 323 -50 579q-37 -92 -68.5 -186.5t-94.5 -309.5h-75q-54 189 -88 291.5t-74 201.5q-44 -252 -51 -576h-99q9 399 82 700h111q58 -135 91.5 -227.5t64.5 -207.5q34 117 68 210t91 225h111q75 -306 81 -700h-100z" />
    <glyph glyph-name="N" unicode="N" horiz-adv-x="693" 
d="M612 64q2 -28 2 -37q0 -27 -26 -27h-77v47q0 57 -39 111l-294 404v-562h-99v700h85q13 0 21 -3.5t17 -16.5l309 -424v444h99v-563q0 -31 2 -73z" />
    <glyph glyph-name="O" unicode="O" horiz-adv-x="680" 
d="M121.5 84.5q-76.5 94.5 -76.5 269.5q0 171 76.5 263.5t218.5 92.5t218.5 -92.5t76.5 -263.5q0 -175 -76.5 -269.5t-218.5 -94.5t-218.5 94.5zM533 354q0 140 -47.5 208.5t-145.5 68.5t-145.5 -68.5t-47.5 -208.5q0 -285 193 -285t193 285z" />
    <glyph glyph-name="P" unicode="P" horiz-adv-x="615" 
d="M501.5 643q70.5 -57 70.5 -168q0 -113 -71 -172t-207 -59h-112v-244h-99v700h211q137 0 207.5 -57zM429 360q43 36 43 115q0 78 -43 113.5t-138 35.5h-109v-300h109q95 0 138 36z" />
    <glyph glyph-name="Q" unicode="Q" horiz-adv-x="680" 
d="M597 148q-38 -84 -110 -124q38 -46 68 -79q-23 -30 -65 -30q-36 0 -60 32q-19 28 -32 48q-30 -5 -58 -5q-142 0 -218.5 94.5t-76.5 269.5q0 171 76.5 263.5t218.5 92.5t218.5 -92.5t76.5 -263.5q0 -122 -38 -206zM353 69q-11 21 -20.5 36.5t-15.5 26.5l-16 27h90
q19 -33 44 -67q98 59 98 262q0 140 -47.5 208.5t-145.5 68.5t-145.5 -68.5t-47.5 -208.5q0 -285 193 -285h13z" />
    <glyph glyph-name="R" unicode="R" horiz-adv-x="633" 
d="M595 6q-10 -6 -26 -10t-32 -4q-23 0 -36.5 7.5t-23.5 25.5l-100 186q-22 41 -51 57t-81 16h-63v-284h-99v700h230q126 0 196 -55t70 -153q0 -71 -43 -122.5t-116 -71.5q29 -27 47 -61zM307 361q83 0 126.5 33.5t43.5 97.5q0 131 -167 131h-128v-262h125z" />
    <glyph glyph-name="S" unicode="S" horiz-adv-x="642" 
d="M193.5 10.5q-58.5 20.5 -91.5 57t-33 82.5q0 25 19.5 40t53.5 16q13 -67 60.5 -102.5t124.5 -35.5t121.5 33.5t44.5 90.5q0 49 -40 78.5t-140 56.5q-84 23 -133 49.5t-71.5 62t-22.5 85.5q0 86 65 136t178 50q96 0 161.5 -45t88.5 -127q-10 -10 -27 -16.5t-33 -6.5
q-15 0 -25.5 7t-17.5 23q-21 42 -59.5 65t-87.5 23q-71 0 -107 -26t-36 -78q0 -29 13.5 -48.5t46 -36t93.5 -34.5q105 -31 159 -58t75.5 -60.5t21.5 -85.5q0 -65 -33.5 -114t-94.5 -75.5t-142 -26.5q-73 0 -131.5 20.5z" />
    <glyph glyph-name="T" unicode="T" horiz-adv-x="534" 
d="M523 669q0 -22 -10 -34t-29 -12h-168v-623h-98v623h-203v77h504q4 -20 4 -31z" />
    <glyph glyph-name="U" unicode="U" horiz-adv-x="709" 
d="M151 55q-68 65 -68 196v449h99v-463q0 -86 43 -127.5t131 -41.5q89 0 131 41t42 128v463h99v-449q0 -134 -66.5 -197.5t-205.5 -63.5q-137 0 -205 65z" />
    <glyph glyph-name="V" unicode="V" horiz-adv-x="638" 
d="M611 700q-28 -192 -87.5 -364t-156.5 -336h-95q-97 165 -157 337t-88 363h103q47 -336 189 -594q142 258 189 594h103z" />
    <glyph glyph-name="W" unicode="W" horiz-adv-x="869" 
d="M854 700q-22 -168 -59 -323t-109 -377h-109q-61 198 -89.5 303t-47.5 204q-23 -110 -53 -220t-85 -287h-109q-72 208 -112 367t-66 333h99q19 -151 48 -276t86 -309q40 125 71.5 243t83.5 342h69q76 -296 102.5 -391.5t57.5 -192.5q55 183 82 307t46 277h94z" />
    <glyph glyph-name="X" unicode="X" horiz-adv-x="589" 
d="M468 0q-15 91 -58.5 162t-115.5 146q-71 -76 -114.5 -146.5t-58.5 -161.5h-104q15 82 47 147.5t72 115t98 107.5q-55 57 -92 102t-66.5 102.5t-43.5 125.5h102q17 -79 56.5 -140t103.5 -129q64 67 104 128.5t57 140.5h101q-14 -68 -43.5 -125t-66 -102t-91.5 -103
q58 -58 97.5 -107.5t71.5 -115t47 -147.5h-103z" />
    <glyph glyph-name="Y" unicode="Y" horiz-adv-x="590" 
d="M573 700l-229 -406v-294h-98v294l-229 406h104l175 -317l174 317h103z" />
    <glyph glyph-name="Z" unicode="Z" horiz-adv-x="580" 
d="M531 73v-73h-480v73l366 554h-368v73h474v-77l-360 -550h368z" />
    <glyph glyph-name="bracketleft" unicode="[" horiz-adv-x="389" 
d="M92 845h223v-63h-126v-807h126v-63h-223v933z" />
    <glyph glyph-name="backslash" unicode="\" horiz-adv-x="334" 
d="M273 -55l-290 866h78l290 -866h-78z" />
    <glyph glyph-name="bracketright" unicode="]" horiz-adv-x="389" 
d="M74 -88v63h126v807h-126v63h223v-933h-223z" />
    <glyph glyph-name="asciicircum" unicode="^" horiz-adv-x="657" 
d="M285 791h85l232 -467h-99l-178 354l-171 -354h-99z" />
    <glyph glyph-name="underscore" unicode="_" horiz-adv-x="684" 
d="M0 -102h684v-73h-684v73z" />
    <glyph glyph-name="grave" unicode="`" horiz-adv-x="243" 
d="M-17 780h109l88 -151h-79z" />
    <glyph glyph-name="a" unicode="a" horiz-adv-x="561" 
d="M493.5 72q7.5 -30 26.5 -52q-14 -11 -34 -18.5t-37 -7.5q-46 0 -55 82q-30 -41 -76.5 -63.5t-104.5 -22.5q-75 0 -120.5 39t-45.5 104q0 184 344 201v39q0 58 -29 86t-90 28q-40 0 -75 -16t-80 -56q-7 -5 -13 -5q-13 0 -28 13.5t-28 37.5q42 47 104 73t129 26
q96 0 150.5 -49.5t54.5 -137.5v-213q0 -58 7.5 -88zM320 86.5q40 27.5 71 78.5v107q-248 -11 -248 -133q0 -39 23.5 -59.5t67.5 -20.5q46 0 86 27.5z" />
    <glyph glyph-name="b" unicode="b" horiz-adv-x="610" 
d="M509.5 486q60.5 -74 60.5 -205q0 -136 -62 -213.5t-170 -77.5q-101 0 -159 67q-9 -59 -41 -59q-40 0 -73 19q13 23 18 54.5t5 85.5v634h96v-284q68 53 157 53q108 0 168.5 -74zM436.5 117q36.5 56 36.5 164q0 102 -37 156t-107 54q-40 0 -77.5 -14.5t-67.5 -41.5v-298
q54 -76 145 -76q71 0 107.5 56z" />
    <glyph glyph-name="c" unicode="c" horiz-adv-x="560" 
d="M105 64.5q-68 74.5 -68 213.5q0 86 31 150t89 98t137 34q94 0 154.5 -47.5t71.5 -127.5q-16 -9 -34 -14.5t-32 -5.5q-12 0 -18.5 7t-11.5 26q-13 46 -46 69.5t-84 23.5q-74 0 -117.5 -57.5t-43.5 -155.5q0 -103 44 -160t122 -57q118 0 157 122q27 0 41.5 -14.5
t14.5 -40.5q0 -36 -29.5 -68t-78.5 -51t-105 -19q-126 0 -194 74.5z" />
    <glyph glyph-name="d" unicode="d" horiz-adv-x="598" 
d="M537 14q-36 -19 -70 -19q-33 0 -42 68q-30 -38 -68 -55.5t-91 -17.5q-107 0 -168 75t-61 208q0 134 67 210.5t185 76.5q34 0 71.5 -11.5t61.5 -28.5v271h95v-637q0 -96 20 -140zM359 79.5q35 20.5 63 63.5v300q-21 22 -56.5 36t-71.5 14q-78 0 -119.5 -56.5t-41.5 -163.5
q0 -106 37 -160t108 -54q46 0 81 20.5z" />
    <glyph glyph-name="e" unicode="e" horiz-adv-x="567" 
d="M527 261h-384q4 -95 44 -147.5t110 -52.5q47 0 78.5 19t61.5 66q8 11 22 11q23 0 60 -27q-26 -66 -84 -103t-138 -37q-77 0 -133.5 34.5t-86.5 99t-30 152.5q0 133 67.5 208.5t186.5 75.5q109 0 169 -65t60 -182q0 -20 -3 -52zM433 325q0 165 -135 165q-67 0 -106 -42
t-47 -123h288z" />
    <glyph glyph-name="f" unicode="f" horiz-adv-x="345" 
d="M333 771.5q28 -13.5 28 -37.5q0 -11 -4 -21.5t-9 -13.5q-33 15 -72 15q-37 0 -56.5 -24t-19.5 -70v-70h117v-65h-117v-485h-95v485h-96v65h96v71q0 77 40.5 120.5t110.5 43.5q49 0 77 -13.5z" />
    <glyph glyph-name="g" unicode="g" horiz-adv-x="585" 
d="M560.5 575.5q10.5 -13.5 10.5 -44.5q0 -15 -1 -23q-72 0 -101 -19q38 -47 38 -113q0 -95 -58 -143.5t-170 -48.5q-61 0 -87.5 -8.5t-26.5 -27.5q0 -21 33.5 -30.5t110.5 -9.5q115 0 177.5 -39t62.5 -110q0 -77 -68 -120t-192 -43q-119 0 -182.5 37.5t-63.5 108.5
q0 42 29.5 71.5t84.5 41.5v3q-33 8 -52.5 29.5t-19.5 50.5q0 25 20.5 45t55.5 29q-45 24 -70.5 63.5t-25.5 88.5q0 96 59.5 146t173.5 50q66 0 117 -27q24 26 54 41t58 15q23 0 33.5 -13.5zM380 281q29 28 29 91t-29.5 92t-94.5 29q-63 0 -93 -29.5t-30 -91.5
q0 -119 123 -119q66 0 95 28zM141 -47q0 -87 148 -87q82 0 124 22t42 65t-38.5 63t-123.5 20q-152 0 -152 -83z" />
    <glyph glyph-name="h" unicode="h" horiz-adv-x="630" 
d="M494.5 512.5q47.5 -47.5 47.5 -129.5v-383h-94v372q0 57 -26.5 86t-77.5 29q-41 0 -86.5 -18.5t-85.5 -51.5v-417h-94v791h94v-302q41 33 92 52t102 19q81 0 128.5 -47.5z" />
    <glyph glyph-name="i" unicode="i" horiz-adv-x="288" 
d="M97 550h94v-550h-94v550zM83 707v11q0 56 56 56h10q56 0 56 -56v-11q0 -56 -56 -56h-10q-56 0 -56 56z" />
    <glyph glyph-name="j" unicode="j" horiz-adv-x="270" 
d="M-18.5 -192q-26.5 7 -37.5 18q-9 9 -9 22q0 11 5.5 21.5t11.5 11.5q30 -15 72 -15q30 0 46.5 18t16.5 54v612h94v-603q0 -69 -38 -107.5t-109 -38.5q-26 0 -52.5 7zM73 707v11q0 56 56 56h10q56 0 56 -56v-11q0 -56 -56 -56h-10q-56 0 -56 56z" />
    <glyph glyph-name="k" unicode="k" horiz-adv-x="570" 
d="M555 0q-22 0 -50 -2q-22 -2 -27 -2q-16 0 -26 6t-17 18l-112 185q-15 25 -39.5 36t-65.5 10l-39 -2v-249h-95v791h95v-467l33 1q27 1 42.5 10t29.5 32l127 183h111l-156 -211q-10 -15 -18 -24.5t-21 -16.5q50 -12 74 -52z" />
    <glyph glyph-name="l" unicode="l" horiz-adv-x="268" 
d="M87 791h94v-791h-94v791z" />
    <glyph glyph-name="m" unicode="m" horiz-adv-x="912" 
d="M783 514q45 -46 45 -122v-392h-96v389q0 55 -21.5 79.5t-70.5 24.5q-74 0 -137 -69q1 -7 1 -20v-404h-94v399q0 45 -23 69.5t-65 24.5q-37 0 -71.5 -18.5t-70.5 -57.5v-417h-95v360q0 145 -12 175q17 8 35.5 13.5t32.5 5.5q20 0 29 -15.5t10 -49.5q37 37 77 54t91 17
q46 0 82 -20.5t55 -56.5q37 40 80.5 58.5t98.5 18.5q74 0 119 -46z" />
    <glyph glyph-name="n" unicode="n" horiz-adv-x="610" 
d="M529.5 52q2.5 -23 9.5 -42q-36 -15 -75 -15q-19 0 -25.5 22.5t-6.5 84.5v268q0 64 -22.5 91.5t-74.5 27.5q-77 0 -160 -75v-414h-95v365q0 138 -12 171q47 18 74 18q33 0 33 -58v-10q48 39 90.5 56.5t90.5 17.5q86 0 128.5 -46.5t42.5 -141.5v-241q0 -56 2.5 -79z" />
    <glyph glyph-name="o" unicode="o" horiz-adv-x="555" 
d="M98 63q-61 73 -61 213t61 212t179 72t179.5 -72t61.5 -212t-61.5 -213t-179.5 -73t-179 73zM386.5 111q34.5 52 34.5 165q0 112 -34.5 163.5t-109.5 51.5t-109.5 -51.5t-34.5 -163.5q0 -113 35 -165t109 -52q75 0 109.5 52z" />
    <glyph glyph-name="p" unicode="p" horiz-adv-x="598" 
d="M504 488q58 -72 58 -209q0 -87 -31 -152.5t-88.5 -101t-134.5 -35.5q-69 0 -131 24v-237h-95v578q0 145 -19 178q19 10 39 15.5t35 5.5q33 0 39 -59q67 65 160 65q110 0 168 -72zM421.5 116q42.5 57 42.5 163q0 107 -34.5 159.5t-104.5 52.5q-41 0 -80 -19t-68 -52v-335
q26 -12 58.5 -19t65.5 -7q78 0 120.5 57z" />
    <glyph glyph-name="q" unicode="q" horiz-adv-x="608" 
d="M541 533q-12 -20 -18 -68.5t-6 -109.5v-578h-95v260q-36 -26 -71 -36.5t-83 -10.5q-109 0 -170 76t-61 210q0 87 28 151t80 98.5t123 34.5q54 0 91.5 -14t69.5 -46q11 54 41 54q35 0 71 -21zM422 110v310v5q-54 68 -139 68q-73 0 -111 -55.5t-38 -161.5q0 -111 38 -165
t115 -54q79 0 135 53z" />
    <glyph glyph-name="r" unicode="r" horiz-adv-x="413" 
d="M395 498q0 -24 -13 -39q-26 13 -68 13q-66 0 -103.5 -48.5t-37.5 -133.5v-290h-95v550h95v-92q22 45 60.5 72t82.5 27q79 0 79 -59z" />
    <glyph glyph-name="s" unicode="s" horiz-adv-x="492" 
d="M145 5q-48 15 -77.5 39.5t-29.5 53.5q0 18 12.5 31.5t32.5 16.5q31 -45 70 -66t96 -21t86 25.5t29 67.5q0 27 -17.5 44.5t-44 28t-71.5 22.5q-59 16 -94.5 31.5t-61 46t-25.5 80.5t28 85t72 52.5t92 17.5q67 0 119.5 -26.5t81.5 -73.5q-12 -17 -26 -27t-26 -10
q-15 0 -27 14q-48 56 -123 56q-46 0 -73 -21t-27 -64q0 -27 17 -43.5t43 -26t70 -20.5q60 -16 96 -31t62 -47t26 -85q0 -77 -56.5 -121t-153.5 -44q-52 0 -100 15z" />
    <glyph glyph-name="t" unicode="t" horiz-adv-x="384" 
d="M365 63.5q5 -9.5 5 -21.5q0 -20 -15 -29q-15 -11 -41.5 -17t-57.5 -6q-67 0 -107 36.5t-40 97.5v359h-97v67h97v150h95v-150h131v-67h-131v-346q0 -40 16 -58.5t49 -18.5q40 0 83 17q8 -4 13 -13.5z" />
    <glyph glyph-name="u" unicode="u" horiz-adv-x="617" 
d="M545 10q-28 -15 -62 -15q-24 0 -34.5 16t-12.5 59q-29 -37 -76.5 -58.5t-103.5 -21.5q-86 0 -129.5 46.5t-43.5 138.5v375h95v-368q0 -66 23.5 -95.5t76.5 -29.5q47 0 88 24.5t69 69.5v399h95v-430q0 -65 15 -110z" />
    <glyph glyph-name="v" unicode="v" horiz-adv-x="517" 
d="M499 550q-12 -156 -59 -290.5t-135 -259.5h-90q-90 125 -137.5 259.5t-59.5 290.5h97q10 -135 44 -244.5t101 -213.5q66 104 99.5 213t42.5 245h97z" />
    <glyph glyph-name="w" unicode="w" horiz-adv-x="773" 
d="M741 550q-33 -314 -150 -550h-76q-48 96 -78 183t-49 183q-18 -96 -49 -183t-80 -183h-77q-60 116 -96.5 249t-56.5 301h96q15 -139 37.5 -242.5t63.5 -192.5q90 188 120 435h86q32 -253 120 -438q41 96 62.5 204t28.5 234h98z" />
    <glyph glyph-name="x" unicode="x" horiz-adv-x="496" 
d="M385 0q-5 61 -40 114.5t-97 116.5q-62 -63 -97 -116.5t-40 -114.5h-95q6 79 51 144t125 142q-77 75 -119 134.5t-48 129.5h95q4 -54 37 -103t91 -106q58 57 91 106t37 103h95q-6 -70 -48 -129.5t-119 -134.5q80 -77 125 -142t51 -144h-95z" />
    <glyph glyph-name="y" unicode="y" horiz-adv-x="502" 
d="M496 550l-213 -592q-31 -85 -74.5 -122t-113.5 -37q-42 0 -67 14.5t-25 37.5t20 42q11 -8 30 -12.5t38 -4.5q40 0 66.5 31.5t47.5 101.5l-196 541h99l145 -419l144 419h99z" />
    <glyph glyph-name="z" unicode="z" horiz-adv-x="507" 
d="M477 71v-71h-447v61l323 418h-297v71h413v-60l-326 -419h334z" />
    <glyph glyph-name="braceleft" unicode="{" horiz-adv-x="364" 
d="M144.5 -63q-33.5 35 -33.5 95v213q0 37 -16 59.5t-54 29.5v43q38 7 54 30t16 60v213q0 59 33.5 94t88.5 35h65v-64h-32q-64 0 -64 -72v-199q0 -53 -19.5 -80t-59.5 -37v-3q39 -9 59 -36t20 -80v-199q0 -72 64 -72h32v-65h-65q-55 0 -88.5 35z" />
    <glyph glyph-name="bar" unicode="|" horiz-adv-x="256" 
d="M85 802h86v-814h-86v814z" />
    <glyph glyph-name="braceright" unicode="}" horiz-adv-x="364" 
d="M66 -98v65h32q64 0 64 72v199q0 53 20 80t59 36v3q-40 10 -59.5 37t-19.5 80v199q0 72 -64 72h-32v64h65q55 0 88.5 -35t33.5 -94v-213q0 -37 16 -60t54 -30v-43q-38 -7 -54 -29.5t-16 -59.5v-213q0 -60 -33.5 -95t-88.5 -35h-65z" />
    <glyph glyph-name="asciitilde" unicode="~" horiz-adv-x="600" 
d="M50 266q21 40 57.5 65t88.5 25q31 0 55 -10t57 -29q29 -18 50.5 -26.5t47.5 -8.5q37 0 57.5 18t38.5 57l50 -41q-15 -46 -52.5 -74t-93.5 -28q-33 0 -58 10t-57 30q-30 17 -49.5 25.5t-44.5 8.5q-61 0 -99 -75z" />
    <glyph glyph-name="uni00A0" unicode="&#xa0;" horiz-adv-x="258" 
 />
    <glyph glyph-name="exclamdown" unicode="&#xa1;" horiz-adv-x="243" 
d="M184 506v-11q0 -56 -56 -56h-10q-56 0 -56 56v11q0 56 56 56h10q56 0 56 -56zM179 -140h-112l21 487h70z" />
    <glyph glyph-name="cent" unicode="&#xa2;" horiz-adv-x="547" 
d="M497.5 168.5q14.5 -14.5 14.5 -40.5q0 -36 -29.5 -68t-78.5 -51t-105 -19q-45 0 -86 11l-27 -81h-60l34 102q-60 32 -91.5 97.5t-31.5 158.5q0 86 31 150t89 98t137 34q22 0 43 -3l27 81h59l-31 -94q54 -20 87.5 -61t40.5 -98q-16 -9 -34 -14.5t-32 -5.5q-12 0 -18.5 7
t-11.5 26q-15 53 -55 75l-133 -400q29 -12 63 -12q118 0 157 122q27 0 41.5 -14.5zM188 106l127 384q-7 1 -21 1q-74 0 -117.5 -57.5t-43.5 -155.5q0 -115 55 -172z" />
    <glyph glyph-name="sterling" unicode="&#xa3;" horiz-adv-x="609" 
d="M538 174q-7 -81 -60 -132.5t-137 -51.5q-59 0 -101.5 13.5t-79.5 42.5q-54 -45 -144 -56v82q65 13 93.5 46.5t28.5 100.5q0 38 -12 98h-112v65h99q-15 79 -15 122q0 63 27.5 109.5t76 71.5t110.5 25q88 0 145 -45.5t72 -127.5q-11 -9 -28 -16.5t-30 -7.5q-22 0 -31 27
q-16 49 -45.5 74t-83.5 25q-59 0 -90 -35.5t-31 -99.5q0 -45 15 -122h156v-65h-143q13 -65 13 -99q0 -66 -25 -114q60 -43 125 -43q52 0 83 28.5t42 96.5z" />
    <glyph glyph-name="currency" unicode="&#xa4;" horiz-adv-x="609" 
d="M33 122l59 59q-59 67 -59 172q0 98 59 170l-59 59l40 42l62 -61q36 30 79 45.5t90 15.5q95 0 170 -61l60 61l42 -42l-59 -59q59 -72 59 -170q0 -105 -59 -172l59 -59l-42 -41l-60 59q-77 -59 -170 -59q-96 0 -169 59l-62 -59zM397.5 190.5q41.5 23.5 64.5 66t23 96.5
t-23 96.5t-64.5 66t-93.5 23.5t-93 -23.5t-64 -66t-23 -96.5t23 -96.5t64 -66t93 -23.5t93.5 23.5z" />
    <glyph glyph-name="yen" unicode="&#xa5;" horiz-adv-x="590" 
d="M386 369h126v-56h-157l-11 -19v-70h168v-56h-168v-168h-98v168h-168v56h168v70l-11 19h-157v56h126l-187 331h104l175 -317l174 317h103z" />
    <glyph glyph-name="brokenbar" unicode="&#xa6;" horiz-adv-x="256" 
d="M85 802h86v-307h-86v307zM85 295h86v-307h-86v307z" />
    <glyph glyph-name="section" unicode="&#xa7;" horiz-adv-x="487" 
d="M331 330.5q-18 28.5 -57 45.5l-126 56q-90 39 -90 125q0 46 24 80t65.5 52t90.5 18q86 0 135.5 -39t54.5 -103l-84 -9q-5 39 -29 61t-77 22q-47 0 -71 -20t-24 -59q0 -26 14.5 -42.5t46.5 -30.5l135 -60q99 -41 99 -166h-89q0 41 -18 69.5zM113 -48.5q-50 39.5 -55 102.5
l84 9q3 -38 28.5 -60.5t76.5 -22.5q48 0 72 21.5t24 59.5q0 27 -13.5 44t-44.5 31l-135 59q-102 44 -102 163h89q0 -40 20 -68t61 -47l123 -56q46 -21 68 -50.5t22 -74.5q0 -69 -51.5 -109.5t-132.5 -40.5q-84 0 -134 39.5z" />
    <glyph glyph-name="dieresis" unicode="&#xa8;" horiz-adv-x="315" 
d="M0 691v10q0 52 52 52h9q52 0 52 -52v-10q0 -52 -52 -52h-9q-52 0 -52 52zM203 691v10q0 52 51 52h10q51 0 51 -52v-10q0 -52 -51 -52h-10q-51 0 -51 52z" />
    <glyph glyph-name="copyright" unicode="&#xa9;" horiz-adv-x="774" 
d="M201 36q-82 46 -128 128t-46 186t46 186t128 128t186 46t186 -46t128 -128t46 -186t-46 -186t-128 -128t-186 -46t-186 46zM543 78.5q69 39.5 108 110.5t39 161t-39 161t-108 110.5t-156 39.5t-156 -39.5t-107.5 -110.5t-38.5 -161t38.5 -161t107.5 -110.5t156 -39.5
t156 39.5zM249 192q-55 60 -55 159t53 157.5t148 58.5q76 0 120.5 -35.5t58.5 -99.5l-67 -19q-10 45 -36 68.5t-75 23.5q-125 0 -125 -154q0 -71 34 -114t94 -43q79 0 105 76l67 -19q-18 -55 -61 -87t-111 -32q-95 0 -150 60z" />
    <glyph glyph-name="ordfeminine" unicode="&#xaa;" horiz-adv-x="380" 
d="M341.5 402.5q1.5 -15.5 7.5 -29.5q-20 -13 -45 -13q-35 0 -39 50q-40 -51 -117 -51q-48 0 -78.5 25.5t-30.5 68.5q0 70 58 95t168 27v9q0 73 -71 73q-23 0 -39.5 -7t-27 -14l-13.5 -9q-12 -9 -18 -12t-14 -3q-12 0 -21.5 12t-13.5 28q57 60 156 60q58 0 97.5 -32
t39.5 -94v-140q0 -28 1.5 -43.5zM223 428q27 15 42 39v59q-72 -1 -111.5 -14.5t-39.5 -53.5q0 -45 53 -45q29 0 56 15z" />
    <glyph glyph-name="guillemotleft" unicode="&#xab;" horiz-adv-x="523" 
d="M235 288l128 164h88l-119 -164l119 -171h-88zM60 288l128 164h88l-119 -164l119 -171h-88z" />
    <glyph glyph-name="logicalnot" unicode="&#xac;" horiz-adv-x="600" 
d="M451 300h-401v74h490v-264h-89v190z" />
    <glyph glyph-name="uni00AD" unicode="&#xad;" horiz-adv-x="380" 
d="M40 340h300v-66h-300v66z" />
    <glyph glyph-name="registered" unicode="&#xae;" horiz-adv-x="774" 
d="M568.5 661q82.5 -49 130.5 -131.5t48 -179.5t-48 -179.5t-130.5 -131.5t-181.5 -49q-98 0 -180.5 49t-131 131.5t-48.5 179.5t48.5 179.5t131 131.5t180.5 49q99 0 181.5 -49zM541.5 80.5q69.5 41.5 109 112.5t39.5 157t-39.5 157t-109 112.5t-154.5 41.5
q-84 0 -153 -41.5t-109 -113t-40 -156.5t40 -156.5t109 -113t153 -41.5q85 0 154.5 41.5zM539 340q-24 -31 -65 -43l86 -152h-82l-78 145h-75v-145h-77v398h170q73 0 109 -33.5t36 -92.5q0 -46 -24 -77zM484 418q0 31 -19 48t-57 17h-83v-132h79q80 0 80 67z" />
    <glyph glyph-name="macron" unicode="&#xaf;" horiz-adv-x="243" 
d="M-42 724h326v-73h-326v73z" />
    <glyph glyph-name="degree" unicode="&#xb0;" horiz-adv-x="438" 
d="M137.5 503q-36.5 22 -57.5 58.5t-21 80.5q0 43 21 80t57.5 58.5t81.5 21.5t81.5 -21.5t57.5 -58.5t21 -80q0 -44 -21 -80.5t-57.5 -58.5t-81.5 -22t-81.5 22zM293 565.5q29 30.5 29 76.5q0 45 -29 75.5t-74 30.5t-74.5 -30.5t-29.5 -75.5q0 -46 29.5 -76.5t74.5 -30.5
t74 30.5z" />
    <glyph glyph-name="plusminus" unicode="&#xb1;" horiz-adv-x="600" 
d="M267 345h-227v65h227v219h67v-219h226v-65h-226v-220h-67v220zM40 66h520v-66h-520v66z" />
    <glyph glyph-name="uni00B2" unicode="&#xb2;" horiz-adv-x="348" 
d="M276 455q-48 -53 -131 -110h178v-63h-298v49q75 49 118.5 82.5t73.5 75t30 88.5q0 34 -20.5 52t-56.5 18q-38 0 -60 -22t-24 -64q-59 0 -59 40q0 28 18 53t51 40.5t75 15.5q71 0 112 -34t41 -101t-48 -120z" />
    <glyph glyph-name="uni00B3" unicode="&#xb3;" horiz-adv-x="361" 
d="M321 472.5q19 -24.5 19 -65.5q0 -59 -42.5 -94t-123.5 -35q-44 0 -78.5 10t-54 26.5t-19.5 34.5q0 15 9.5 24t22.5 9q25 -23 51.5 -34.5t69.5 -11.5q44 0 67 18.5t23 54.5q0 33 -20 49.5t-55 16.5l-26 -1q-8 -1 -22 -1q-11 0 -19.5 18t-8.5 31q0 10 10 10h56
q37 0 54 17.5t17 46.5q0 28 -17.5 43.5t-51.5 15.5q-36 0 -61 -15t-45 -44q-14 0 -25 9.5t-11 25.5q0 34 40.5 56.5t100.5 22.5q66 0 105 -30t39 -82q0 -30 -13 -54t-42 -36q32 -11 51 -35.5z" />
    <glyph glyph-name="acute" unicode="&#xb4;" horiz-adv-x="243" 
d="M161 780h111l-124 -151h-86z" />
    <glyph glyph-name="paragraph" unicode="&#xb6;" horiz-adv-x="560" 
d="M224 328q-56 1 -102.5 29t-74 75t-27.5 103q0 103 63 159t179 56h298v-63h-76v-687h-80v687h-100v-687h-80v328z" />
    <glyph glyph-name="periodcentered" unicode="&#xb7;" horiz-adv-x="308" 
d="M93 292v11q0 56 56 56h10q56 0 56 -56v-11q0 -56 -56 -56h-10q-56 0 -56 56z" />
    <glyph glyph-name="cedilla" unicode="&#xb8;" horiz-adv-x="246" 
d="M203 -76q27 -22 27 -60q0 -45 -34.5 -70.5t-93.5 -25.5q-48 0 -72 12t-24 34q0 8 3 16q41 -11 84 -11q30 0 45.5 11t15.5 32q0 13 -11.5 23.5t-33.5 10.5q-17 0 -36 -6l-24 35l54 75h68l-46 -54h8q43 0 70 -22z" />
    <glyph glyph-name="uni00B9" unicode="&#xb9;" horiz-adv-x="379" 
d="M312 343v-61h-249v61h90v286q-40 -36 -72 -36q-45 0 -45 52q31 3 69 21.5t61 43.5h62v-367h84z" />
    <glyph glyph-name="ordmasculine" unicode="&#xba;" horiz-adv-x="380" 
d="M70.5 405.5q-41.5 48.5 -41.5 127.5q0 80 41.5 128.5t120.5 48.5q78 0 119 -48.5t41 -128.5q0 -79 -41 -127.5t-119 -48.5q-79 0 -120.5 48.5zM254 441q21 29 21 92t-21 92.5t-63 29.5q-86 0 -86 -122q0 -63 22 -92t64 -29t63 29z" />
    <glyph glyph-name="guillemotright" unicode="&#xbb;" horiz-adv-x="523" 
d="M72 117l119 171l-119 164h88l128 -164l-128 -171h-88zM247 117l119 171l-119 164h88l128 -164l-128 -171h-88z" />
    <glyph glyph-name="onequarter" unicode="&#xbc;" horiz-adv-x="1003" 
d="M312 343v-61h-249v61h90v286q-40 -36 -72 -36q-45 0 -45 52q31 3 69 21.5t61 43.5h62v-367h84zM625 700h72l-314 -700h-72zM979 91h-54v-91h-75v91h-208v34q59 79 88.5 146.5t33.5 151.5q16 2 24 2q49 0 49 -43q0 -54 -30 -118t-72 -115h115v109h75v-109h54v-58z" />
    <glyph glyph-name="onehalf" unicode="&#xbd;" horiz-adv-x="963" 
d="M312 343v-61h-249v61h90v286q-40 -36 -72 -36q-45 0 -45 52q31 3 69 21.5t61 43.5h62v-367h84zM625 700h72l-314 -700h-72zM892 174q-48 -53 -131 -110h178v-63h-298v49q75 49 118.5 82.5t73.5 75t30 88.5q0 34 -20.5 52t-56.5 18q-38 0 -60 -22t-24 -64q-59 0 -59 40
q0 28 18 53t51 40.5t75 15.5q71 0 112 -34t41 -101t-48 -120z" />
    <glyph glyph-name="threequarters" unicode="&#xbe;" horiz-adv-x="981" 
d="M321 472.5q19 -24.5 19 -65.5q0 -59 -42.5 -94t-123.5 -35q-44 0 -78.5 10t-54 26.5t-19.5 34.5q0 15 9.5 24t22.5 9q25 -23 51.5 -34.5t69.5 -11.5q44 0 67 18.5t23 54.5q0 33 -20 49.5t-55 16.5l-26 -1q-8 -1 -22 -1q-11 0 -19.5 18t-8.5 31q0 10 10 10h56
q37 0 54 17.5t17 46.5q0 28 -17.5 43.5t-51.5 15.5q-36 0 -61 -15t-45 -44q-14 0 -25 9.5t-11 25.5q0 34 40.5 56.5t100.5 22.5q66 0 105 -30t39 -82q0 -30 -13 -54t-42 -36q32 -11 51 -35.5zM607 700h72l-314 -700h-72zM957 91h-54v-91h-75v91h-208v34q59 79 88.5 146.5
t33.5 151.5q16 2 24 2q49 0 49 -43q0 -54 -30 -118t-72 -115h115v109h75v-109h54v-58z" />
    <glyph glyph-name="questiondown" unicode="&#xbf;" horiz-adv-x="475" 
d="M316 498v-11q0 -56 -56 -56h-10q-56 0 -56 56v11q0 56 56 56h10q56 0 56 -56zM300 316q0 -47 -24 -81t-71 -77q-42 -39 -63 -68.5t-21 -66.5q0 -50 30 -77.5t85 -27.5q100 0 127 112l82 -29q-12 -70 -70 -114t-142 -44q-58 0 -105 21.5t-74 62.5t-27 96q0 42 14.5 74
t35 54t53.5 49q43 36 63.5 62.5t20.5 67.5v23h86v-37z" />
    <glyph glyph-name="Agrave" unicode="&#xc0;" horiz-adv-x="633" 
d="M476 193h-319q-23 -84 -43 -193h-99q41 202 101.5 371.5t149.5 328.5h102q89 -158 149.5 -327t100.5 -373h-99q-20 109 -43 193zM455 270q-54 184 -138 344q-85 -158 -139 -344h277zM186 890h109l88 -151h-79z" />
    <glyph glyph-name="Aacute" unicode="&#xc1;" horiz-adv-x="633" 
d="M476 193h-319q-23 -84 -43 -193h-99q41 202 101.5 371.5t149.5 328.5h102q89 -158 149.5 -327t100.5 -373h-99q-20 109 -43 193zM455 270q-54 184 -138 344q-85 -158 -139 -344h277zM351 890h111l-124 -151h-86z" />
    <glyph glyph-name="Acircumflex" unicode="&#xc2;" horiz-adv-x="633" 
d="M476 193h-319q-23 -84 -43 -193h-99q41 202 101.5 371.5t149.5 328.5h102q89 -158 149.5 -327t100.5 -373h-99q-20 109 -43 193zM455 270q-54 184 -138 344q-85 -158 -139 -344h277zM268 878h99l105 -139h-78l-76 83l-78 -83h-78z" />
    <glyph glyph-name="Atilde" unicode="&#xc3;" horiz-adv-x="633" 
d="M476 193h-319q-23 -84 -43 -193h-99q41 202 101.5 371.5t149.5 328.5h102q89 -158 149.5 -327t100.5 -373h-99q-20 109 -43 193zM455 270q-54 184 -138 344q-85 -158 -139 -344h277zM177 757.5q-12 9.5 -12 27.5q0 36 24.5 56t62.5 20q22 0 38.5 -6t36.5 -17
q15 -9 26 -13t24 -4q39 0 44 43q50 0 50 -40q0 -30 -23 -52t-62 -22q-23 0 -40 6t-38 17q-18 9 -29 13.5t-25 4.5q-38 0 -43 -43q-22 0 -34 9.5z" />
    <glyph glyph-name="Adieresis" unicode="&#xc4;" horiz-adv-x="633" 
d="M476 193h-319q-23 -84 -43 -193h-99q41 202 101.5 371.5t149.5 328.5h102q89 -158 149.5 -327t100.5 -373h-99q-20 109 -43 193zM455 270q-54 184 -138 344q-85 -158 -139 -344h277zM160 801v10q0 52 52 52h9q52 0 52 -52v-10q0 -52 -52 -52h-9q-52 0 -52 52zM363 801v10
q0 52 51 52h10q51 0 51 -52v-10q0 -52 -51 -52h-10q-51 0 -51 52z" />
    <glyph glyph-name="Aring" unicode="&#xc5;" horiz-adv-x="633" 
d="M476 193h-319q-23 -84 -43 -193h-99q41 202 101.5 371.5t149.5 328.5h102q89 -158 149.5 -327t100.5 -373h-99q-20 109 -43 193zM455 270q-54 184 -138 344q-85 -158 -139 -344h277zM234 774q-34 33 -34 83t34 83.5t83 33.5t83 -33.5t34 -83.5t-34 -83t-83 -33t-83 33z
M356.5 817.5q16.5 16.5 16.5 39.5q0 25 -16 40.5t-40 15.5t-40.5 -15.5t-16.5 -40.5q0 -23 16.5 -39.5t40.5 -16.5q23 0 39.5 16.5z" />
    <glyph glyph-name="AE" unicode="&#xc6;" horiz-adv-x="943" 
d="M563 627v-224h284v-73h-284v-257h325q0 -42 -11 -57.5t-47 -15.5h-358v206h-296q-40 -100 -60 -206h-101q39 194 139 378t259 322h477v-73h-327zM472 279v348h-9q-76 -65 -141 -154.5t-114 -193.5h264z" />
    <glyph glyph-name="Ccedilla" unicode="&#xc7;" horiz-adv-x="609" 
d="M546 114q11 -13 11 -29q0 -33 -48.5 -60.5t-116.5 -33.5l-39 -45h9q43 0 70 -22t27 -60q0 -45 -34.5 -70.5t-93.5 -25.5q-49 0 -73 12t-24 34q0 9 4 16q41 -11 84 -11q60 0 60 43q0 13 -11.5 23.5t-33.5 10.5q-15 0 -36 -6l-23 35l47 67q-131 11 -202 103.5t-71 254.5
q0 172 81 266t229 94q60 0 112.5 -20.5t88.5 -57.5q-6 -23 -20 -39t-29 -16q-14 0 -26 9q-30 23 -60.5 33.5t-67.5 10.5q-102 0 -154 -70.5t-52 -209.5q0 -137 52.5 -208t153.5 -71q46 0 85 14.5t74 45.5q16 -4 27 -17z" />
    <glyph glyph-name="Egrave" unicode="&#xc8;" horiz-adv-x="560" 
d="M508 75q0 -45 -10.5 -60t-41.5 -15h-377v700h425v-75h-325v-228h277v-76h-277v-246h329zM149 893h109l88 -151h-79z" />
    <glyph glyph-name="Eacute" unicode="&#xc9;" horiz-adv-x="560" 
d="M508 75q0 -45 -10.5 -60t-41.5 -15h-377v700h425v-75h-325v-228h277v-76h-277v-246h329zM314 893h111l-124 -151h-86z" />
    <glyph glyph-name="Ecircumflex" unicode="&#xca;" horiz-adv-x="560" 
d="M508 75q0 -45 -10.5 -60t-41.5 -15h-377v700h425v-75h-325v-228h277v-76h-277v-246h329zM231 881h99l105 -139h-78l-76 83l-78 -83h-78z" />
    <glyph glyph-name="Edieresis" unicode="&#xcb;" horiz-adv-x="560" 
d="M508 75q0 -45 -10.5 -60t-41.5 -15h-377v700h425v-75h-325v-228h277v-76h-277v-246h329zM123 804v10q0 52 52 52h9q52 0 52 -52v-10q0 -52 -52 -52h-9q-52 0 -52 52zM326 804v10q0 52 51 52h10q51 0 51 -52v-10q0 -52 -51 -52h-10q-51 0 -51 52z" />
    <glyph glyph-name="Igrave" unicode="&#xcc;" horiz-adv-x="350" 
d="M125 700h100v-700h-100v700zM44 893h109l88 -151h-79z" />
    <glyph glyph-name="Iacute" unicode="&#xcd;" horiz-adv-x="350" 
d="M125 700h100v-700h-100v700zM209 893h111l-124 -151h-86z" />
    <glyph glyph-name="Icircumflex" unicode="&#xce;" horiz-adv-x="350" 
d="M125 700h100v-700h-100v700zM126 881h99l105 -139h-78l-76 83l-78 -83h-78z" />
    <glyph glyph-name="Idieresis" unicode="&#xcf;" horiz-adv-x="350" 
d="M125 700h100v-700h-100v700zM18 804v10q0 52 52 52h9q52 0 52 -52v-10q0 -52 -52 -52h-9q-52 0 -52 52zM221 804v10q0 52 51 52h10q51 0 51 -52v-10q0 -52 -51 -52h-10q-51 0 -51 52z" />
    <glyph glyph-name="Eth" unicode="&#xd0;" horiz-adv-x="672" 
d="M539 608.5q86 -91.5 86 -258.5q0 -107 -40 -186t-114 -121.5t-175 -42.5h-217v320h-78v71h78v309h217q157 0 243 -91.5zM464 145.5q60 70.5 60 203.5q0 139 -58 207.5t-176 68.5h-111v-234h167v-71h-167v-245h111q114 0 174 70.5z" />
    <glyph glyph-name="Ntilde" unicode="&#xd1;" horiz-adv-x="693" 
d="M612 64q2 -28 2 -37q0 -27 -26 -27h-77v47q0 57 -39 111l-294 404v-562h-99v700h85q13 0 21 -3.5t17 -16.5l309 -424v444h99v-563q0 -31 2 -73zM206 757.5q-12 9.5 -12 27.5q0 36 24.5 56t62.5 20q22 0 38.5 -6t36.5 -17q15 -9 26 -13t24 -4q39 0 44 43q50 0 50 -40
q0 -30 -23 -52t-62 -22q-23 0 -40 6t-38 17q-18 9 -29 13.5t-25 4.5q-38 0 -43 -43q-22 0 -34 9.5z" />
    <glyph glyph-name="Ograve" unicode="&#xd2;" horiz-adv-x="680" 
d="M121.5 84.5q-76.5 94.5 -76.5 269.5q0 171 76.5 263.5t218.5 92.5t218.5 -92.5t76.5 -263.5q0 -175 -76.5 -269.5t-218.5 -94.5t-218.5 94.5zM533 354q0 140 -47.5 208.5t-145.5 68.5t-145.5 -68.5t-47.5 -208.5q0 -285 193 -285t193 285zM209 893h109l88 -151h-79z" />
    <glyph glyph-name="Oacute" unicode="&#xd3;" horiz-adv-x="680" 
d="M121.5 84.5q-76.5 94.5 -76.5 269.5q0 171 76.5 263.5t218.5 92.5t218.5 -92.5t76.5 -263.5q0 -175 -76.5 -269.5t-218.5 -94.5t-218.5 94.5zM533 354q0 140 -47.5 208.5t-145.5 68.5t-145.5 -68.5t-47.5 -208.5q0 -285 193 -285t193 285zM374 893h111l-124 -151h-86z
" />
    <glyph glyph-name="Ocircumflex" unicode="&#xd4;" horiz-adv-x="680" 
d="M121.5 84.5q-76.5 94.5 -76.5 269.5q0 171 76.5 263.5t218.5 92.5t218.5 -92.5t76.5 -263.5q0 -175 -76.5 -269.5t-218.5 -94.5t-218.5 94.5zM533 354q0 140 -47.5 208.5t-145.5 68.5t-145.5 -68.5t-47.5 -208.5q0 -285 193 -285t193 285zM291 881h99l105 -139h-78
l-76 83l-78 -83h-78z" />
    <glyph glyph-name="Otilde" unicode="&#xd5;" horiz-adv-x="680" 
d="M121.5 84.5q-76.5 94.5 -76.5 269.5q0 171 76.5 263.5t218.5 92.5t218.5 -92.5t76.5 -263.5q0 -175 -76.5 -269.5t-218.5 -94.5t-218.5 94.5zM533 354q0 140 -47.5 208.5t-145.5 68.5t-145.5 -68.5t-47.5 -208.5q0 -285 193 -285t193 285zM200 760.5q-12 9.5 -12 27.5
q0 36 24.5 56t62.5 20q22 0 38.5 -6t36.5 -17q15 -9 26 -13t24 -4q39 0 44 43q50 0 50 -40q0 -30 -23 -52t-62 -22q-23 0 -40 6t-38 17q-18 9 -29 13.5t-25 4.5q-38 0 -43 -43q-22 0 -34 9.5z" />
    <glyph glyph-name="Odieresis" unicode="&#xd6;" horiz-adv-x="680" 
d="M121.5 84.5q-76.5 94.5 -76.5 269.5q0 171 76.5 263.5t218.5 92.5t218.5 -92.5t76.5 -263.5q0 -175 -76.5 -269.5t-218.5 -94.5t-218.5 94.5zM533 354q0 140 -47.5 208.5t-145.5 68.5t-145.5 -68.5t-47.5 -208.5q0 -285 193 -285t193 285zM183 804v10q0 52 52 52h9
q52 0 52 -52v-10q0 -52 -52 -52h-9q-52 0 -52 52zM386 804v10q0 52 51 52h10q51 0 51 -52v-10q0 -52 -51 -52h-10q-51 0 -51 52z" />
    <glyph glyph-name="multiply" unicode="&#xd7;" horiz-adv-x="600" 
d="M100 171l153 153l-153 153l47 47l153 -153l153 153l47 -47l-153 -153l153 -153l-47 -47l-153 153l-153 -153z" />
    <glyph glyph-name="Oslash" unicode="&#xd8;" horiz-adv-x="680" 
d="M635 354q0 -175 -76.5 -269.5t-218.5 -94.5q-109 0 -181 58l-34 -48h-72l64 90q-72 95 -72 264q0 171 76.5 263.5t218.5 92.5q107 0 178 -53l31 44h72l-61 -86q75 -92 75 -261zM176 174l291 411q-46 46 -127 46q-98 0 -145.5 -68.5t-47.5 -208.5q0 -110 29 -180zM533 354
q0 114 -31 179l-292 -412q48 -52 130 -52q193 0 193 285z" />
    <glyph glyph-name="Ugrave" unicode="&#xd9;" horiz-adv-x="709" 
d="M151 55q-68 65 -68 196v449h99v-463q0 -86 43 -127.5t131 -41.5q89 0 131 41t42 128v463h99v-449q0 -134 -66.5 -197.5t-205.5 -63.5q-137 0 -205 65zM223 893h109l88 -151h-79z" />
    <glyph glyph-name="Uacute" unicode="&#xda;" horiz-adv-x="709" 
d="M151 55q-68 65 -68 196v449h99v-463q0 -86 43 -127.5t131 -41.5q89 0 131 41t42 128v463h99v-449q0 -134 -66.5 -197.5t-205.5 -63.5q-137 0 -205 65zM388 893h111l-124 -151h-86z" />
    <glyph glyph-name="Ucircumflex" unicode="&#xdb;" horiz-adv-x="709" 
d="M151 55q-68 65 -68 196v449h99v-463q0 -86 43 -127.5t131 -41.5q89 0 131 41t42 128v463h99v-449q0 -134 -66.5 -197.5t-205.5 -63.5q-137 0 -205 65zM305 881h99l105 -139h-78l-76 83l-78 -83h-78z" />
    <glyph glyph-name="Udieresis" unicode="&#xdc;" horiz-adv-x="709" 
d="M151 55q-68 65 -68 196v449h99v-463q0 -86 43 -127.5t131 -41.5q89 0 131 41t42 128v463h99v-449q0 -134 -66.5 -197.5t-205.5 -63.5q-137 0 -205 65zM197 804v10q0 52 52 52h9q52 0 52 -52v-10q0 -52 -52 -52h-9q-52 0 -52 52zM400 804v10q0 52 51 52h10q51 0 51 -52
v-10q0 -52 -51 -52h-10q-51 0 -51 52z" />
    <glyph glyph-name="Yacute" unicode="&#xdd;" horiz-adv-x="590" 
d="M573 700l-229 -406v-294h-98v294l-229 406h104l175 -317l174 317h103zM329 890h111l-124 -151h-86z" />
    <glyph glyph-name="Thorn" unicode="&#xde;" horiz-adv-x="641" 
d="M517.5 536.5q65.5 -62.5 65.5 -170.5q0 -109 -66 -173t-201 -64h-120v-129h-98v700h98v-101h120q136 0 201.5 -62.5zM442.5 247q40.5 41 40.5 119q0 77 -40.5 116t-129.5 39h-117v-315h117q89 0 129.5 41z" />
    <glyph glyph-name="germandbls" unicode="&#xdf;" horiz-adv-x="624" 
d="M529.5 305q33.5 -44 33.5 -106q0 -103 -58.5 -158t-152.5 -55q-62 0 -105 18.5t-43 56.5q0 13 6.5 22.5t16.5 12.5q27 -21 56 -31t66 -10q61 0 95 34.5t34 101.5q0 62 -34 97t-101 35q-8 0 -28 -2l-24 -1q-13 0 -23 22.5t-10 38.5q0 9 7 9h63q52 0 88 38t36 102
q0 60 -35.5 97t-102.5 37q-70 0 -109.5 -38.5t-39.5 -110.5v-515h-88v515q0 68 32 116.5t86 74t121 25.5t117.5 -27t78 -73t27.5 -101q0 -63 -27 -105t-74 -62q58 -14 91.5 -58z" />
    <glyph glyph-name="agrave" unicode="&#xe0;" horiz-adv-x="561" 
d="M493.5 72q7.5 -30 26.5 -52q-14 -11 -34 -18.5t-37 -7.5q-46 0 -55 82q-30 -41 -76.5 -63.5t-104.5 -22.5q-75 0 -120.5 39t-45.5 104q0 184 344 201v39q0 58 -29 86t-90 28q-40 0 -75 -16t-80 -56q-7 -5 -13 -5q-13 0 -28 13.5t-28 37.5q42 47 104 73t129 26
q96 0 150.5 -49.5t54.5 -137.5v-213q0 -58 7.5 -88zM320 86.5q40 27.5 71 78.5v107q-248 -11 -248 -133q0 -39 23.5 -59.5t67.5 -20.5q46 0 86 27.5zM146 780h109l88 -151h-79z" />
    <glyph glyph-name="aacute" unicode="&#xe1;" horiz-adv-x="561" 
d="M493.5 72q7.5 -30 26.5 -52q-14 -11 -34 -18.5t-37 -7.5q-46 0 -55 82q-30 -41 -76.5 -63.5t-104.5 -22.5q-75 0 -120.5 39t-45.5 104q0 184 344 201v39q0 58 -29 86t-90 28q-40 0 -75 -16t-80 -56q-7 -5 -13 -5q-13 0 -28 13.5t-28 37.5q42 47 104 73t129 26
q96 0 150.5 -49.5t54.5 -137.5v-213q0 -58 7.5 -88zM320 86.5q40 27.5 71 78.5v107q-248 -11 -248 -133q0 -39 23.5 -59.5t67.5 -20.5q46 0 86 27.5zM311 780h111l-124 -151h-86z" />
    <glyph glyph-name="acircumflex" unicode="&#xe2;" horiz-adv-x="561" 
d="M493.5 72q7.5 -30 26.5 -52q-14 -11 -34 -18.5t-37 -7.5q-46 0 -55 82q-30 -41 -76.5 -63.5t-104.5 -22.5q-75 0 -120.5 39t-45.5 104q0 184 344 201v39q0 58 -29 86t-90 28q-40 0 -75 -16t-80 -56q-7 -5 -13 -5q-13 0 -28 13.5t-28 37.5q42 47 104 73t129 26
q96 0 150.5 -49.5t54.5 -137.5v-213q0 -58 7.5 -88zM320 86.5q40 27.5 71 78.5v107q-248 -11 -248 -133q0 -39 23.5 -59.5t67.5 -20.5q46 0 86 27.5zM228 768h99l105 -139h-78l-76 83l-78 -83h-78z" />
    <glyph glyph-name="atilde" unicode="&#xe3;" horiz-adv-x="561" 
d="M493.5 72q7.5 -30 26.5 -52q-14 -11 -34 -18.5t-37 -7.5q-46 0 -55 82q-30 -41 -76.5 -63.5t-104.5 -22.5q-75 0 -120.5 39t-45.5 104q0 184 344 201v39q0 58 -29 86t-90 28q-40 0 -75 -16t-80 -56q-7 -5 -13 -5q-13 0 -28 13.5t-28 37.5q42 47 104 73t129 26
q96 0 150.5 -49.5t54.5 -137.5v-213q0 -58 7.5 -88zM320 86.5q40 27.5 71 78.5v107q-248 -11 -248 -133q0 -39 23.5 -59.5t67.5 -20.5q46 0 86 27.5zM137 647.5q-12 9.5 -12 27.5q0 36 24.5 56t62.5 20q22 0 38.5 -6t36.5 -17q15 -9 26 -13t24 -4q39 0 44 43q50 0 50 -40
q0 -30 -23 -52t-62 -22q-23 0 -40 6t-38 17q-18 9 -29 13.5t-25 4.5q-38 0 -43 -43q-22 0 -34 9.5z" />
    <glyph glyph-name="adieresis" unicode="&#xe4;" horiz-adv-x="561" 
d="M493.5 72q7.5 -30 26.5 -52q-14 -11 -34 -18.5t-37 -7.5q-46 0 -55 82q-30 -41 -76.5 -63.5t-104.5 -22.5q-75 0 -120.5 39t-45.5 104q0 184 344 201v39q0 58 -29 86t-90 28q-40 0 -75 -16t-80 -56q-7 -5 -13 -5q-13 0 -28 13.5t-28 37.5q42 47 104 73t129 26
q96 0 150.5 -49.5t54.5 -137.5v-213q0 -58 7.5 -88zM320 86.5q40 27.5 71 78.5v107q-248 -11 -248 -133q0 -39 23.5 -59.5t67.5 -20.5q46 0 86 27.5zM120 691v10q0 52 52 52h9q52 0 52 -52v-10q0 -52 -52 -52h-9q-52 0 -52 52zM323 691v10q0 52 51 52h10q51 0 51 -52v-10
q0 -52 -51 -52h-10q-51 0 -51 52z" />
    <glyph glyph-name="aring" unicode="&#xe5;" horiz-adv-x="561" 
d="M493.5 72q7.5 -30 26.5 -52q-14 -11 -34 -18.5t-37 -7.5q-46 0 -55 82q-30 -41 -76.5 -63.5t-104.5 -22.5q-75 0 -120.5 39t-45.5 104q0 184 344 201v39q0 58 -29 86t-90 28q-40 0 -75 -16t-80 -56q-7 -5 -13 -5q-13 0 -28 13.5t-28 37.5q42 47 104 73t129 26
q96 0 150.5 -49.5t54.5 -137.5v-213q0 -58 7.5 -88zM320 86.5q40 27.5 71 78.5v107q-248 -11 -248 -133q0 -39 23.5 -59.5t67.5 -20.5q46 0 86 27.5zM194 664q-34 33 -34 83t34 83.5t83 33.5t83 -33.5t34 -83.5t-34 -83t-83 -33t-83 33zM316.5 707.5q16.5 16.5 16.5 39.5
q0 25 -16 40.5t-40 15.5t-40.5 -15.5t-16.5 -40.5q0 -23 16.5 -39.5t40.5 -16.5q23 0 39.5 16.5z" />
    <glyph glyph-name="ae" unicode="&#xe6;" horiz-adv-x="909" 
d="M867 261h-377q6 -202 149 -202q56 0 87 21.5t53 63.5q7 12 21 12q22 0 61 -28q-22 -65 -77.5 -102.5t-144.5 -37.5q-67 0 -118.5 25.5t-82.5 75.5q-37 -48 -91.5 -74.5t-123.5 -26.5q-78 0 -127 38t-49 106q0 195 346 200v41q0 114 -116 114q-49 0 -82.5 -18t-78.5 -55
q-6 -6 -14 -6q-12 0 -27 14.5t-27 38.5q43 44 102 71.5t131 27.5q59 0 104.5 -20.5t71.5 -58.5q33 39 81.5 59t106.5 20q109 0 168 -60t59 -179q0 -30 -5 -60zM775 325q0 168 -133 168q-64 0 -102.5 -42t-47.5 -126h283zM334.5 89.5q46.5 32.5 68.5 87.5q-8 38 -10 89
q-133 -5 -191.5 -37.5t-58.5 -90.5q0 -39 23.5 -60t67.5 -21q54 0 100.5 32.5z" />
    <glyph glyph-name="ccedilla" unicode="&#xe7;" horiz-adv-x="560" 
d="M497.5 168.5q14.5 -14.5 14.5 -40.5q0 -33 -25 -62.5t-67.5 -49.5t-92.5 -25l-39 -45h9q43 0 70 -22t27 -60q0 -45 -34.5 -70.5t-93.5 -25.5q-49 0 -73 12t-24 34q0 9 4 16q41 -11 84 -11q60 0 60 43q0 13 -11.5 23.5t-33.5 10.5q-15 0 -36 -6l-23 35l47 67
q-108 11 -165.5 85t-57.5 201q0 86 31 150t89 98t137 34q94 0 154.5 -47.5t71.5 -127.5q-16 -9 -34 -14.5t-32 -5.5q-12 0 -18.5 7t-11.5 26q-13 46 -46 69.5t-84 23.5q-74 0 -117.5 -57.5t-43.5 -155.5q0 -103 44 -160t122 -57q118 0 157 122q27 0 41.5 -14.5z" />
    <glyph glyph-name="egrave" unicode="&#xe8;" horiz-adv-x="567" 
d="M527 261h-384q4 -95 44 -147.5t110 -52.5q47 0 78.5 19t61.5 66q8 11 22 11q23 0 60 -27q-26 -66 -84 -103t-138 -37q-77 0 -133.5 34.5t-86.5 99t-30 152.5q0 133 67.5 208.5t186.5 75.5q109 0 169 -65t60 -182q0 -20 -3 -52zM433 325q0 165 -135 165q-67 0 -106 -42
t-47 -123h288zM158 780h109l88 -151h-79z" />
    <glyph glyph-name="eacute" unicode="&#xe9;" horiz-adv-x="567" 
d="M527 261h-384q4 -95 44 -147.5t110 -52.5q47 0 78.5 19t61.5 66q8 11 22 11q23 0 60 -27q-26 -66 -84 -103t-138 -37q-77 0 -133.5 34.5t-86.5 99t-30 152.5q0 133 67.5 208.5t186.5 75.5q109 0 169 -65t60 -182q0 -20 -3 -52zM433 325q0 165 -135 165q-67 0 -106 -42
t-47 -123h288zM323 780h111l-124 -151h-86z" />
    <glyph glyph-name="ecircumflex" unicode="&#xea;" horiz-adv-x="567" 
d="M527 261h-384q4 -95 44 -147.5t110 -52.5q47 0 78.5 19t61.5 66q8 11 22 11q23 0 60 -27q-26 -66 -84 -103t-138 -37q-77 0 -133.5 34.5t-86.5 99t-30 152.5q0 133 67.5 208.5t186.5 75.5q109 0 169 -65t60 -182q0 -20 -3 -52zM433 325q0 165 -135 165q-67 0 -106 -42
t-47 -123h288zM240 768h99l105 -139h-78l-76 83l-78 -83h-78z" />
    <glyph glyph-name="edieresis" unicode="&#xeb;" horiz-adv-x="567" 
d="M527 261h-384q4 -95 44 -147.5t110 -52.5q47 0 78.5 19t61.5 66q8 11 22 11q23 0 60 -27q-26 -66 -84 -103t-138 -37q-77 0 -133.5 34.5t-86.5 99t-30 152.5q0 133 67.5 208.5t186.5 75.5q109 0 169 -65t60 -182q0 -20 -3 -52zM433 325q0 165 -135 165q-67 0 -106 -42
t-47 -123h288zM132 691v10q0 52 52 52h9q52 0 52 -52v-10q0 -52 -52 -52h-9q-52 0 -52 52zM335 691v10q0 52 51 52h10q51 0 51 -52v-10q0 -52 -51 -52h-10q-51 0 -51 52z" />
    <glyph glyph-name="igrave" unicode="&#xec;" horiz-adv-x="288" 
d="M97 550h94v-550h-94v550zM13 780h109l88 -151h-79z" />
    <glyph glyph-name="iacute" unicode="&#xed;" horiz-adv-x="288" 
d="M97 550h94v-550h-94v550zM178 780h111l-124 -151h-86z" />
    <glyph glyph-name="icircumflex" unicode="&#xee;" horiz-adv-x="288" 
d="M97 550h94v-550h-94v550zM95 768h99l105 -139h-78l-76 83l-78 -83h-78z" />
    <glyph glyph-name="idieresis" unicode="&#xef;" horiz-adv-x="288" 
d="M97 550h94v-550h-94v550zM-13 691v10q0 52 52 52h9q52 0 52 -52v-10q0 -52 -52 -52h-9q-52 0 -52 52zM190 691v10q0 52 51 52h10q51 0 51 -52v-10q0 -52 -51 -52h-10q-51 0 -51 52z" />
    <glyph glyph-name="eth" unicode="&#xf0;" horiz-adv-x="567" 
d="M489.5 505q37.5 -99 37.5 -220q0 -136 -58.5 -216.5t-184.5 -80.5q-125 0 -184.5 79.5t-59.5 204.5q0 75 25 138.5t79.5 103t139.5 39.5q47 0 84 -15q-31 54 -74 99l-84 -52l-38 54l73 45q-31 27 -73 56l66 57q53 -36 85 -64l100 62l36 -55l-86 -54q79 -82 116.5 -181z
M396 108.5q34 53.5 34 163.5q0 104 -34.5 159t-111.5 55t-112 -55t-35 -159q0 -110 34.5 -163.5t112.5 -53.5t112 53.5z" />
    <glyph glyph-name="ntilde" unicode="&#xf1;" horiz-adv-x="610" 
d="M529.5 52q2.5 -23 9.5 -42q-36 -15 -75 -15q-19 0 -25.5 22.5t-6.5 84.5v268q0 64 -22.5 91.5t-74.5 27.5q-77 0 -160 -75v-414h-95v365q0 138 -12 171q47 18 74 18q33 0 33 -58v-10q48 39 90.5 56.5t90.5 17.5q86 0 128.5 -46.5t42.5 -141.5v-241q0 -56 2.5 -79z
M165 647.5q-12 9.5 -12 27.5q0 36 24.5 56t62.5 20q22 0 38.5 -6t36.5 -17q15 -9 26 -13t24 -4q39 0 44 43q50 0 50 -40q0 -30 -23 -52t-62 -22q-23 0 -40 6t-38 17q-18 9 -29 13.5t-25 4.5q-38 0 -43 -43q-22 0 -34 9.5z" />
    <glyph glyph-name="ograve" unicode="&#xf2;" horiz-adv-x="555" 
d="M98 63q-61 73 -61 213t61 212t179 72t179.5 -72t61.5 -212t-61.5 -213t-179.5 -73t-179 73zM386.5 111q34.5 52 34.5 165q0 112 -34.5 163.5t-109.5 51.5t-109.5 -51.5t-34.5 -163.5q0 -113 35 -165t109 -52q75 0 109.5 52zM146 780h109l88 -151h-79z" />
    <glyph glyph-name="oacute" unicode="&#xf3;" horiz-adv-x="555" 
d="M98 63q-61 73 -61 213t61 212t179 72t179.5 -72t61.5 -212t-61.5 -213t-179.5 -73t-179 73zM386.5 111q34.5 52 34.5 165q0 112 -34.5 163.5t-109.5 51.5t-109.5 -51.5t-34.5 -163.5q0 -113 35 -165t109 -52q75 0 109.5 52zM311 780h111l-124 -151h-86z" />
    <glyph glyph-name="ocircumflex" unicode="&#xf4;" horiz-adv-x="555" 
d="M98 63q-61 73 -61 213t61 212t179 72t179.5 -72t61.5 -212t-61.5 -213t-179.5 -73t-179 73zM386.5 111q34.5 52 34.5 165q0 112 -34.5 163.5t-109.5 51.5t-109.5 -51.5t-34.5 -163.5q0 -113 35 -165t109 -52q75 0 109.5 52zM228 768h99l105 -139h-78l-76 83l-78 -83h-78z
" />
    <glyph glyph-name="otilde" unicode="&#xf5;" horiz-adv-x="555" 
d="M98 63q-61 73 -61 213t61 212t179 72t179.5 -72t61.5 -212t-61.5 -213t-179.5 -73t-179 73zM386.5 111q34.5 52 34.5 165q0 112 -34.5 163.5t-109.5 51.5t-109.5 -51.5t-34.5 -163.5q0 -113 35 -165t109 -52q75 0 109.5 52zM137 647.5q-12 9.5 -12 27.5q0 36 24.5 56
t62.5 20q22 0 38.5 -6t36.5 -17q15 -9 26 -13t24 -4q39 0 44 43q50 0 50 -40q0 -30 -23 -52t-62 -22q-23 0 -40 6t-38 17q-18 9 -29 13.5t-25 4.5q-38 0 -43 -43q-22 0 -34 9.5z" />
    <glyph glyph-name="odieresis" unicode="&#xf6;" horiz-adv-x="555" 
d="M98 63q-61 73 -61 213t61 212t179 72t179.5 -72t61.5 -212t-61.5 -213t-179.5 -73t-179 73zM386.5 111q34.5 52 34.5 165q0 112 -34.5 163.5t-109.5 51.5t-109.5 -51.5t-34.5 -163.5q0 -113 35 -165t109 -52q75 0 109.5 52zM120 691v10q0 52 52 52h9q52 0 52 -52v-10
q0 -52 -52 -52h-9q-52 0 -52 52zM323 691v10q0 52 51 52h10q51 0 51 -52v-10q0 -52 -51 -52h-10q-51 0 -51 52z" />
    <glyph glyph-name="divide" unicode="&#xf7;" horiz-adv-x="600" 
d="M249 483.5q-17 16.5 -17 39.5t17 39.5t40 16.5q24 0 41 -16.5t17 -39.5t-17 -39.5t-41 -16.5q-23 0 -40 16.5zM70 357h460v-66h-460v66zM249 89.5q-17 16.5 -17 39.5q0 24 17 40.5t40 16.5q24 0 41 -16.5t17 -40.5q0 -23 -17 -39.5t-41 -16.5q-23 0 -40 16.5z" />
    <glyph glyph-name="oslash" unicode="&#xf8;" horiz-adv-x="555" 
d="M464 479q54 -72 54 -203q0 -140 -61.5 -213t-179.5 -73q-92 0 -150 45l-26 -35h-71l58 76q-51 72 -51 200q0 140 61 212t179 72q88 0 146 -41l24 31h71zM148 155l227 299q-36 37 -98 37q-75 0 -109.5 -51.5t-34.5 -163.5q0 -73 15 -121zM405 401l-229 -301
q35 -41 101 -41q75 0 109.5 52t34.5 165q0 78 -16 125z" />
    <glyph glyph-name="ugrave" unicode="&#xf9;" horiz-adv-x="616" 
d="M545 10q-28 -15 -62 -15q-24 0 -34.5 16t-12.5 59q-29 -37 -76.5 -58.5t-103.5 -21.5q-86 0 -129.5 46.5t-43.5 138.5v375h95v-368q0 -66 23.5 -95.5t76.5 -29.5q47 0 88 24.5t69 69.5v399h95v-430q0 -65 15 -110zM177 780h109l88 -151h-79z" />
    <glyph glyph-name="uacute" unicode="&#xfa;" horiz-adv-x="616" 
d="M545 10q-28 -15 -62 -15q-24 0 -34.5 16t-12.5 59q-29 -37 -76.5 -58.5t-103.5 -21.5q-86 0 -129.5 46.5t-43.5 138.5v375h95v-368q0 -66 23.5 -95.5t76.5 -29.5q47 0 88 24.5t69 69.5v399h95v-430q0 -65 15 -110zM342 780h111l-124 -151h-86z" />
    <glyph glyph-name="ucircumflex" unicode="&#xfb;" horiz-adv-x="616" 
d="M545 10q-28 -15 -62 -15q-24 0 -34.5 16t-12.5 59q-29 -37 -76.5 -58.5t-103.5 -21.5q-86 0 -129.5 46.5t-43.5 138.5v375h95v-368q0 -66 23.5 -95.5t76.5 -29.5q47 0 88 24.5t69 69.5v399h95v-430q0 -65 15 -110zM259 768h99l105 -139h-78l-76 83l-78 -83h-78z" />
    <glyph glyph-name="udieresis" unicode="&#xfc;" horiz-adv-x="616" 
d="M545 10q-28 -15 -62 -15q-24 0 -34.5 16t-12.5 59q-29 -37 -76.5 -58.5t-103.5 -21.5q-86 0 -129.5 46.5t-43.5 138.5v375h95v-368q0 -66 23.5 -95.5t76.5 -29.5q47 0 88 24.5t69 69.5v399h95v-430q0 -65 15 -110zM151 691v10q0 52 52 52h9q52 0 52 -52v-10
q0 -52 -52 -52h-9q-52 0 -52 52zM354 691v10q0 52 51 52h10q51 0 51 -52v-10q0 -52 -51 -52h-10q-51 0 -51 52z" />
    <glyph glyph-name="yacute" unicode="&#xfd;" horiz-adv-x="502" 
d="M496 550l-213 -592q-31 -85 -74.5 -122t-113.5 -37q-42 0 -67 14.5t-25 37.5t20 42q11 -8 30 -12.5t38 -4.5q40 0 66.5 31.5t47.5 101.5l-196 541h99l145 -419l144 419h99zM285 780h111l-124 -151h-86z" />
    <glyph glyph-name="thorn" unicode="&#xfe;" horiz-adv-x="609" 
d="M499.5 493.5q62.5 -66.5 62.5 -212.5q0 -95 -32.5 -160.5t-89.5 -99t-131 -33.5q-69 0 -131 25v-236h-96v1010h96v-287q62 60 153 60q106 0 168.5 -66.5zM420.5 112.5q43.5 55.5 43.5 168.5q0 111 -36 160.5t-105 49.5q-82 0 -145 -68v-338q56 -28 123 -28
q76 0 119.5 55.5z" />
    <glyph glyph-name="ydieresis" unicode="&#xff;" horiz-adv-x="502" 
d="M496 550l-213 -592q-31 -85 -74.5 -122t-113.5 -37q-42 0 -67 14.5t-25 37.5t20 42q11 -8 30 -12.5t38 -4.5q40 0 66.5 31.5t47.5 101.5l-196 541h99l145 -419l144 419h99zM94 691v10q0 52 52 52h9q52 0 52 -52v-10q0 -52 -52 -52h-9q-52 0 -52 52zM297 691v10
q0 52 51 52h10q51 0 51 -52v-10q0 -52 -51 -52h-10q-51 0 -51 52z" />
    <glyph glyph-name="Amacron" unicode="&#x100;" horiz-adv-x="633" 
d="M476 193h-319q-23 -84 -43 -193h-99q41 202 101.5 371.5t149.5 328.5h102q89 -158 149.5 -327t100.5 -373h-99q-20 109 -43 193zM455 270q-54 184 -138 344q-85 -158 -139 -344h277zM154 834h326v-73h-326v73z" />
    <glyph glyph-name="amacron" unicode="&#x101;" horiz-adv-x="561" 
d="M493.5 72q7.5 -30 26.5 -52q-14 -11 -34 -18.5t-37 -7.5q-46 0 -55 82q-30 -41 -76.5 -63.5t-104.5 -22.5q-75 0 -120.5 39t-45.5 104q0 184 344 201v39q0 58 -29 86t-90 28q-40 0 -75 -16t-80 -56q-7 -5 -13 -5q-13 0 -28 13.5t-28 37.5q42 47 104 73t129 26
q96 0 150.5 -49.5t54.5 -137.5v-213q0 -58 7.5 -88zM320 86.5q40 27.5 71 78.5v107q-248 -11 -248 -133q0 -39 23.5 -59.5t67.5 -20.5q46 0 86 27.5zM114 724h326v-73h-326v73z" />
    <glyph glyph-name="Abreve" unicode="&#x102;" horiz-adv-x="633" 
d="M476 193h-319q-23 -84 -43 -193h-99q41 202 101.5 371.5t149.5 328.5h102q89 -158 149.5 -327t100.5 -373h-99q-20 109 -43 193zM455 270q-54 184 -138 344q-85 -158 -139 -344h277zM230 753q-36 15 -54.5 39t-18.5 50q0 21 16 33t44 12q4 -40 29 -63t71 -23q45 0 70 25
t31 66q60 0 60 -49q0 -28 -19.5 -52t-56 -38.5t-85.5 -14.5q-51 0 -87 15z" />
    <glyph glyph-name="abreve" unicode="&#x103;" horiz-adv-x="561" 
d="M493.5 72q7.5 -30 26.5 -52q-14 -11 -34 -18.5t-37 -7.5q-46 0 -55 82q-30 -41 -76.5 -63.5t-104.5 -22.5q-75 0 -120.5 39t-45.5 104q0 184 344 201v39q0 58 -29 86t-90 28q-40 0 -75 -16t-80 -56q-7 -5 -13 -5q-13 0 -28 13.5t-28 37.5q42 47 104 73t129 26
q96 0 150.5 -49.5t54.5 -137.5v-213q0 -58 7.5 -88zM320 86.5q40 27.5 71 78.5v107q-248 -11 -248 -133q0 -39 23.5 -59.5t67.5 -20.5q46 0 86 27.5zM190 643q-36 15 -54.5 39t-18.5 50q0 21 16 33t44 12q4 -40 29 -63t71 -23q45 0 70 25t31 66q60 0 60 -49q0 -28 -19.5 -52
t-56 -38.5t-85.5 -14.5q-51 0 -87 15z" />
    <glyph glyph-name="Aogonek" unicode="&#x104;" horiz-adv-x="633" 
d="M476 193h-319q-23 -84 -43 -193h-99q41 202 101.5 371.5t149.5 328.5h102q89 -158 149.5 -327t100.5 -373h-99q-20 109 -43 193zM455 270q-54 184 -138 344q-85 -158 -139 -344h277zM507 -187q-29 23 -29 63q0 43 24.5 72.5t68.5 51.5h48q-63 -49 -63 -109
q0 -22 12 -34.5t33 -12.5q26 0 46 10q11 -11 11 -25q0 -17 -19.5 -28t-53.5 -11q-49 0 -78 23z" />
    <glyph glyph-name="aogonek" unicode="&#x105;" horiz-adv-x="561" 
d="M541 -161q0 -17 -19 -28t-54 -11q-49 0 -78 23t-29 63q0 69 71 112q-30 14 -38 78q-30 -41 -76.5 -63.5t-104.5 -22.5q-75 0 -120.5 39t-45.5 104q0 184 344 201v39q0 58 -29 86t-90 28q-40 0 -75 -16t-80 -56q-7 -5 -13 -5q-13 0 -28 13.5t-28 37.5q42 47 104 73t129 26
q96 0 150.5 -49.5t54.5 -137.5v-213q0 -58 7.5 -88t26.5 -52q-14 -10 -23 -14q-58 -48 -58 -105q0 -22 12 -34.5t33 -12.5q26 0 46 10q11 -10 11 -25zM320 86.5q40 27.5 71 78.5v107q-248 -11 -248 -133q0 -39 23.5 -59.5t67.5 -20.5q46 0 86 27.5z" />
    <glyph glyph-name="Cacute" unicode="&#x106;" horiz-adv-x="609" 
d="M132.5 83.5q-80.5 93.5 -80.5 266.5q0 172 81 266t229 94q60 0 112.5 -20.5t88.5 -57.5q-6 -23 -20 -39t-29 -16q-14 0 -26 9q-30 23 -60.5 33.5t-67.5 10.5q-102 0 -154 -70.5t-52 -209.5q0 -137 52.5 -208t153.5 -71q46 0 85 14.5t74 45.5q16 -4 27 -17t11 -29
q0 -25 -27 -46.5t-72.5 -35t-95.5 -13.5q-149 0 -229.5 93.5zM393 890h111l-124 -151h-86z" />
    <glyph glyph-name="cacute" unicode="&#x107;" horiz-adv-x="560" 
d="M105 64.5q-68 74.5 -68 213.5q0 86 31 150t89 98t137 34q94 0 154.5 -47.5t71.5 -127.5q-16 -9 -34 -14.5t-32 -5.5q-12 0 -18.5 7t-11.5 26q-13 46 -46 69.5t-84 23.5q-74 0 -117.5 -57.5t-43.5 -155.5q0 -103 44 -160t122 -57q118 0 157 122q27 0 41.5 -14.5
t14.5 -40.5q0 -36 -29.5 -68t-78.5 -51t-105 -19q-126 0 -194 74.5zM328 780h111l-124 -151h-86z" />
    <glyph glyph-name="Ccircumflex" unicode="&#x108;" horiz-adv-x="609" 
d="M132.5 83.5q-80.5 93.5 -80.5 266.5q0 172 81 266t229 94q60 0 112.5 -20.5t88.5 -57.5q-6 -23 -20 -39t-29 -16q-14 0 -26 9q-30 23 -60.5 33.5t-67.5 10.5q-102 0 -154 -70.5t-52 -209.5q0 -137 52.5 -208t153.5 -71q46 0 85 14.5t74 45.5q16 -4 27 -17t11 -29
q0 -25 -27 -46.5t-72.5 -35t-95.5 -13.5q-149 0 -229.5 93.5zM310 878h99l105 -139h-78l-76 83l-78 -83h-78z" />
    <glyph glyph-name="ccircumflex" unicode="&#x109;" horiz-adv-x="560" 
d="M105 64.5q-68 74.5 -68 213.5q0 86 31 150t89 98t137 34q94 0 154.5 -47.5t71.5 -127.5q-16 -9 -34 -14.5t-32 -5.5q-12 0 -18.5 7t-11.5 26q-13 46 -46 69.5t-84 23.5q-74 0 -117.5 -57.5t-43.5 -155.5q0 -103 44 -160t122 -57q118 0 157 122q27 0 41.5 -14.5
t14.5 -40.5q0 -36 -29.5 -68t-78.5 -51t-105 -19q-126 0 -194 74.5zM245 768h99l105 -139h-78l-76 83l-78 -83h-78z" />
    <glyph glyph-name="Cdotaccent" unicode="&#x10a;" horiz-adv-x="609" 
d="M132.5 83.5q-80.5 93.5 -80.5 266.5q0 172 81 266t229 94q60 0 112.5 -20.5t88.5 -57.5q-6 -23 -20 -39t-29 -16q-14 0 -26 9q-30 23 -60.5 33.5t-67.5 10.5q-102 0 -154 -70.5t-52 -209.5q0 -137 52.5 -208t153.5 -71q46 0 85 14.5t74 45.5q16 -4 27 -17t11 -29
q0 -25 -27 -46.5t-72.5 -35t-95.5 -13.5q-149 0 -229.5 93.5zM298 817v11q0 56 56 56h10q56 0 56 -56v-11q0 -56 -56 -56h-10q-56 0 -56 56z" />
    <glyph glyph-name="cdotaccent" unicode="&#x10b;" horiz-adv-x="560" 
d="M105 64.5q-68 74.5 -68 213.5q0 86 31 150t89 98t137 34q94 0 154.5 -47.5t71.5 -127.5q-16 -9 -34 -14.5t-32 -5.5q-12 0 -18.5 7t-11.5 26q-13 46 -46 69.5t-84 23.5q-74 0 -117.5 -57.5t-43.5 -155.5q0 -103 44 -160t122 -57q118 0 157 122q27 0 41.5 -14.5
t14.5 -40.5q0 -36 -29.5 -68t-78.5 -51t-105 -19q-126 0 -194 74.5zM233 707v11q0 56 56 56h10q56 0 56 -56v-11q0 -56 -56 -56h-10q-56 0 -56 56z" />
    <glyph glyph-name="Ccaron" unicode="&#x10c;" horiz-adv-x="609" 
d="M132.5 83.5q-80.5 93.5 -80.5 266.5q0 172 81 266t229 94q60 0 112.5 -20.5t88.5 -57.5q-6 -23 -20 -39t-29 -16q-14 0 -26 9q-30 23 -60.5 33.5t-67.5 10.5q-102 0 -154 -70.5t-52 -209.5q0 -137 52.5 -208t153.5 -71q46 0 85 14.5t74 45.5q16 -4 27 -17t11 -29
q0 -25 -27 -46.5t-72.5 -35t-95.5 -13.5q-149 0 -229.5 93.5zM208 886h70l82 -85l80 85h70l-101 -139h-99z" />
    <glyph glyph-name="ccaron" unicode="&#x10d;" horiz-adv-x="560" 
d="M105 64.5q-68 74.5 -68 213.5q0 86 31 150t89 98t137 34q94 0 154.5 -47.5t71.5 -127.5q-16 -9 -34 -14.5t-32 -5.5q-12 0 -18.5 7t-11.5 26q-13 46 -46 69.5t-84 23.5q-74 0 -117.5 -57.5t-43.5 -155.5q0 -103 44 -160t122 -57q118 0 157 122q27 0 41.5 -14.5
t14.5 -40.5q0 -36 -29.5 -68t-78.5 -51t-105 -19q-126 0 -194 74.5zM143 776h70l82 -85l80 85h70l-101 -139h-99z" />
    <glyph glyph-name="Dcaron" unicode="&#x10e;" horiz-adv-x="672" 
d="M539 608.5q86 -91.5 86 -258.5q0 -107 -40 -186t-114 -121.5t-175 -42.5h-217v700h217q157 0 243 -91.5zM464 145.5q60 70.5 60 203.5q0 139 -58 207.5t-176 68.5h-111v-550h111q114 0 174 70.5zM185 883h70l82 -85l80 85h70l-101 -139h-99z" />
    <glyph glyph-name="dcaron" unicode="&#x10f;" horiz-adv-x="686" 
d="M537 14q-36 -19 -70 -19q-33 0 -42 68q-30 -38 -68 -55.5t-91 -17.5q-107 0 -168 75t-61 208q0 134 67 210.5t185 76.5q34 0 71.5 -11.5t61.5 -28.5v271h95v-637q0 -96 20 -140zM359 79.5q35 20.5 63 63.5v300q-21 22 -56.5 36t-71.5 14q-78 0 -119.5 -56.5t-41.5 -163.5
q0 -106 37 -160t108 -54q46 0 81 20.5zM567 496q18 20 30.5 45t12.5 50q0 44 -32 70q0 20 15 34.5t39 14.5q29 0 46 -19t17 -56q0 -32 -12 -63.5t-32 -56.5q-28 -33 -54 -33q-16 0 -30 14z" />
    <glyph glyph-name="Dcroat" unicode="&#x110;" horiz-adv-x="672" 
d="M539 608.5q86 -91.5 86 -258.5q0 -107 -40 -186t-114 -121.5t-175 -42.5h-217v320h-78v71h78v309h217q157 0 243 -91.5zM464 145.5q60 70.5 60 203.5q0 139 -58 207.5t-176 68.5h-111v-234h167v-71h-167v-245h111q114 0 174 70.5z" />
    <glyph glyph-name="dcroat" unicode="&#x111;" horiz-adv-x="602" 
d="M517 643v-489q0 -96 20 -140q-36 -19 -70 -19q-33 0 -42 68q-30 -38 -68 -55.5t-91 -17.5q-107 0 -168 75t-61 208q0 134 67 210.5t185 76.5q34 0 71.5 -11.5t61.5 -28.5v123h-131v64h131v84h95v-84h85v-64h-85zM359 79.5q35 20.5 63 63.5v300q-21 22 -56.5 36t-71.5 14
q-78 0 -119.5 -56.5t-41.5 -163.5q0 -106 37 -160t108 -54q46 0 81 20.5z" />
    <glyph glyph-name="Emacron" unicode="&#x112;" horiz-adv-x="560" 
d="M508 75q0 -45 -10.5 -60t-41.5 -15h-377v700h425v-75h-325v-228h277v-76h-277v-246h329zM117 837h326v-73h-326v73z" />
    <glyph glyph-name="emacron" unicode="&#x113;" horiz-adv-x="567" 
d="M527 261h-384q4 -95 44 -147.5t110 -52.5q47 0 78.5 19t61.5 66q8 11 22 11q23 0 60 -27q-26 -66 -84 -103t-138 -37q-77 0 -133.5 34.5t-86.5 99t-30 152.5q0 133 67.5 208.5t186.5 75.5q109 0 169 -65t60 -182q0 -20 -3 -52zM433 325q0 165 -135 165q-67 0 -106 -42
t-47 -123h288zM126 724h326v-73h-326v73z" />
    <glyph glyph-name="Ebreve" unicode="&#x114;" horiz-adv-x="560" 
d="M508 75q0 -45 -10.5 -60t-41.5 -15h-377v700h425v-75h-325v-228h277v-76h-277v-246h329zM193 756q-36 15 -54.5 39t-18.5 50q0 21 16 33t44 12q4 -40 29 -63t71 -23q45 0 70 25t31 66q60 0 60 -49q0 -28 -19.5 -52t-56 -38.5t-85.5 -14.5q-51 0 -87 15z" />
    <glyph glyph-name="ebreve" unicode="&#x115;" horiz-adv-x="567" 
d="M527 261h-384q4 -95 44 -147.5t110 -52.5q47 0 78.5 19t61.5 66q8 11 22 11q23 0 60 -27q-26 -66 -84 -103t-138 -37q-77 0 -133.5 34.5t-86.5 99t-30 152.5q0 133 67.5 208.5t186.5 75.5q109 0 169 -65t60 -182q0 -20 -3 -52zM433 325q0 165 -135 165q-67 0 -106 -42
t-47 -123h288zM202 643q-36 15 -54.5 39t-18.5 50q0 21 16 33t44 12q4 -40 29 -63t71 -23q45 0 70 25t31 66q60 0 60 -49q0 -28 -19.5 -52t-56 -38.5t-85.5 -14.5q-51 0 -87 15z" />
    <glyph glyph-name="Edotaccent" unicode="&#x116;" horiz-adv-x="560" 
d="M508 75q0 -45 -10.5 -60t-41.5 -15h-377v700h425v-75h-325v-228h277v-76h-277v-246h329zM219 820v11q0 56 56 56h10q56 0 56 -56v-11q0 -56 -56 -56h-10q-56 0 -56 56z" />
    <glyph glyph-name="edotaccent" unicode="&#x117;" horiz-adv-x="567" 
d="M527 261h-384q4 -95 44 -147.5t110 -52.5q47 0 78.5 19t61.5 66q8 11 22 11q23 0 60 -27q-26 -66 -84 -103t-138 -37q-77 0 -133.5 34.5t-86.5 99t-30 152.5q0 133 67.5 208.5t186.5 75.5q109 0 169 -65t60 -182q0 -20 -3 -52zM433 325q0 165 -135 165q-67 0 -106 -42
t-47 -123h288zM228 707v11q0 56 56 56h10q56 0 56 -56v-11q0 -56 -56 -56h-10q-56 0 -56 56z" />
    <glyph glyph-name="Eogonek" unicode="&#x118;" horiz-adv-x="560" 
d="M532 -161q0 -17 -19.5 -28t-53.5 -11q-49 0 -78 23t-29 63q0 70 74 114h-347v700h425v-75h-325v-228h277v-76h-277v-246h329q0 -30 -4 -46t-15 -22q-59 -48 -59 -106q0 -22 12 -34.5t33 -12.5q26 0 46 10q11 -11 11 -25z" />
    <glyph glyph-name="eogonek" unicode="&#x119;" horiz-adv-x="567" 
d="M527 261h-384q4 -95 44 -147.5t110 -52.5q47 0 78.5 19t61.5 66q8 11 22 11q23 0 60 -27q-18 -46 -52 -78t-80 -48q-56 -48 -56 -103q0 -22 12 -34.5t33 -12.5q28 0 46 10q11 -10 11 -25q0 -17 -19 -28t-54 -11q-49 0 -77.5 23t-28.5 63q0 64 59 104h-16
q-77 0 -133.5 34.5t-86.5 99t-30 152.5q0 133 67.5 208.5t186.5 75.5q109 0 169 -65t60 -182q0 -20 -3 -52zM433 325q0 165 -135 165q-67 0 -106 -42t-47 -123h288z" />
    <glyph glyph-name="Ecaron" unicode="&#x11a;" horiz-adv-x="560" 
d="M508 75q0 -45 -10.5 -60t-41.5 -15h-377v700h425v-75h-325v-228h277v-76h-277v-246h329zM129 889h70l82 -85l80 85h70l-101 -139h-99z" />
    <glyph glyph-name="ecaron" unicode="&#x11b;" horiz-adv-x="567" 
d="M527 261h-384q4 -95 44 -147.5t110 -52.5q47 0 78.5 19t61.5 66q8 11 22 11q23 0 60 -27q-26 -66 -84 -103t-138 -37q-77 0 -133.5 34.5t-86.5 99t-30 152.5q0 133 67.5 208.5t186.5 75.5q109 0 169 -65t60 -182q0 -20 -3 -52zM433 325q0 165 -135 165q-67 0 -106 -42
t-47 -123h288zM138 776h70l82 -85l80 85h70l-101 -139h-99z" />
    <glyph glyph-name="Gcircumflex" unicode="&#x11c;" horiz-adv-x="673" 
d="M614 377v-304q-40 -40 -101.5 -61.5t-133.5 -21.5q-158 0 -239 91.5t-81 268.5q0 113 38.5 194t111 123.5t173.5 42.5q72 0 133 -24t96 -65q-9 -22 -24 -37.5t-28 -15.5q-15 0 -31 13q-34 26 -69.5 38t-77.5 12q-108 0 -164 -71.5t-56 -209.5q0 -142 53.5 -211.5
t162.5 -69.5q45 0 82.5 10.5t55.5 28.5v192h-114q-24 0 -34 17.5t-10 59.5h257zM328 878h99l105 -139h-78l-76 83l-78 -83h-78z" />
    <glyph glyph-name="gcircumflex" unicode="&#x11d;" horiz-adv-x="585" 
d="M560.5 575.5q10.5 -13.5 10.5 -44.5q0 -15 -1 -23q-72 0 -101 -19q38 -47 38 -113q0 -95 -58 -143.5t-170 -48.5q-61 0 -87.5 -8.5t-26.5 -27.5q0 -21 33.5 -30.5t110.5 -9.5q115 0 177.5 -39t62.5 -110q0 -77 -68 -120t-192 -43q-119 0 -182.5 37.5t-63.5 108.5
q0 42 29.5 71.5t84.5 41.5v3q-33 8 -52.5 29.5t-19.5 50.5q0 25 20.5 45t55.5 29q-45 24 -70.5 63.5t-25.5 88.5q0 96 59.5 146t173.5 50q66 0 117 -27q24 26 54 41t58 15q23 0 33.5 -13.5zM380 281q29 28 29 91t-29.5 92t-94.5 29q-63 0 -93 -29.5t-30 -91.5
q0 -119 123 -119q66 0 95 28zM141 -47q0 -87 148 -87q82 0 124 22t42 65t-38.5 63t-123.5 20q-152 0 -152 -83zM244 768h99l105 -139h-78l-76 83l-78 -83h-78z" />
    <glyph glyph-name="Gbreve" unicode="&#x11e;" horiz-adv-x="673" 
d="M614 377v-304q-40 -40 -101.5 -61.5t-133.5 -21.5q-158 0 -239 91.5t-81 268.5q0 113 38.5 194t111 123.5t173.5 42.5q72 0 133 -24t96 -65q-9 -22 -24 -37.5t-28 -15.5q-15 0 -31 13q-34 26 -69.5 38t-77.5 12q-108 0 -164 -71.5t-56 -209.5q0 -142 53.5 -211.5
t162.5 -69.5q45 0 82.5 10.5t55.5 28.5v192h-114q-24 0 -34 17.5t-10 59.5h257zM290 753q-36 15 -54.5 39t-18.5 50q0 21 16 33t44 12q4 -40 29 -63t71 -23q45 0 70 25t31 66q60 0 60 -49q0 -28 -19.5 -52t-56 -38.5t-85.5 -14.5q-51 0 -87 15z" />
    <glyph glyph-name="gbreve" unicode="&#x11f;" horiz-adv-x="585" 
d="M560.5 575.5q10.5 -13.5 10.5 -44.5q0 -15 -1 -23q-72 0 -101 -19q38 -47 38 -113q0 -95 -58 -143.5t-170 -48.5q-61 0 -87.5 -8.5t-26.5 -27.5q0 -21 33.5 -30.5t110.5 -9.5q115 0 177.5 -39t62.5 -110q0 -77 -68 -120t-192 -43q-119 0 -182.5 37.5t-63.5 108.5
q0 42 29.5 71.5t84.5 41.5v3q-33 8 -52.5 29.5t-19.5 50.5q0 25 20.5 45t55.5 29q-45 24 -70.5 63.5t-25.5 88.5q0 96 59.5 146t173.5 50q66 0 117 -27q24 26 54 41t58 15q23 0 33.5 -13.5zM380 281q29 28 29 91t-29.5 92t-94.5 29q-63 0 -93 -29.5t-30 -91.5
q0 -119 123 -119q66 0 95 28zM141 -47q0 -87 148 -87q82 0 124 22t42 65t-38.5 63t-123.5 20q-152 0 -152 -83zM206 643q-36 15 -54.5 39t-18.5 50q0 21 16 33t44 12q4 -40 29 -63t71 -23q45 0 70 25t31 66q60 0 60 -49q0 -28 -19.5 -52t-56 -38.5t-85.5 -14.5q-51 0 -87 15
z" />
    <glyph glyph-name="Gdotaccent" unicode="&#x120;" horiz-adv-x="673" 
d="M614 377v-304q-40 -40 -101.5 -61.5t-133.5 -21.5q-158 0 -239 91.5t-81 268.5q0 113 38.5 194t111 123.5t173.5 42.5q72 0 133 -24t96 -65q-9 -22 -24 -37.5t-28 -15.5q-15 0 -31 13q-34 26 -69.5 38t-77.5 12q-108 0 -164 -71.5t-56 -209.5q0 -142 53.5 -211.5
t162.5 -69.5q45 0 82.5 10.5t55.5 28.5v192h-114q-24 0 -34 17.5t-10 59.5h257zM316 817v11q0 56 56 56h10q56 0 56 -56v-11q0 -56 -56 -56h-10q-56 0 -56 56z" />
    <glyph glyph-name="gdotaccent" unicode="&#x121;" horiz-adv-x="585" 
d="M560.5 575.5q10.5 -13.5 10.5 -44.5q0 -15 -1 -23q-72 0 -101 -19q38 -47 38 -113q0 -95 -58 -143.5t-170 -48.5q-61 0 -87.5 -8.5t-26.5 -27.5q0 -21 33.5 -30.5t110.5 -9.5q115 0 177.5 -39t62.5 -110q0 -77 -68 -120t-192 -43q-119 0 -182.5 37.5t-63.5 108.5
q0 42 29.5 71.5t84.5 41.5v3q-33 8 -52.5 29.5t-19.5 50.5q0 25 20.5 45t55.5 29q-45 24 -70.5 63.5t-25.5 88.5q0 96 59.5 146t173.5 50q66 0 117 -27q24 26 54 41t58 15q23 0 33.5 -13.5zM380 281q29 28 29 91t-29.5 92t-94.5 29q-63 0 -93 -29.5t-30 -91.5
q0 -119 123 -119q66 0 95 28zM141 -47q0 -87 148 -87q82 0 124 22t42 65t-38.5 63t-123.5 20q-152 0 -152 -83zM232 707v11q0 56 56 56h10q56 0 56 -56v-11q0 -56 -56 -56h-10q-56 0 -56 56z" />
    <glyph glyph-name="uni0122" unicode="&#x122;" horiz-adv-x="673" 
d="M614 377v-304q-40 -40 -101.5 -61.5t-133.5 -21.5q-158 0 -239 91.5t-81 268.5q0 113 38.5 194t111 123.5t173.5 42.5q72 0 133 -24t96 -65q-9 -22 -24 -37.5t-28 -15.5q-15 0 -31 13q-34 26 -69.5 38t-77.5 12q-108 0 -164 -71.5t-56 -209.5q0 -142 53.5 -211.5
t162.5 -69.5q45 0 82.5 10.5t55.5 28.5v192h-114q-24 0 -34 17.5t-10 59.5h257zM428 -77.5q15 -15.5 15 -42.5v-14q0 -72 -46 -142q-15 -23 -27 -33t-24 -10q-21 0 -35 12q32 37 47.5 64t20.5 58h-7q-24 0 -37.5 15t-13.5 40v13q0 25 14 40t38 15h15q25 0 40 -15.5z" />
    <glyph glyph-name="uni0123" unicode="&#x123;" horiz-adv-x="585" 
d="M560.5 575.5q10.5 -13.5 10.5 -44.5q0 -15 -1 -23q-72 0 -101 -19q38 -47 38 -113q0 -95 -58 -143.5t-170 -48.5q-61 0 -87.5 -8.5t-26.5 -27.5q0 -21 33.5 -30.5t110.5 -9.5q115 0 177.5 -39t62.5 -110q0 -77 -68 -120t-192 -43q-119 0 -182.5 37.5t-63.5 108.5
q0 42 29.5 71.5t84.5 41.5v3q-33 8 -52.5 29.5t-19.5 50.5q0 25 20.5 45t55.5 29q-45 24 -70.5 63.5t-25.5 88.5q0 96 59.5 146t173.5 50q66 0 117 -27q24 26 54 41t58 15q23 0 33.5 -13.5zM380 281q29 28 29 91t-29.5 92t-94.5 29q-63 0 -93 -29.5t-30 -91.5
q0 -119 123 -119q66 0 95 28zM141 -47q0 -87 148 -87q82 0 124 22t42 65t-38.5 63t-123.5 20q-152 0 -152 -83zM254.5 655q-16.5 19 -16.5 56q0 32 12 63.5t32 56.5q26 33 53 33q15 0 31 -14q-18 -19 -30.5 -44t-12.5 -51q0 -45 31 -70q0 -20 -15 -34.5t-39 -14.5
q-29 0 -45.5 19z" />
    <glyph glyph-name="Hcircumflex" unicode="&#x124;" horiz-adv-x="687" 
d="M607 700v-700h-99v320h-329v-320h-100v700h100v-303h329v303h99zM294 875h99l105 -139h-78l-76 83l-78 -83h-78z" />
    <glyph glyph-name="hcircumflex" unicode="&#x125;" horiz-adv-x="630" 
d="M494.5 512.5q47.5 -47.5 47.5 -129.5v-383h-94v372q0 57 -26.5 86t-77.5 29q-41 0 -86.5 -18.5t-85.5 -51.5v-417h-94v791h94v-302q41 33 92 52t102 19q81 0 128.5 -47.5zM76 941h99l105 -139h-78l-76 83l-78 -83h-78z" />
    <glyph glyph-name="Hbar" unicode="&#x126;" horiz-adv-x="687" 
d="M677 524h-70v-524h-99v320h-329v-320h-100v524h-69v60h69v116h100v-116h329v116h99v-116h70v-60zM508 524h-329v-127h329v127z" />
    <glyph glyph-name="hbar" unicode="&#x127;" horiz-adv-x="643" 
d="M508.5 512.5q47.5 -47.5 47.5 -129.5v-383h-95v372q0 57 -26.5 86t-77.5 29q-41 0 -86.5 -18.5t-84.5 -50.5v-418h-95v642h-78v62h78v87h95v-87h126v-62h-126v-152q41 33 92.5 51.5t101.5 18.5q81 0 128.5 -47.5z" />
    <glyph glyph-name="Itilde" unicode="&#x128;" horiz-adv-x="350" 
d="M125 700h100v-700h-100v700zM35 760.5q-12 9.5 -12 27.5q0 36 24.5 56t62.5 20q22 0 38.5 -6t36.5 -17q15 -9 26 -13t24 -4q39 0 44 43q50 0 50 -40q0 -30 -23 -52t-62 -22q-23 0 -40 6t-38 17q-18 9 -29 13.5t-25 4.5q-38 0 -43 -43q-22 0 -34 9.5z" />
    <glyph glyph-name="itilde" unicode="&#x129;" horiz-adv-x="288" 
d="M97 550h94v-550h-94v550zM4 647.5q-12 9.5 -12 27.5q0 36 24.5 56t62.5 20q22 0 38.5 -6t36.5 -17q15 -9 26 -13t24 -4q39 0 44 43q50 0 50 -40q0 -30 -23 -52t-62 -22q-23 0 -40 6t-38 17q-18 9 -29 13.5t-25 4.5q-38 0 -43 -43q-22 0 -34 9.5z" />
    <glyph glyph-name="Imacron" unicode="&#x12a;" horiz-adv-x="350" 
d="M125 700h100v-700h-100v700zM12 837h326v-73h-326v73z" />
    <glyph glyph-name="imacron" unicode="&#x12b;" horiz-adv-x="288" 
d="M97 550h94v-550h-94v550zM-19 724h326v-73h-326v73z" />
    <glyph glyph-name="Ibreve" unicode="&#x12c;" horiz-adv-x="350" 
d="M125 700h100v-700h-100v700zM88 756q-36 15 -54.5 39t-18.5 50q0 21 16 33t44 12q4 -40 29 -63t71 -23q45 0 70 25t31 66q60 0 60 -49q0 -28 -19.5 -52t-56 -38.5t-85.5 -14.5q-51 0 -87 15z" />
    <glyph glyph-name="ibreve" unicode="&#x12d;" horiz-adv-x="288" 
d="M97 550h94v-550h-94v550zM57 643q-36 15 -54.5 39t-18.5 50q0 21 16 33t44 12q4 -40 29 -63t71 -23q45 0 70 25t31 66q60 0 60 -49q0 -28 -19.5 -52t-56 -38.5t-85.5 -14.5q-51 0 -87 15z" />
    <glyph glyph-name="Iogonek" unicode="&#x12e;" horiz-adv-x="350" 
d="M125 700h100v-700h-100v700zM113 -187q-29 23 -29 63q0 43 24.5 72.5t68.5 51.5h48q-63 -49 -63 -109q0 -22 12 -34.5t33 -12.5q26 0 46 10q11 -11 11 -25q0 -17 -19.5 -28t-53.5 -11q-49 0 -78 23z" />
    <glyph glyph-name="iogonek" unicode="&#x12f;" horiz-adv-x="288" 
d="M97 550h94v-550h-94v550zM83 707v11q0 56 56 56h10q56 0 56 -56v-11q0 -56 -56 -56h-10q-56 0 -56 56zM80 -187q-29 23 -29 63q0 43 24.5 72.5t68.5 51.5h48q-63 -49 -63 -109q0 -22 12 -34.5t33 -12.5q26 0 46 10q11 -11 11 -25q0 -17 -19.5 -28t-53.5 -11q-49 0 -78 23
z" />
    <glyph glyph-name="Idotaccent" unicode="&#x130;" horiz-adv-x="350" 
d="M125 700h100v-700h-100v700zM114 820v11q0 56 56 56h10q56 0 56 -56v-11q0 -56 -56 -56h-10q-56 0 -56 56z" />
    <glyph glyph-name="dotlessi" unicode="&#x131;" horiz-adv-x="288" 
d="M97 550h94v-550h-94v550z" />
    <glyph glyph-name="IJ" unicode="&#x132;" horiz-adv-x="711" 
d="M125 700h100v-700h-100v700zM356 -1.5q-39 8.5 -57 18.5q0 68 30 68q7 0 25 -5q41 -12 73 -12q53 0 80 30t27 88v514h99v-514q0 -89 -54.5 -142.5t-146.5 -53.5q-37 0 -76 8.5z" />
    <glyph glyph-name="ij" unicode="&#x133;" horiz-adv-x="558" 
d="M97 550h94v-550h-94v550zM83 707v11q0 56 56 56h10q56 0 56 -56v-11q0 -56 -56 -56h-10q-56 0 -56 56zM269.5 -192q-26.5 7 -37.5 18q-9 9 -9 22q0 11 5.5 21.5t11.5 11.5q30 -15 72 -15q30 0 46.5 18t16.5 54v612h94v-603q0 -69 -38 -107.5t-109 -38.5q-26 0 -52.5 7z
M361 707v11q0 56 56 56h10q56 0 56 -56v-11q0 -56 -56 -56h-10q-56 0 -56 56z" />
    <glyph glyph-name="Jcircumflex" unicode="&#x134;" horiz-adv-x="434" 
d="M78 -1.5q-39 8.5 -57 18.5q0 68 30 68q7 0 25 -5q41 -12 73 -12q53 0 80 30t27 88v514h99v-514q0 -89 -54.5 -142.5t-146.5 -53.5q-37 0 -76 8.5zM256 878h99l105 -139h-78l-76 83l-78 -83h-78z" />
    <glyph glyph-name="jcircumflex" unicode="&#x135;" horiz-adv-x="270" 
d="M-18.5 -192q-26.5 7 -37.5 18q-9 9 -9 22q0 11 5.5 21.5t11.5 11.5q30 -15 72 -15q30 0 46.5 18t16.5 54v612h94v-603q0 -69 -38 -107.5t-109 -38.5q-26 0 -52.5 7zM85 768h99l105 -139h-78l-76 83l-78 -83h-78z" />
    <glyph glyph-name="uni0136" unicode="&#x136;" horiz-adv-x="630" 
d="M608 4q-23 -13 -62 -13q-21 0 -34 7t-24 24l-145 236q-24 38 -46.5 50t-72.5 12h-28v-320h-99v700h99v-305h55q12 0 18 -1l222 306h109l-246 -331q42 -25 78 -83zM389 -77.5q15 -15.5 15 -42.5v-14q0 -72 -46 -142q-15 -23 -27 -33t-24 -10q-21 0 -35 12q32 37 47.5 64
t20.5 58h-7q-24 0 -37.5 15t-13.5 40v13q0 25 14 40t38 15h15q25 0 40 -15.5z" />
    <glyph glyph-name="uni0137" unicode="&#x137;" horiz-adv-x="591" 
d="M555 0q-22 0 -50 -2q-22 -2 -27 -2q-16 0 -26 6t-17 18l-112 185q-15 25 -39.5 36t-65.5 10l-39 -2v-249h-95v791h95v-467l33 1q27 1 42.5 10t29.5 32l127 183h111l-156 -211q-10 -15 -18 -24.5t-21 -16.5q50 -12 74 -52zM357 -77.5q15 -15.5 15 -42.5v-14
q0 -72 -46 -142q-15 -23 -27 -33t-24 -10q-21 0 -35 12q32 37 47.5 64t20.5 58h-7q-24 0 -37.5 15t-13.5 40v13q0 25 14 40t38 15h15q25 0 40 -15.5z" />
    <glyph glyph-name="kgreenlandic" unicode="&#x138;" horiz-adv-x="600" 
d="M548 15q-45 -16 -70 -16q-29 0 -44 23l-118 170q-18 25 -40 36t-61 10l-36 -3v-235h-95v550h95v-239l29 1q26 1 40.5 10t29.5 32l133 196h111l-169 -233q-13 -19 -27 -32q42 -15 68 -53z" />
    <glyph glyph-name="Lacute" unicode="&#x139;" horiz-adv-x="513" 
d="M498 75v-75h-412v700h99v-625h313zM170 903h111l-124 -151h-86z" />
    <glyph glyph-name="lacute" unicode="&#x13a;" horiz-adv-x="268" 
d="M87 791h94v-791h-94v791zM168 980h111l-124 -151h-86z" />
    <glyph glyph-name="uni013B" unicode="&#x13b;" horiz-adv-x="513" 
d="M498 75v-75h-412v700h99v-625h313zM343 -77.5q15 -15.5 15 -42.5v-14q0 -72 -46 -142q-15 -23 -27 -33t-24 -10q-21 0 -35 12q32 37 47.5 64t20.5 58h-7q-24 0 -37.5 15t-13.5 40v13q0 25 14 40t38 15h15q25 0 40 -15.5z" />
    <glyph glyph-name="uni013C" unicode="&#x13c;" horiz-adv-x="268" 
d="M87 791h94v-791h-94v791zM185 -77.5q15 -15.5 15 -42.5v-14q0 -72 -46 -142q-15 -23 -27 -33t-24 -10q-21 0 -35 12q32 37 47.5 64t20.5 58h-7q-24 0 -37.5 15t-13.5 40v13q0 25 14 40t38 15h15q25 0 40 -15.5z" />
    <glyph glyph-name="Lcaron" unicode="&#x13d;" horiz-adv-x="597" 
d="M498 75v-75h-412v700h99v-625h313zM385 496q18 20 30.5 45t12.5 50q0 44 -32 70q0 20 15 34.5t39 14.5q29 0 46 -19t17 -56q0 -32 -12 -63.5t-32 -56.5q-28 -33 -54 -33q-16 0 -30 14z" />
    <glyph glyph-name="lcaron" unicode="&#x13e;" horiz-adv-x="427" 
d="M87 791h94v-791h-94v791zM276 496q18 20 30.5 45t12.5 50q0 44 -32 70q0 20 15 34.5t39 14.5q29 0 46 -19t17 -56q0 -32 -12 -63.5t-32 -56.5q-28 -33 -54 -33q-16 0 -30 14z" />
    <glyph glyph-name="Ldot" unicode="&#x13f;" horiz-adv-x="513" 
d="M498 75v-75h-412v700h99v-625h313zM294 363v11q0 56 56 56h10q56 0 56 -56v-11q0 -56 -56 -56h-10q-56 0 -56 56z" />
    <glyph glyph-name="ldot" unicode="&#x140;" horiz-adv-x="416" 
d="M87 791h94v-791h-94v791zM245 342v11q0 56 56 56h10q56 0 56 -56v-11q0 -56 -56 -56h-10q-56 0 -56 56z" />
    <glyph glyph-name="Lslash" unicode="&#x141;" horiz-adv-x="547" 
d="M518 75v-75h-412v340l-89 -36v82l89 36v278h99v-239l164 66v-82l-164 -66v-304h313z" />
    <glyph glyph-name="lslash" unicode="&#x142;" horiz-adv-x="268" 
d="M268 432l-87 -41v-391h-94v348l-87 -41v83l87 40v361h94v-317l87 40v-82z" />
    <glyph glyph-name="Nacute" unicode="&#x143;" horiz-adv-x="693" 
d="M612 64q2 -28 2 -37q0 -27 -26 -27h-77v47q0 57 -39 111l-294 404v-562h-99v700h85q13 0 21 -3.5t17 -16.5l309 -424v444h99v-563q0 -31 2 -73zM380 890h111l-124 -151h-86z" />
    <glyph glyph-name="nacute" unicode="&#x144;" horiz-adv-x="610" 
d="M529.5 52q2.5 -23 9.5 -42q-36 -15 -75 -15q-19 0 -25.5 22.5t-6.5 84.5v268q0 64 -22.5 91.5t-74.5 27.5q-77 0 -160 -75v-414h-95v365q0 138 -12 171q47 18 74 18q33 0 33 -58v-10q48 39 90.5 56.5t90.5 17.5q86 0 128.5 -46.5t42.5 -141.5v-241q0 -56 2.5 -79z
M339 780h111l-124 -151h-86z" />
    <glyph glyph-name="uni0145" unicode="&#x145;" horiz-adv-x="693" 
d="M612 64q2 -28 2 -37q0 -27 -26 -27h-77v47q0 57 -39 111l-294 404v-562h-99v700h85q13 0 21 -3.5t17 -16.5l309 -424v444h99v-563q0 -31 2 -73zM397 -77.5q15 -15.5 15 -42.5v-14q0 -72 -46 -142q-15 -23 -27 -33t-24 -10q-21 0 -35 12q32 37 47.5 64t20.5 58h-7
q-24 0 -37.5 15t-13.5 40v13q0 25 14 40t38 15h15q25 0 40 -15.5z" />
    <glyph glyph-name="uni0146" unicode="&#x146;" horiz-adv-x="610" 
d="M529.5 52q2.5 -23 9.5 -42q-36 -15 -75 -15q-19 0 -25.5 22.5t-6.5 84.5v268q0 64 -22.5 91.5t-74.5 27.5q-77 0 -160 -75v-414h-95v365q0 138 -12 171q47 18 74 18q33 0 33 -58v-10q48 39 90.5 56.5t90.5 17.5q86 0 128.5 -46.5t42.5 -141.5v-241q0 -56 2.5 -79z
M356 -77.5q15 -15.5 15 -42.5v-14q0 -72 -46 -142q-15 -23 -27 -33t-24 -10q-21 0 -35 12q32 37 47.5 64t20.5 58h-7q-24 0 -37.5 15t-13.5 40v13q0 25 14 40t38 15h15q25 0 40 -15.5z" />
    <glyph glyph-name="Ncaron" unicode="&#x147;" horiz-adv-x="693" 
d="M612 64q2 -28 2 -37q0 -27 -26 -27h-77v47q0 57 -39 111l-294 404v-562h-99v700h85q13 0 21 -3.5t17 -16.5l309 -424v444h99v-563q0 -31 2 -73zM195 886h70l82 -85l80 85h70l-101 -139h-99z" />
    <glyph glyph-name="ncaron" unicode="&#x148;" horiz-adv-x="610" 
d="M529.5 52q2.5 -23 9.5 -42q-36 -15 -75 -15q-19 0 -25.5 22.5t-6.5 84.5v268q0 64 -22.5 91.5t-74.5 27.5q-77 0 -160 -75v-414h-95v365q0 138 -12 171q47 18 74 18q33 0 33 -58v-10q48 39 90.5 56.5t90.5 17.5q86 0 128.5 -46.5t42.5 -141.5v-241q0 -56 2.5 -79z
M154 776h70l82 -85l80 85h70l-101 -139h-99z" />
    <glyph glyph-name="napostrophe" unicode="&#x149;" horiz-adv-x="610" 
d="M-72 592q18 20 30.5 45t12.5 50q0 44 -32 70q0 20 15 34.5t39 14.5q29 0 46 -19t17 -56q0 -32 -12 -63.5t-32 -56.5q-28 -33 -54 -33q-16 0 -30 14zM529.5 52q2.5 -23 9.5 -42q-36 -15 -75 -15q-19 0 -25.5 22.5t-6.5 84.5v268q0 64 -22.5 91.5t-74.5 27.5
q-77 0 -160 -75v-414h-95v365q0 138 -12 171q47 18 74 18q33 0 33 -58v-10q48 39 90.5 56.5t90.5 17.5q86 0 128.5 -46.5t42.5 -141.5v-241q0 -56 2.5 -79z" />
    <glyph glyph-name="Eng" unicode="&#x14a;" horiz-adv-x="685" 
d="M606 700v-740q0 -74 -43.5 -116.5t-119.5 -42.5q-36 0 -67.5 11.5t-31.5 34.5q0 11 5.5 21.5t11.5 12.5q32 -15 75 -15q34 0 52.5 21.5t18.5 63.5v93q0 55 -39 111l-290 404v-559h-99v700h85q13 0 21 -3.5t17 -16.5l305 -424v444h99z" />
    <glyph glyph-name="eng" unicode="&#x14b;" horiz-adv-x="609" 
d="M484.5 513.5q42.5 -46.5 42.5 -141.5v-412q0 -74 -42.5 -116.5t-118.5 -42.5q-36 0 -67.5 11.5t-31.5 34.5q0 11 5.5 21.5t11.5 12.5q32 -15 75 -15q34 0 53.5 22t19.5 63v419q0 63 -22 91t-75 28q-77 0 -160 -75v-414h-95v365q0 134 -12 168q44 18 74 18q33 0 33 -58v-7
q41 34 84.5 54t96.5 20q86 0 128.5 -46.5z" />
    <glyph glyph-name="Omacron" unicode="&#x14c;" horiz-adv-x="680" 
d="M121.5 84.5q-76.5 94.5 -76.5 269.5q0 171 76.5 263.5t218.5 92.5t218.5 -92.5t76.5 -263.5q0 -175 -76.5 -269.5t-218.5 -94.5t-218.5 94.5zM533 354q0 140 -47.5 208.5t-145.5 68.5t-145.5 -68.5t-47.5 -208.5q0 -285 193 -285t193 285zM177 837h326v-73h-326v73z" />
    <glyph glyph-name="omacron" unicode="&#x14d;" horiz-adv-x="555" 
d="M98 63q-61 73 -61 213t61 212t179 72t179.5 -72t61.5 -212t-61.5 -213t-179.5 -73t-179 73zM386.5 111q34.5 52 34.5 165q0 112 -34.5 163.5t-109.5 51.5t-109.5 -51.5t-34.5 -163.5q0 -113 35 -165t109 -52q75 0 109.5 52zM114 724h326v-73h-326v73z" />
    <glyph glyph-name="Obreve" unicode="&#x14e;" horiz-adv-x="680" 
d="M121.5 84.5q-76.5 94.5 -76.5 269.5q0 171 76.5 263.5t218.5 92.5t218.5 -92.5t76.5 -263.5q0 -175 -76.5 -269.5t-218.5 -94.5t-218.5 94.5zM533 354q0 140 -47.5 208.5t-145.5 68.5t-145.5 -68.5t-47.5 -208.5q0 -285 193 -285t193 285zM253 756q-36 15 -54.5 39
t-18.5 50q0 21 16 33t44 12q4 -40 29 -63t71 -23q45 0 70 25t31 66q60 0 60 -49q0 -28 -19.5 -52t-56 -38.5t-85.5 -14.5q-51 0 -87 15z" />
    <glyph glyph-name="obreve" unicode="&#x14f;" horiz-adv-x="555" 
d="M98 63q-61 73 -61 213t61 212t179 72t179.5 -72t61.5 -212t-61.5 -213t-179.5 -73t-179 73zM386.5 111q34.5 52 34.5 165q0 112 -34.5 163.5t-109.5 51.5t-109.5 -51.5t-34.5 -163.5q0 -113 35 -165t109 -52q75 0 109.5 52zM190 643q-36 15 -54.5 39t-18.5 50q0 21 16 33
t44 12q4 -40 29 -63t71 -23q45 0 70 25t31 66q60 0 60 -49q0 -28 -19.5 -52t-56 -38.5t-85.5 -14.5q-51 0 -87 15z" />
    <glyph glyph-name="Ohungarumlaut" unicode="&#x150;" horiz-adv-x="680" 
d="M121.5 84.5q-76.5 94.5 -76.5 269.5q0 171 76.5 263.5t218.5 92.5t218.5 -92.5t76.5 -263.5q0 -175 -76.5 -269.5t-218.5 -94.5t-218.5 94.5zM533 354q0 140 -47.5 208.5t-145.5 68.5t-145.5 -68.5t-47.5 -208.5q0 -285 193 -285t193 285zM289 879h111l-114 -151h-67z
M453 879h112l-131 -151h-69z" />
    <glyph glyph-name="ohungarumlaut" unicode="&#x151;" horiz-adv-x="555" 
d="M98 63q-61 73 -61 213t61 212t179 72t179.5 -72t61.5 -212t-61.5 -213t-179.5 -73t-179 73zM386.5 111q34.5 52 34.5 165q0 112 -34.5 163.5t-109.5 51.5t-109.5 -51.5t-34.5 -163.5q0 -113 35 -165t109 -52q75 0 109.5 52zM226 766h111l-114 -151h-67zM390 766h112
l-131 -151h-69z" />
    <glyph glyph-name="OE" unicode="&#x152;" horiz-adv-x="1035" 
d="M983 75q0 -45 -10.5 -60t-41.5 -15h-377v79q-77 -89 -214 -89q-142 0 -218.5 94.5t-76.5 269.5q0 171 76.5 263.5t218.5 92.5q138 0 214 -87v77h425v-75h-325v-228h277v-76h-277v-246h329zM533 354q0 140 -47.5 208.5t-145.5 68.5t-145.5 -68.5t-47.5 -208.5
q0 -285 193 -285t193 285z" />
    <glyph glyph-name="oe" unicode="&#x153;" horiz-adv-x="943" 
d="M904 261h-384q4 -95 44 -147.5t109 -52.5q48 0 79.5 19t61.5 66q8 11 21 11q22 0 61 -27q-26 -66 -84.5 -103t-138.5 -37q-65 0 -115.5 25t-83.5 72q-61 -97 -197 -97q-118 0 -179 73t-61 213t61 212t179 72q138 0 197 -96q33 47 85 71.5t119 24.5q108 0 168.5 -65
t60.5 -182q0 -20 -3 -52zM386.5 111q34.5 52 34.5 165q0 112 -34.5 163.5t-109.5 51.5t-109.5 -51.5t-34.5 -163.5q0 -113 35 -165t109 -52q75 0 109.5 52zM810 325q0 165 -135 165q-67 0 -106 -42t-47 -123h288z" />
    <glyph glyph-name="Racute" unicode="&#x154;" horiz-adv-x="633" 
d="M595 6q-10 -6 -26 -10t-32 -4q-23 0 -36.5 7.5t-23.5 25.5l-100 186q-22 41 -51 57t-81 16h-63v-284h-99v700h230q126 0 196 -55t70 -153q0 -71 -43 -122.5t-116 -71.5q29 -27 47 -61zM307 361q83 0 126.5 33.5t43.5 97.5q0 131 -167 131h-128v-262h125zM347 890h111
l-124 -151h-86z" />
    <glyph glyph-name="racute" unicode="&#x155;" horiz-adv-x="413" 
d="M395 498q0 -24 -13 -39q-26 13 -68 13q-66 0 -103.5 -48.5t-37.5 -133.5v-290h-95v550h95v-92q22 45 60.5 72t82.5 27q79 0 79 -59zM241 780h111l-124 -151h-86z" />
    <glyph glyph-name="uni0156" unicode="&#x156;" horiz-adv-x="633" 
d="M595 6q-10 -6 -26 -10t-32 -4q-23 0 -36.5 7.5t-23.5 25.5l-100 186q-22 41 -51 57t-81 16h-63v-284h-99v700h230q126 0 196 -55t70 -153q0 -71 -43 -122.5t-116 -71.5q29 -27 47 -61zM307 361q83 0 126.5 33.5t43.5 97.5q0 131 -167 131h-128v-262h125zM366 -77.5
q15 -15.5 15 -42.5v-14q0 -72 -46 -142q-15 -23 -27 -33t-24 -10q-21 0 -35 12q32 37 47.5 64t20.5 58h-7q-24 0 -37.5 15t-13.5 40v13q0 25 14 40t38 15h15q25 0 40 -15.5z" />
    <glyph glyph-name="uni0157" unicode="&#x157;" horiz-adv-x="413" 
d="M395 498q0 -24 -13 -39q-26 13 -68 13q-66 0 -103.5 -48.5t-37.5 -133.5v-290h-95v550h95v-92q22 45 60.5 72t82.5 27q79 0 79 -59zM177 -77.5q15 -15.5 15 -42.5v-14q0 -72 -46 -142q-15 -23 -27 -33t-24 -10q-21 0 -35 12q32 37 47.5 64t20.5 58h-7q-24 0 -37.5 15
t-13.5 40v13q0 25 14 40t38 15h15q25 0 40 -15.5z" />
    <glyph glyph-name="Rcaron" unicode="&#x158;" horiz-adv-x="633" 
d="M595 6q-10 -6 -26 -10t-32 -4q-23 0 -36.5 7.5t-23.5 25.5l-100 186q-22 41 -51 57t-81 16h-63v-284h-99v700h230q126 0 196 -55t70 -153q0 -71 -43 -122.5t-116 -71.5q29 -27 47 -61zM307 361q83 0 126.5 33.5t43.5 97.5q0 131 -167 131h-128v-262h125zM162 886h70
l82 -85l80 85h70l-101 -139h-99z" />
    <glyph glyph-name="rcaron" unicode="&#x159;" horiz-adv-x="413" 
d="M395 498q0 -24 -13 -39q-26 13 -68 13q-66 0 -103.5 -48.5t-37.5 -133.5v-290h-95v550h95v-92q22 45 60.5 72t82.5 27q79 0 79 -59zM56 776h70l82 -85l80 85h70l-101 -139h-99z" />
    <glyph glyph-name="Sacute" unicode="&#x15a;" horiz-adv-x="642" 
d="M193.5 10.5q-58.5 20.5 -91.5 57t-33 82.5q0 25 19.5 40t53.5 16q13 -67 60.5 -102.5t124.5 -35.5t121.5 33.5t44.5 90.5q0 49 -40 78.5t-140 56.5q-84 23 -133 49.5t-71.5 62t-22.5 85.5q0 86 65 136t178 50q96 0 161.5 -45t88.5 -127q-10 -10 -27 -16.5t-33 -6.5
q-15 0 -25.5 7t-17.5 23q-21 42 -59.5 65t-87.5 23q-71 0 -107 -26t-36 -78q0 -29 13.5 -48.5t46 -36t93.5 -34.5q105 -31 159 -58t75.5 -60.5t21.5 -85.5q0 -65 -33.5 -114t-94.5 -75.5t-142 -26.5q-73 0 -131.5 20.5zM355 890h111l-124 -151h-86z" />
    <glyph glyph-name="sacute" unicode="&#x15b;" horiz-adv-x="492" 
d="M145 5q-48 15 -77.5 39.5t-29.5 53.5q0 18 12.5 31.5t32.5 16.5q31 -45 70 -66t96 -21t86 25.5t29 67.5q0 27 -17.5 44.5t-44 28t-71.5 22.5q-59 16 -94.5 31.5t-61 46t-25.5 80.5t28 85t72 52.5t92 17.5q67 0 119.5 -26.5t81.5 -73.5q-12 -17 -26 -27t-26 -10
q-15 0 -27 14q-48 56 -123 56q-46 0 -73 -21t-27 -64q0 -27 17 -43.5t43 -26t70 -20.5q60 -16 96 -31t62 -47t26 -85q0 -77 -56.5 -121t-153.5 -44q-52 0 -100 15zM277 780h111l-124 -151h-86z" />
    <glyph glyph-name="Scircumflex" unicode="&#x15c;" horiz-adv-x="642" 
d="M193.5 10.5q-58.5 20.5 -91.5 57t-33 82.5q0 25 19.5 40t53.5 16q13 -67 60.5 -102.5t124.5 -35.5t121.5 33.5t44.5 90.5q0 49 -40 78.5t-140 56.5q-84 23 -133 49.5t-71.5 62t-22.5 85.5q0 86 65 136t178 50q96 0 161.5 -45t88.5 -127q-10 -10 -27 -16.5t-33 -6.5
q-15 0 -25.5 7t-17.5 23q-21 42 -59.5 65t-87.5 23q-71 0 -107 -26t-36 -78q0 -29 13.5 -48.5t46 -36t93.5 -34.5q105 -31 159 -58t75.5 -60.5t21.5 -85.5q0 -65 -33.5 -114t-94.5 -75.5t-142 -26.5q-73 0 -131.5 20.5zM272 878h99l105 -139h-78l-76 83l-78 -83h-78z" />
    <glyph glyph-name="scircumflex" unicode="&#x15d;" horiz-adv-x="492" 
d="M145 5q-48 15 -77.5 39.5t-29.5 53.5q0 18 12.5 31.5t32.5 16.5q31 -45 70 -66t96 -21t86 25.5t29 67.5q0 27 -17.5 44.5t-44 28t-71.5 22.5q-59 16 -94.5 31.5t-61 46t-25.5 80.5t28 85t72 52.5t92 17.5q67 0 119.5 -26.5t81.5 -73.5q-12 -17 -26 -27t-26 -10
q-15 0 -27 14q-48 56 -123 56q-46 0 -73 -21t-27 -64q0 -27 17 -43.5t43 -26t70 -20.5q60 -16 96 -31t62 -47t26 -85q0 -77 -56.5 -121t-153.5 -44q-52 0 -100 15zM194 768h99l105 -139h-78l-76 83l-78 -83h-78z" />
    <glyph glyph-name="Scedilla" unicode="&#x15e;" horiz-adv-x="642" 
d="M531 57q-64 -58 -173 -66l-39 -45h9q42 0 69 -22t27 -60q0 -45 -34.5 -70.5t-92.5 -25.5q-49 0 -73 12t-24 34q0 8 3 16q41 -11 84 -11q30 0 45.5 11t15.5 32q0 13 -11.5 23.5t-33.5 10.5q-15 0 -36 -6l-24 35l48 66q-65 5 -115.5 26.5t-78.5 56t-28 76.5q0 25 19.5 40
t53.5 16q13 -67 60.5 -102.5t124.5 -35.5t121.5 33.5t44.5 90.5q0 49 -40 78.5t-140 56.5q-84 23 -133 49.5t-71.5 62t-22.5 85.5q0 86 65 136t178 50q96 0 161.5 -45t88.5 -127q-10 -10 -27 -16.5t-33 -6.5q-15 0 -25.5 7t-17.5 23q-21 42 -59.5 65t-87.5 23
q-71 0 -107 -26t-36 -78q0 -29 13.5 -48.5t46 -36t93.5 -34.5q105 -31 159 -58t75.5 -60.5t21.5 -85.5q0 -91 -64 -149z" />
    <glyph glyph-name="scedilla" unicode="&#x15f;" horiz-adv-x="492" 
d="M407.5 42q-47.5 -43 -130.5 -51l-39 -45h8q43 0 70 -22t27 -60q0 -45 -34.5 -70.5t-93.5 -25.5q-48 0 -72 12t-24 34q0 8 3 16q41 -11 84 -11q30 0 45.5 11t15.5 32q0 13 -11.5 23.5t-33.5 10.5q-17 0 -36 -6l-24 35l48 67q-70 7 -121 37.5t-51 68.5q0 18 12.5 31.5
t32.5 16.5q31 -45 70 -66t96 -21t86 25.5t29 67.5q0 27 -17.5 44.5t-44 28t-71.5 22.5q-59 16 -94.5 31.5t-61 46t-25.5 80.5t28 85t72 52.5t92 17.5q67 0 119.5 -26.5t81.5 -73.5q-12 -17 -26 -27t-26 -10q-15 0 -27 14q-48 56 -123 56q-46 0 -73 -21t-27 -64
q0 -27 17 -43.5t43 -26t70 -20.5q60 -16 96 -31t62 -47t26 -85q0 -70 -47.5 -113z" />
    <glyph glyph-name="Scaron" unicode="&#x160;" horiz-adv-x="642" 
d="M193.5 10.5q-58.5 20.5 -91.5 57t-33 82.5q0 25 19.5 40t53.5 16q13 -67 60.5 -102.5t124.5 -35.5t121.5 33.5t44.5 90.5q0 49 -40 78.5t-140 56.5q-84 23 -133 49.5t-71.5 62t-22.5 85.5q0 86 65 136t178 50q96 0 161.5 -45t88.5 -127q-10 -10 -27 -16.5t-33 -6.5
q-15 0 -25.5 7t-17.5 23q-21 42 -59.5 65t-87.5 23q-71 0 -107 -26t-36 -78q0 -29 13.5 -48.5t46 -36t93.5 -34.5q105 -31 159 -58t75.5 -60.5t21.5 -85.5q0 -65 -33.5 -114t-94.5 -75.5t-142 -26.5q-73 0 -131.5 20.5zM170 886h70l82 -85l80 85h70l-101 -139h-99z" />
    <glyph glyph-name="scaron" unicode="&#x161;" horiz-adv-x="492" 
d="M145 5q-48 15 -77.5 39.5t-29.5 53.5q0 18 12.5 31.5t32.5 16.5q31 -45 70 -66t96 -21t86 25.5t29 67.5q0 27 -17.5 44.5t-44 28t-71.5 22.5q-59 16 -94.5 31.5t-61 46t-25.5 80.5t28 85t72 52.5t92 17.5q67 0 119.5 -26.5t81.5 -73.5q-12 -17 -26 -27t-26 -10
q-15 0 -27 14q-48 56 -123 56q-46 0 -73 -21t-27 -64q0 -27 17 -43.5t43 -26t70 -20.5q60 -16 96 -31t62 -47t26 -85q0 -77 -56.5 -121t-153.5 -44q-52 0 -100 15zM92 776h70l82 -85l80 85h70l-101 -139h-99z" />
    <glyph glyph-name="uni0162" unicode="&#x162;" horiz-adv-x="534" 
d="M523 669q0 -22 -10 -34t-29 -12h-168v-623h-98v623h-203v77h504q4 -20 4 -31zM342 -76q27 -22 27 -60q0 -45 -34.5 -70.5t-93.5 -25.5q-48 0 -72 12t-24 34q0 8 3 16q41 -11 84 -11q30 0 45.5 11t15.5 32q0 13 -11.5 23.5t-33.5 10.5q-17 0 -36 -6l-24 35l54 75h68
l-46 -54h8q43 0 70 -22z" />
    <glyph glyph-name="uni0163" unicode="&#x163;" horiz-adv-x="384" 
d="M365 63.5q5 -9.5 5 -21.5q0 -20 -15 -29q-25 -17 -72 -22l-39 -45h8q43 0 70 -22t27 -60q0 -45 -34.5 -70.5t-93.5 -25.5q-48 0 -72 12t-24 34q0 8 3 16q41 -11 84 -11q30 0 45.5 11t15.5 32q0 13 -11.5 23.5t-33.5 10.5q-16 0 -36 -6l-24 35l49 69q-50 10 -79 44.5
t-29 85.5v359h-97v67h97v150h95v-150h131v-67h-131v-346q0 -40 16 -58.5t49 -18.5q40 0 83 17q8 -4 13 -13.5z" />
    <glyph glyph-name="Tcaron" unicode="&#x164;" horiz-adv-x="534" 
d="M523 669q0 -22 -10 -34t-29 -12h-168v-623h-98v623h-203v77h504q4 -20 4 -31zM117 886h70l82 -85l80 85h70l-101 -139h-99z" />
    <glyph glyph-name="tcaron" unicode="&#x165;" horiz-adv-x="384" 
d="M365 63.5q5 -9.5 5 -21.5q0 -20 -15 -29q-15 -11 -41.5 -17t-57.5 -6q-67 0 -107 36.5t-40 97.5v359h-97v67h97v150h95v-150h131v-67h-131v-346q0 -40 16 -58.5t49 -18.5q40 0 83 17q8 -4 13 -13.5zM6 886h70l82 -85l80 85h70l-101 -139h-99z" />
    <glyph glyph-name="Tbar" unicode="&#x166;" horiz-adv-x="533" 
d="M523 669q0 -22 -10 -34t-29 -12h-168v-260h121v-71h-121v-292h-98v292h-119v71h119v260h-203v77h504q4 -20 4 -31z" />
    <glyph glyph-name="tbar" unicode="&#x167;" horiz-adv-x="397" 
d="M365 63.5q5 -9.5 5 -21.5q0 -20 -15 -29q-15 -11 -41.5 -17t-57.5 -6q-67 0 -107 36.5t-40 97.5v155h-97v68h97v136h-97v67h97v150h95v-150h131v-67h-131v-136h127v-68h-127v-142q0 -40 16 -58.5t49 -18.5q40 0 83 17q8 -4 13 -13.5z" />
    <glyph glyph-name="Utilde" unicode="&#x168;" horiz-adv-x="709" 
d="M151 55q-68 65 -68 196v449h99v-463q0 -86 43 -127.5t131 -41.5q89 0 131 41t42 128v463h99v-449q0 -134 -66.5 -197.5t-205.5 -63.5q-137 0 -205 65zM214 760.5q-12 9.5 -12 27.5q0 36 24.5 56t62.5 20q22 0 38.5 -6t36.5 -17q15 -9 26 -13t24 -4q39 0 44 43
q50 0 50 -40q0 -30 -23 -52t-62 -22q-23 0 -40 6t-38 17q-18 9 -29 13.5t-25 4.5q-38 0 -43 -43q-22 0 -34 9.5z" />
    <glyph glyph-name="utilde" unicode="&#x169;" horiz-adv-x="616" 
d="M545 10q-28 -15 -62 -15q-24 0 -34.5 16t-12.5 59q-29 -37 -76.5 -58.5t-103.5 -21.5q-86 0 -129.5 46.5t-43.5 138.5v375h95v-368q0 -66 23.5 -95.5t76.5 -29.5q47 0 88 24.5t69 69.5v399h95v-430q0 -65 15 -110zM168 647.5q-12 9.5 -12 27.5q0 36 24.5 56t62.5 20
q22 0 38.5 -6t36.5 -17q15 -9 26 -13t24 -4q39 0 44 43q50 0 50 -40q0 -30 -23 -52t-62 -22q-23 0 -40 6t-38 17q-18 9 -29 13.5t-25 4.5q-38 0 -43 -43q-22 0 -34 9.5z" />
    <glyph glyph-name="Umacron" unicode="&#x16a;" horiz-adv-x="709" 
d="M151 55q-68 65 -68 196v449h99v-463q0 -86 43 -127.5t131 -41.5q89 0 131 41t42 128v463h99v-449q0 -134 -66.5 -197.5t-205.5 -63.5q-137 0 -205 65zM191 837h326v-73h-326v73z" />
    <glyph glyph-name="umacron" unicode="&#x16b;" horiz-adv-x="616" 
d="M545 10q-28 -15 -62 -15q-24 0 -34.5 16t-12.5 59q-29 -37 -76.5 -58.5t-103.5 -21.5q-86 0 -129.5 46.5t-43.5 138.5v375h95v-368q0 -66 23.5 -95.5t76.5 -29.5q47 0 88 24.5t69 69.5v399h95v-430q0 -65 15 -110zM145 724h326v-73h-326v73z" />
    <glyph glyph-name="Ubreve" unicode="&#x16c;" horiz-adv-x="709" 
d="M151 55q-68 65 -68 196v449h99v-463q0 -86 43 -127.5t131 -41.5q89 0 131 41t42 128v463h99v-449q0 -134 -66.5 -197.5t-205.5 -63.5q-137 0 -205 65zM267 756q-36 15 -54.5 39t-18.5 50q0 21 16 33t44 12q4 -40 29 -63t71 -23q45 0 70 25t31 66q60 0 60 -49
q0 -28 -19.5 -52t-56 -38.5t-85.5 -14.5q-51 0 -87 15z" />
    <glyph glyph-name="ubreve" unicode="&#x16d;" horiz-adv-x="616" 
d="M545 10q-28 -15 -62 -15q-24 0 -34.5 16t-12.5 59q-29 -37 -76.5 -58.5t-103.5 -21.5q-86 0 -129.5 46.5t-43.5 138.5v375h95v-368q0 -66 23.5 -95.5t76.5 -29.5q47 0 88 24.5t69 69.5v399h95v-430q0 -65 15 -110zM221 643q-36 15 -54.5 39t-18.5 50q0 21 16 33t44 12
q4 -40 29 -63t71 -23q45 0 70 25t31 66q60 0 60 -49q0 -28 -19.5 -52t-56 -38.5t-85.5 -14.5q-51 0 -87 15z" />
    <glyph glyph-name="Uring" unicode="&#x16e;" horiz-adv-x="709" 
d="M151 55q-68 65 -68 196v449h99v-463q0 -86 43 -127.5t131 -41.5q89 0 131 41t42 128v463h99v-449q0 -134 -66.5 -197.5t-205.5 -63.5q-137 0 -205 65zM271 777q-34 33 -34 83t34 83.5t83 33.5t83 -33.5t34 -83.5t-34 -83t-83 -33t-83 33zM393.5 820.5
q16.5 16.5 16.5 39.5q0 25 -16 40.5t-40 15.5t-40.5 -15.5t-16.5 -40.5q0 -23 16.5 -39.5t40.5 -16.5q23 0 39.5 16.5z" />
    <glyph glyph-name="uring" unicode="&#x16f;" horiz-adv-x="616" 
d="M545 10q-28 -15 -62 -15q-24 0 -34.5 16t-12.5 59q-29 -37 -76.5 -58.5t-103.5 -21.5q-86 0 -129.5 46.5t-43.5 138.5v375h95v-368q0 -66 23.5 -95.5t76.5 -29.5q47 0 88 24.5t69 69.5v399h95v-430q0 -65 15 -110zM225 664q-34 33 -34 83t34 83.5t83 33.5t83 -33.5
t34 -83.5t-34 -83t-83 -33t-83 33zM347.5 707.5q16.5 16.5 16.5 39.5q0 25 -16 40.5t-40 15.5t-40.5 -15.5t-16.5 -40.5q0 -23 16.5 -39.5t40.5 -16.5q23 0 39.5 16.5z" />
    <glyph glyph-name="Uhungarumlaut" unicode="&#x170;" horiz-adv-x="709" 
d="M151 55q-68 65 -68 196v449h99v-463q0 -86 43 -127.5t131 -41.5q89 0 131 41t42 128v463h99v-449q0 -134 -66.5 -197.5t-205.5 -63.5q-137 0 -205 65zM303 879h111l-114 -151h-67zM467 879h112l-131 -151h-69z" />
    <glyph glyph-name="uhungarumlaut" unicode="&#x171;" horiz-adv-x="617" 
d="M545 10q-28 -15 -62 -15q-24 0 -34.5 16t-12.5 59q-29 -37 -76.5 -58.5t-103.5 -21.5q-86 0 -129.5 46.5t-43.5 138.5v375h95v-368q0 -66 23.5 -95.5t76.5 -29.5q47 0 88 24.5t69 69.5v399h95v-430q0 -65 15 -110zM257 766h111l-114 -151h-67zM421 766h112l-131 -151h-69
z" />
    <glyph glyph-name="Uogonek" unicode="&#x172;" horiz-adv-x="709" 
d="M628 700v-449q0 -115 -49 -178t-151 -78q-46 -44 -46 -94q0 -22 12 -34.5t33 -12.5q26 0 46 10q11 -10 11 -25q0 -17 -19 -28t-54 -11q-49 0 -78 23t-29 63q0 64 59 104h-7q-137 0 -205 65t-68 196v449h99v-463q0 -86 43 -127.5t131 -41.5q89 0 131 41t42 128v463h99z
" />
    <glyph glyph-name="uogonek" unicode="&#x173;" horiz-adv-x="616" 
d="M584 -161q0 -17 -19 -28t-54 -11q-49 0 -77.5 23t-28.5 64q0 66 67 109q-18 3 -26.5 19.5t-9.5 54.5q-29 -37 -76.5 -58.5t-103.5 -21.5q-86 0 -129.5 46.5t-43.5 138.5v375h95v-368q0 -66 23.5 -95.5t76.5 -29.5q47 0 88 24.5t69 69.5v399h95v-430q0 -65 15 -110
q-63 -50 -63 -108q0 -23 12 -35.5t33 -12.5q24 0 46 10q11 -10 11 -25z" />
    <glyph glyph-name="Wcircumflex" unicode="&#x174;" horiz-adv-x="869" 
d="M854 700q-22 -168 -59 -323t-109 -377h-109q-61 198 -89.5 303t-47.5 204q-23 -110 -53 -220t-85 -287h-109q-72 208 -112 367t-66 333h99q19 -151 48 -276t86 -309q40 125 71.5 243t83.5 342h69q76 -296 102.5 -391.5t57.5 -192.5q55 183 82 307t46 277h94zM391 881h99
l105 -139h-78l-76 83l-78 -83h-78z" />
    <glyph glyph-name="wcircumflex" unicode="&#x175;" horiz-adv-x="773" 
d="M741 550q-33 -314 -150 -550h-76q-48 96 -78 183t-49 183q-18 -96 -49 -183t-80 -183h-77q-60 116 -96.5 249t-56.5 301h96q15 -139 37.5 -242.5t63.5 -192.5q90 188 120 435h86q32 -253 120 -438q41 96 62.5 204t28.5 234h98zM341 768h99l105 -139h-78l-76 83l-78 -83
h-78z" />
    <glyph glyph-name="Ycircumflex" unicode="&#x176;" horiz-adv-x="590" 
d="M573 700l-229 -406v-294h-98v294l-229 406h104l175 -317l174 317h103zM246 878h99l105 -139h-78l-76 83l-78 -83h-78z" />
    <glyph glyph-name="ycircumflex" unicode="&#x177;" horiz-adv-x="502" 
d="M496 550l-213 -592q-31 -85 -74.5 -122t-113.5 -37q-42 0 -67 14.5t-25 37.5t20 42q11 -8 30 -12.5t38 -4.5q40 0 66.5 31.5t47.5 101.5l-196 541h99l145 -419l144 419h99zM202 768h99l105 -139h-78l-76 83l-78 -83h-78z" />
    <glyph glyph-name="Ydieresis" unicode="&#x178;" horiz-adv-x="590" 
d="M573 700l-229 -406v-294h-98v294l-229 406h104l175 -317l174 317h103zM138 801v10q0 52 52 52h9q52 0 52 -52v-10q0 -52 -52 -52h-9q-52 0 -52 52zM341 801v10q0 52 51 52h10q51 0 51 -52v-10q0 -52 -51 -52h-10q-51 0 -51 52z" />
    <glyph glyph-name="Zacute" unicode="&#x179;" horiz-adv-x="580" 
d="M531 73v-73h-480v73l366 554h-368v73h474v-77l-360 -550h368zM321 890h111l-124 -151h-86z" />
    <glyph glyph-name="zacute" unicode="&#x17a;" horiz-adv-x="507" 
d="M477 71v-71h-447v61l323 418h-297v71h413v-60l-326 -419h334zM287 780h111l-124 -151h-86z" />
    <glyph glyph-name="Zdotaccent" unicode="&#x17b;" horiz-adv-x="580" 
d="M531 73v-73h-480v73l366 554h-368v73h474v-77l-360 -550h368zM226 817v11q0 56 56 56h10q56 0 56 -56v-11q0 -56 -56 -56h-10q-56 0 -56 56z" />
    <glyph glyph-name="zdotaccent" unicode="&#x17c;" horiz-adv-x="507" 
d="M477 71v-71h-447v61l323 418h-297v71h413v-60l-326 -419h334zM192 707v11q0 56 56 56h10q56 0 56 -56v-11q0 -56 -56 -56h-10q-56 0 -56 56z" />
    <glyph glyph-name="Zcaron" unicode="&#x17d;" horiz-adv-x="580" 
d="M531 73v-73h-480v73l366 554h-368v73h474v-77l-360 -550h368zM136 886h70l82 -85l80 85h70l-101 -139h-99z" />
    <glyph glyph-name="zcaron" unicode="&#x17e;" horiz-adv-x="507" 
d="M477 71v-71h-447v61l323 418h-297v71h413v-60l-326 -419h334zM102 776h70l82 -85l80 85h70l-101 -139h-99z" />
    <glyph glyph-name="uni018F" unicode="&#x18f;" horiz-adv-x="702" 
d="M564 616q80 -94 80 -268t-79.5 -266t-229.5 -92q-141 0 -215.5 83.5t-74.5 241.5v55h498q-9 264 -206 264q-50 0 -88 -14.5t-84 -52.5q-14 -11 -27 -11q-16 0 -32.5 14.5t-27.5 37.5q35 45 106.5 73.5t151.5 28.5q148 0 228 -94zM541 294h-397q0 -111 49 -169.5
t143 -58.5q187 0 205 228z" />
    <glyph glyph-name="florin" unicode="&#x192;" horiz-adv-x="552" 
d="M399.5 687q-19.5 -21 -31.5 -68t-25 -141l-2 -14h151v-58h-159l-59 -422q-23 -180 -193 -180q-37 0 -61 8l18 69q18 -6 42 -6q82 0 100 122l56 409h-135v58h143l2 15q15 108 37.5 173t60.5 96.5t99 31.5q43 0 68 -7l-10 -67q-22 2 -47 2q-35 0 -54.5 -21z" />
    <glyph glyph-name="Ohorn" unicode="&#x1a0;" horiz-adv-x="680" 
d="M635 354q0 -175 -76.5 -269.5t-218.5 -94.5t-218.5 94.5t-76.5 269.5q0 171 76.5 263.5t218.5 92.5q95 0 161 -42q22 5 34 22.5t12 42.5q0 30 -29 52q2 15 15.5 25.5t32.5 10.5q30 0 49 -20.5t19 -57.5q0 -43 -20.5 -73.5t-59.5 -46.5q81 -93 81 -269zM533 354
q0 140 -47.5 208.5t-145.5 68.5t-145.5 -68.5t-47.5 -208.5q0 -285 193 -285t193 285z" />
    <glyph glyph-name="ohorn" unicode="&#x1a1;" horiz-adv-x="555" 
d="M546 500.5q-22 -31.5 -66 -45.5q38 -70 38 -179q0 -140 -61.5 -213t-179.5 -73t-179 73t-61 213t61 212t179 72q103 0 164 -55q19 6 29.5 22.5t10.5 40.5q0 30 -29 52q2 15 15.5 25.5t32.5 10.5q31 0 49.5 -20.5t18.5 -57.5q0 -46 -22 -77.5zM386.5 111q34.5 52 34.5 165
q0 112 -34.5 163.5t-109.5 51.5t-109.5 -51.5t-34.5 -163.5q0 -113 35 -165t109 -52q75 0 109.5 52z" />
    <glyph glyph-name="Uhorn" unicode="&#x1af;" horiz-adv-x="709" 
d="M739 682.5q-38 -35.5 -111 -39.5v-392q0 -134 -66.5 -197.5t-205.5 -63.5q-137 0 -205 65t-68 196v449h99v-463q0 -86 43 -127.5t131 -41.5q89 0 131 41t42 128v463h96q31 0 48 18t17 49q0 30 -29 52q2 15 15.5 25.5t32.5 10.5q30 0 49 -20.5t19 -57.5q0 -59 -38 -94.5z
" />
    <glyph glyph-name="uhorn" unicode="&#x1b0;" horiz-adv-x="616" 
d="M633.5 534.5q-35.5 -34.5 -103.5 -40.5v-374q0 -65 15 -110q-28 -15 -62 -15q-24 0 -34.5 16t-12.5 59q-29 -37 -76.5 -58.5t-103.5 -21.5q-86 0 -129.5 46.5t-43.5 138.5v375h95v-368q0 -66 23.5 -95.5t76.5 -29.5q47 0 88 24.5t69 69.5v399h82q31 0 48 18t17 49
q0 30 -29 52q2 15 15.5 25.5t32.5 10.5q30 0 49 -20.5t19 -57.5q0 -58 -35.5 -92.5z" />
    <glyph glyph-name="uni01CD" unicode="&#x1cd;" horiz-adv-x="633" 
d="M476 193h-319q-23 -84 -43 -193h-99q41 202 101.5 371.5t149.5 328.5h102q89 -158 149.5 -327t100.5 -373h-99q-20 109 -43 193zM455 270q-54 184 -138 344q-85 -158 -139 -344h277zM166 886h70l82 -85l80 85h70l-101 -139h-99z" />
    <glyph glyph-name="uni01CE" unicode="&#x1ce;" horiz-adv-x="561" 
d="M493.5 72q7.5 -30 26.5 -52q-14 -11 -34 -18.5t-37 -7.5q-46 0 -55 82q-30 -41 -76.5 -63.5t-104.5 -22.5q-75 0 -120.5 39t-45.5 104q0 184 344 201v39q0 58 -29 86t-90 28q-40 0 -75 -16t-80 -56q-7 -5 -13 -5q-13 0 -28 13.5t-28 37.5q42 47 104 73t129 26
q96 0 150.5 -49.5t54.5 -137.5v-213q0 -58 7.5 -88zM320 86.5q40 27.5 71 78.5v107q-248 -11 -248 -133q0 -39 23.5 -59.5t67.5 -20.5q46 0 86 27.5zM126 776h70l82 -85l80 85h70l-101 -139h-99z" />
    <glyph glyph-name="uni01CF" unicode="&#x1cf;" horiz-adv-x="350" 
d="M125 700h100v-700h-100v700zM24 889h70l82 -85l80 85h70l-101 -139h-99z" />
    <glyph glyph-name="uni01D0" unicode="&#x1d0;" horiz-adv-x="288" 
d="M97 550h94v-550h-94v550zM-7 776h70l82 -85l80 85h70l-101 -139h-99z" />
    <glyph glyph-name="uni01D1" unicode="&#x1d1;" horiz-adv-x="680" 
d="M121.5 84.5q-76.5 94.5 -76.5 269.5q0 171 76.5 263.5t218.5 92.5t218.5 -92.5t76.5 -263.5q0 -175 -76.5 -269.5t-218.5 -94.5t-218.5 94.5zM533 354q0 140 -47.5 208.5t-145.5 68.5t-145.5 -68.5t-47.5 -208.5q0 -285 193 -285t193 285zM189 889h70l82 -85l80 85h70
l-101 -139h-99z" />
    <glyph glyph-name="uni01D2" unicode="&#x1d2;" horiz-adv-x="555" 
d="M98 63q-61 73 -61 213t61 212t179 72t179.5 -72t61.5 -212t-61.5 -213t-179.5 -73t-179 73zM386.5 111q34.5 52 34.5 165q0 112 -34.5 163.5t-109.5 51.5t-109.5 -51.5t-34.5 -163.5q0 -113 35 -165t109 -52q75 0 109.5 52zM126 776h70l82 -85l80 85h70l-101 -139h-99z
" />
    <glyph glyph-name="uni01D3" unicode="&#x1d3;" horiz-adv-x="709" 
d="M151 55q-68 65 -68 196v449h99v-463q0 -86 43 -127.5t131 -41.5q89 0 131 41t42 128v463h99v-449q0 -134 -66.5 -197.5t-205.5 -63.5q-137 0 -205 65zM203 889h70l82 -85l80 85h70l-101 -139h-99z" />
    <glyph glyph-name="uni01D4" unicode="&#x1d4;" horiz-adv-x="616" 
d="M545 10q-28 -15 -62 -15q-24 0 -34.5 16t-12.5 59q-29 -37 -76.5 -58.5t-103.5 -21.5q-86 0 -129.5 46.5t-43.5 138.5v375h95v-368q0 -66 23.5 -95.5t76.5 -29.5q47 0 88 24.5t69 69.5v399h95v-430q0 -65 15 -110zM157 776h70l82 -85l80 85h70l-101 -139h-99z" />
    <glyph glyph-name="uni01D5" unicode="&#x1d5;" horiz-adv-x="709" 
d="M151 55q-68 65 -68 196v449h99v-463q0 -86 43 -127.5t131 -41.5q89 0 131 41t42 128v463h99v-449q0 -134 -66.5 -197.5t-205.5 -63.5q-137 0 -205 65zM197 804v10q0 52 52 52h9q52 0 52 -52v-10q0 -52 -52 -52h-9q-52 0 -52 52zM400 804v10q0 52 51 52h10q51 0 51 -52
v-10q0 -52 -51 -52h-10q-51 0 -51 52zM191 993h326v-73h-326v73z" />
    <glyph glyph-name="uni01D6" unicode="&#x1d6;" horiz-adv-x="616" 
d="M545 10q-28 -15 -62 -15q-24 0 -34.5 16t-12.5 59q-29 -37 -76.5 -58.5t-103.5 -21.5q-86 0 -129.5 46.5t-43.5 138.5v375h95v-368q0 -66 23.5 -95.5t76.5 -29.5q47 0 88 24.5t69 69.5v399h95v-430q0 -65 15 -110zM151 691v10q0 52 52 52h9q52 0 52 -52v-10
q0 -52 -52 -52h-9q-52 0 -52 52zM354 691v10q0 52 51 52h10q51 0 51 -52v-10q0 -52 -51 -52h-10q-51 0 -51 52zM145 880h326v-73h-326v73z" />
    <glyph glyph-name="uni01D7" unicode="&#x1d7;" horiz-adv-x="709" 
d="M151 55q-68 65 -68 196v449h99v-463q0 -86 43 -127.5t131 -41.5q89 0 131 41t42 128v463h99v-449q0 -134 -66.5 -197.5t-205.5 -63.5q-137 0 -205 65zM198 798v10q0 52 52 52h9q52 0 52 -52v-10q0 -52 -52 -52h-9q-52 0 -52 52zM401 798v10q0 52 51 52h10q51 0 51 -52
v-10q0 -52 -51 -52h-10q-51 0 -51 52zM389 1043h111l-124 -151h-86z" />
    <glyph glyph-name="uni01D8" unicode="&#x1d8;" horiz-adv-x="616" 
d="M545 10q-28 -15 -62 -15q-24 0 -34.5 16t-12.5 59q-29 -37 -76.5 -58.5t-103.5 -21.5q-86 0 -129.5 46.5t-43.5 138.5v375h95v-368q0 -66 23.5 -95.5t76.5 -29.5q47 0 88 24.5t69 69.5v399h95v-430q0 -65 15 -110zM152 691v10q0 52 52 52h9q52 0 52 -52v-10
q0 -52 -52 -52h-9q-52 0 -52 52zM355 691v10q0 52 51 52h10q51 0 51 -52v-10q0 -52 -51 -52h-10q-51 0 -51 52zM343 936h111l-124 -151h-86z" />
    <glyph glyph-name="uni01D9" unicode="&#x1d9;" horiz-adv-x="709" 
d="M151 55q-68 65 -68 196v449h99v-463q0 -86 43 -127.5t131 -41.5q89 0 131 41t42 128v463h99v-449q0 -134 -66.5 -197.5t-205.5 -63.5q-137 0 -205 65zM196 798v10q0 52 52 52h9q52 0 52 -52v-10q0 -52 -52 -52h-9q-52 0 -52 52zM399 798v10q0 52 51 52h10q51 0 51 -52
v-10q0 -52 -51 -52h-10q-51 0 -51 52zM202 1039h70l82 -85l80 85h70l-101 -139h-99z" />
    <glyph glyph-name="uni01DA" unicode="&#x1da;" horiz-adv-x="616" 
d="M545 10q-28 -15 -62 -15q-24 0 -34.5 16t-12.5 59q-29 -37 -76.5 -58.5t-103.5 -21.5q-86 0 -129.5 46.5t-43.5 138.5v375h95v-368q0 -66 23.5 -95.5t76.5 -29.5q47 0 88 24.5t69 69.5v399h95v-430q0 -65 15 -110zM150 691v10q0 52 52 52h9q52 0 52 -52v-10
q0 -52 -52 -52h-9q-52 0 -52 52zM353 691v10q0 52 51 52h10q51 0 51 -52v-10q0 -52 -51 -52h-10q-51 0 -51 52zM156 932h70l82 -85l80 85h70l-101 -139h-99z" />
    <glyph glyph-name="uni01DB" unicode="&#x1db;" horiz-adv-x="709" 
d="M151 55q-68 65 -68 196v449h99v-463q0 -86 43 -127.5t131 -41.5q89 0 131 41t42 128v463h99v-449q0 -134 -66.5 -197.5t-205.5 -63.5q-137 0 -205 65zM198 798v10q0 52 52 52h9q52 0 52 -52v-10q0 -52 -52 -52h-9q-52 0 -52 52zM401 798v10q0 52 51 52h10q51 0 51 -52
v-10q0 -52 -51 -52h-10q-51 0 -51 52zM224 1043h109l88 -151h-79z" />
    <glyph glyph-name="uni01DC" unicode="&#x1dc;" horiz-adv-x="616" 
d="M545 10q-28 -15 -62 -15q-24 0 -34.5 16t-12.5 59q-29 -37 -76.5 -58.5t-103.5 -21.5q-86 0 -129.5 46.5t-43.5 138.5v375h95v-368q0 -66 23.5 -95.5t76.5 -29.5q47 0 88 24.5t69 69.5v399h95v-430q0 -65 15 -110zM152 691v10q0 52 52 52h9q52 0 52 -52v-10
q0 -52 -52 -52h-9q-52 0 -52 52zM355 691v10q0 52 51 52h10q51 0 51 -52v-10q0 -52 -51 -52h-10q-51 0 -51 52zM178 936h109l88 -151h-79z" />
    <glyph glyph-name="Gcaron" unicode="&#x1e6;" horiz-adv-x="673" 
d="M614 377v-304q-40 -40 -101.5 -61.5t-133.5 -21.5q-158 0 -239 91.5t-81 268.5q0 113 38.5 194t111 123.5t173.5 42.5q72 0 133 -24t96 -65q-9 -22 -24 -37.5t-28 -15.5q-15 0 -31 13q-34 26 -69.5 38t-77.5 12q-108 0 -164 -71.5t-56 -209.5q0 -142 53.5 -211.5
t162.5 -69.5q45 0 82.5 10.5t55.5 28.5v192h-114q-24 0 -34 17.5t-10 59.5h257zM226 886h70l82 -85l80 85h70l-101 -139h-99z" />
    <glyph glyph-name="gcaron" unicode="&#x1e7;" horiz-adv-x="585" 
d="M560.5 575.5q10.5 -13.5 10.5 -44.5q0 -15 -1 -23q-72 0 -101 -19q38 -47 38 -113q0 -95 -58 -143.5t-170 -48.5q-61 0 -87.5 -8.5t-26.5 -27.5q0 -21 33.5 -30.5t110.5 -9.5q115 0 177.5 -39t62.5 -110q0 -77 -68 -120t-192 -43q-119 0 -182.5 37.5t-63.5 108.5
q0 42 29.5 71.5t84.5 41.5v3q-33 8 -52.5 29.5t-19.5 50.5q0 25 20.5 45t55.5 29q-45 24 -70.5 63.5t-25.5 88.5q0 96 59.5 146t173.5 50q66 0 117 -27q24 26 54 41t58 15q23 0 33.5 -13.5zM380 281q29 28 29 91t-29.5 92t-94.5 29q-63 0 -93 -29.5t-30 -91.5
q0 -119 123 -119q66 0 95 28zM141 -47q0 -87 148 -87q82 0 124 22t42 65t-38.5 63t-123.5 20q-152 0 -152 -83zM142 776h70l82 -85l80 85h70l-101 -139h-99z" />
    <glyph glyph-name="Aringacute" unicode="&#x1fa;" horiz-adv-x="633" 
d="M476 193h-319q-23 -84 -43 -193h-99q41 202 101.5 371.5t149.5 328.5h102q89 -158 149.5 -327t100.5 -373h-99q-20 109 -43 193zM455 270q-54 184 -138 344q-85 -158 -139 -344h277zM234 774q-34 33 -34 83t34 83.5t83 33.5t83 -33.5t34 -83.5t-34 -83t-83 -33t-83 33z
M356.5 817.5q16.5 16.5 16.5 39.5q0 25 -16 40.5t-40 15.5t-40.5 -15.5t-16.5 -40.5q0 -23 16.5 -39.5t40.5 -16.5q23 0 39.5 16.5zM351 1187h111l-124 -151h-86z" />
    <glyph glyph-name="aringacute" unicode="&#x1fb;" horiz-adv-x="561" 
d="M493.5 72q7.5 -30 26.5 -52q-14 -11 -34 -18.5t-37 -7.5q-46 0 -55 82q-30 -41 -76.5 -63.5t-104.5 -22.5q-75 0 -120.5 39t-45.5 104q0 184 344 201v39q0 58 -29 86t-90 28q-40 0 -75 -16t-80 -56q-7 -5 -13 -5q-13 0 -28 13.5t-28 37.5q42 47 104 73t129 26
q96 0 150.5 -49.5t54.5 -137.5v-213q0 -58 7.5 -88zM320 86.5q40 27.5 71 78.5v107q-248 -11 -248 -133q0 -39 23.5 -59.5t67.5 -20.5q46 0 86 27.5zM194 664q-34 33 -34 83t34 83.5t83 33.5t83 -33.5t34 -83.5t-34 -83t-83 -33t-83 33zM316.5 707.5q16.5 16.5 16.5 39.5
q0 25 -16 40.5t-40 15.5t-40.5 -15.5t-16.5 -40.5q0 -23 16.5 -39.5t40.5 -16.5q23 0 39.5 16.5zM311 1077h111l-124 -151h-86z" />
    <glyph glyph-name="AEacute" unicode="&#x1fc;" horiz-adv-x="943" 
d="M563 627v-224h284v-73h-284v-257h325q0 -42 -11 -57.5t-47 -15.5h-358v206h-296q-40 -100 -60 -206h-101q39 194 139 378t259 322h477v-73h-327zM472 279v348h-9q-76 -65 -141 -154.5t-114 -193.5h264zM569 930h111l-124 -151h-86z" />
    <glyph glyph-name="aeacute" unicode="&#x1fd;" horiz-adv-x="909" 
d="M867 261h-377q6 -202 149 -202q56 0 87 21.5t53 63.5q7 12 21 12q22 0 61 -28q-22 -65 -77.5 -102.5t-144.5 -37.5q-67 0 -118.5 25.5t-82.5 75.5q-37 -48 -91.5 -74.5t-123.5 -26.5q-78 0 -127 38t-49 106q0 195 346 200v41q0 114 -116 114q-49 0 -82.5 -18t-78.5 -55
q-6 -6 -14 -6q-12 0 -27 14.5t-27 38.5q43 44 102 71.5t131 27.5q59 0 104.5 -20.5t71.5 -58.5q33 39 81.5 59t106.5 20q109 0 168 -60t59 -179q0 -30 -5 -60zM775 325q0 168 -133 168q-64 0 -102.5 -42t-47.5 -126h283zM334.5 89.5q46.5 32.5 68.5 87.5q-8 38 -10 89
q-133 -5 -191.5 -37.5t-58.5 -90.5q0 -39 23.5 -60t67.5 -21q54 0 100.5 32.5zM484 780h111l-124 -151h-86z" />
    <glyph glyph-name="Oslashacute" unicode="&#x1fe;" horiz-adv-x="680" 
d="M635 354q0 -175 -76.5 -269.5t-218.5 -94.5q-109 0 -181 58l-34 -48h-72l64 90q-72 95 -72 264q0 171 76.5 263.5t218.5 92.5q107 0 178 -53l31 44h72l-61 -86q75 -92 75 -261zM176 174l291 411q-46 46 -127 46q-98 0 -145.5 -68.5t-47.5 -208.5q0 -110 29 -180zM533 354
q0 114 -31 179l-292 -412q48 -52 130 -52q193 0 193 285zM374 893h111l-124 -151h-86z" />
    <glyph glyph-name="oslashacute" unicode="&#x1ff;" horiz-adv-x="555" 
d="M464 479q54 -72 54 -203q0 -140 -61.5 -213t-179.5 -73q-92 0 -150 45l-26 -35h-71l58 76q-51 72 -51 200q0 140 61 212t179 72q88 0 146 -41l24 31h71zM148 155l227 299q-36 37 -98 37q-75 0 -109.5 -51.5t-34.5 -163.5q0 -73 15 -121zM405 401l-229 -301
q35 -41 101 -41q75 0 109.5 52t34.5 165q0 78 -16 125zM311 780h111l-124 -151h-86z" />
    <glyph glyph-name="uni0218" unicode="&#x218;" horiz-adv-x="642" 
d="M193.5 10.5q-58.5 20.5 -91.5 57t-33 82.5q0 25 19.5 40t53.5 16q13 -67 60.5 -102.5t124.5 -35.5t121.5 33.5t44.5 90.5q0 49 -40 78.5t-140 56.5q-84 23 -133 49.5t-71.5 62t-22.5 85.5q0 86 65 136t178 50q96 0 161.5 -45t88.5 -127q-10 -10 -27 -16.5t-33 -6.5
q-15 0 -25.5 7t-17.5 23q-21 42 -59.5 65t-87.5 23q-71 0 -107 -26t-36 -78q0 -29 13.5 -48.5t46 -36t93.5 -34.5q105 -31 159 -58t75.5 -60.5t21.5 -85.5q0 -65 -33.5 -114t-94.5 -75.5t-142 -26.5q-73 0 -131.5 20.5zM375 -77.5q15 -15.5 15 -42.5v-14q0 -72 -46 -142
q-15 -23 -27 -33t-24 -10q-21 0 -35 12q32 37 47.5 64t20.5 58h-7q-24 0 -37.5 15t-13.5 40v13q0 25 14 40t38 15h15q25 0 40 -15.5z" />
    <glyph glyph-name="uni0219" unicode="&#x219;" horiz-adv-x="492" 
d="M145 5q-48 15 -77.5 39.5t-29.5 53.5q0 18 12.5 31.5t32.5 16.5q31 -45 70 -66t96 -21t86 25.5t29 67.5q0 27 -17.5 44.5t-44 28t-71.5 22.5q-59 16 -94.5 31.5t-61 46t-25.5 80.5t28 85t72 52.5t92 17.5q67 0 119.5 -26.5t81.5 -73.5q-12 -17 -26 -27t-26 -10
q-15 0 -27 14q-48 56 -123 56q-46 0 -73 -21t-27 -64q0 -27 17 -43.5t43 -26t70 -20.5q60 -16 96 -31t62 -47t26 -85q0 -77 -56.5 -121t-153.5 -44q-52 0 -100 15zM294 -77.5q15 -15.5 15 -42.5v-14q0 -72 -46 -142q-15 -23 -27 -33t-24 -10q-21 0 -35 12q32 37 47.5 64
t20.5 58h-7q-24 0 -37.5 15t-13.5 40v13q0 25 14 40t38 15h15q25 0 40 -15.5z" />
    <glyph glyph-name="uni021A" unicode="&#x21a;" horiz-adv-x="534" 
d="M523 669q0 -22 -10 -34t-29 -12h-168v-623h-98v623h-203v77h504q4 -20 4 -31zM320 -77.5q15 -15.5 15 -42.5v-14q0 -72 -46 -142q-15 -23 -27 -33t-24 -10q-21 0 -35 12q32 37 47.5 64t20.5 58h-7q-24 0 -37.5 15t-13.5 40v13q0 25 14 40t38 15h15q25 0 40 -15.5z" />
    <glyph glyph-name="uni021B" unicode="&#x21b;" horiz-adv-x="384" 
d="M365 63.5q5 -9.5 5 -21.5q0 -20 -15 -29q-15 -11 -41.5 -17t-57.5 -6q-67 0 -107 36.5t-40 97.5v359h-97v67h97v150h95v-150h131v-67h-131v-346q0 -40 16 -58.5t49 -18.5q40 0 83 17q8 -4 13 -13.5zM300 -77.5q15 -15.5 15 -42.5v-14q0 -72 -46 -142q-15 -23 -27 -33
t-24 -10q-21 0 -35 12q32 37 47.5 64t20.5 58h-7q-24 0 -37.5 15t-13.5 40v13q0 25 14 40t38 15h15q25 0 40 -15.5z" />
    <glyph glyph-name="uni0237" unicode="&#x237;" horiz-adv-x="270" 
d="M-18.5 -192q-26.5 7 -37.5 18q-9 9 -9 22q0 11 5.5 21.5t11.5 11.5q30 -15 72 -15q30 0 46.5 18t16.5 54v612h94v-603q0 -69 -38 -107.5t-109 -38.5q-26 0 -52.5 7z" />
    <glyph glyph-name="uni0251" unicode="&#x251;" horiz-adv-x="598" 
d="M537 14q-38 -19 -70 -19q-31 0 -41 61q-27 -33 -66 -49.5t-94 -16.5q-101 0 -165 69.5t-64 212.5q0 90 31.5 155t88 99t132.5 34q38 0 73 -12t60 -29v31h95v-399q0 -97 20 -137zM422 138v305q-21 22 -55 36t-70 14q-76 0 -120 -56.5t-44 -164.5q0 -107 40.5 -160
t110.5 -53q90 0 138 79z" />
    <glyph glyph-name="uni0259" unicode="&#x259;" horiz-adv-x="567" 
d="M403.5 525.5q56.5 -34.5 86.5 -99t30 -152.5q0 -133 -67.5 -208.5t-186.5 -75.5q-109 0 -169 65t-60 182q0 20 3 52h383q-4 95 -44 147.5t-109 52.5q-48 0 -79.5 -19t-61.5 -66q-8 -11 -21 -11q-22 0 -60 27q25 66 83.5 103t138.5 37q77 0 133.5 -34.5zM374 102
q39 42 47 123h-288q0 -165 136 -165q66 0 105 42z" />
    <glyph glyph-name="uni02BB" unicode="&#x2bb;" horiz-adv-x="241" 
d="M73.5 575q-16.5 19 -16.5 56q0 32 12 63.5t32 56.5q26 33 53 33q15 0 31 -14q-18 -19 -30.5 -44t-12.5 -51q0 -45 31 -70q0 -20 -15 -34.5t-39 -14.5q-29 0 -45.5 19z" />
    <glyph glyph-name="uni02BC" unicode="&#x2bc;" horiz-adv-x="241" 
d="M55 496q18 20 30.5 45t12.5 50q0 44 -32 70q0 20 15 34.5t39 14.5q29 0 46 -19t17 -56q0 -32 -12 -63.5t-32 -56.5q-28 -33 -54 -33q-16 0 -30 14z" />
    <glyph glyph-name="uni02BE" unicode="&#x2be;" 
d="M-59 691q24 0 40.5 16.5t16.5 39.5q0 25 -16 40.5t-41 15.5v61q49 0 83.5 -33.5t34.5 -83.5t-34.5 -83t-83.5 -33v60z" />
    <glyph glyph-name="uni02BF" unicode="&#x2bf;" 
d="M-24.5 664q-34.5 33 -34.5 83t34.5 83.5t83.5 33.5v-61q-25 0 -41 -15.5t-16 -40.5q0 -23 16.5 -39.5t40.5 -16.5v-60q-49 0 -83.5 33z" />
    <glyph glyph-name="circumflex" unicode="&#x2c6;" horiz-adv-x="243" 
d="M72 768h99l105 -139h-78l-76 83l-78 -83h-78z" />
    <glyph glyph-name="caron" unicode="&#x2c7;" horiz-adv-x="243" 
d="M-30 776h70l82 -85l80 85h70l-101 -139h-99z" />
    <glyph glyph-name="uni02C8" unicode="&#x2c8;" 
d="M-41 724h82v-147h-82v147z" />
    <glyph glyph-name="uni02C9" unicode="&#x2c9;" horiz-adv-x="440" 
d="M57 724h326v-73h-326v73z" />
    <glyph glyph-name="uni02CA" unicode="&#x2ca;" 
d="M-3 780h111l-124 -151h-86z" />
    <glyph glyph-name="uni02CB" unicode="&#x2cb;" 
d="M-100 780h110l87 -151h-79z" />
    <glyph glyph-name="uni02CC" unicode="&#x2cc;" 
d="M-41 -40h82v-147h-82v147z" />
    <glyph glyph-name="breve" unicode="&#x2d8;" horiz-adv-x="243" 
d="M34 643q-36 15 -54.5 39t-18.5 50q0 21 16 33t44 12q4 -40 29 -63t71 -23q45 0 70 25t31 66q60 0 60 -49q0 -28 -19.5 -52t-56 -38.5t-85.5 -14.5q-51 0 -87 15z" />
    <glyph glyph-name="dotaccent" unicode="&#x2d9;" horiz-adv-x="248" 
d="M63 707v11q0 56 56 56h10q56 0 56 -56v-11q0 -56 -56 -56h-10q-56 0 -56 56z" />
    <glyph glyph-name="ring" unicode="&#x2da;" horiz-adv-x="244" 
d="M39 664q-34 33 -34 83t34 83.5t83 33.5t83 -33.5t34 -83.5t-34 -83t-83 -33t-83 33zM161.5 707.5q16.5 16.5 16.5 39.5q0 25 -16 40.5t-40 15.5t-40.5 -15.5t-16.5 -40.5q0 -23 16.5 -39.5t40.5 -16.5q23 0 39.5 16.5z" />
    <glyph glyph-name="ogonek" unicode="&#x2db;" horiz-adv-x="243" 
d="M47 -183q-29 23 -29 63q0 43 24.5 72.5t68.5 51.5h48q-63 -49 -63 -109q0 -22 12 -34.5t33 -12.5q26 0 46 10q11 -11 11 -25q0 -17 -19.5 -28t-53.5 -11q-49 0 -78 23z" />
    <glyph glyph-name="tilde" unicode="&#x2dc;" horiz-adv-x="244" 
d="M-19 647.5q-12 9.5 -12 27.5q0 36 24.5 56t62.5 20q22 0 38.5 -6t36.5 -17q15 -9 26 -13t24 -4q39 0 44 43q50 0 50 -40q0 -30 -23 -52t-62 -22q-23 0 -40 6t-38 17q-18 9 -29 13.5t-25 4.5q-38 0 -43 -43q-22 0 -34 9.5z" />
    <glyph glyph-name="hungarumlaut" unicode="&#x2dd;" horiz-adv-x="243" 
d="M71 766h111l-114 -151h-67zM235 766h112l-131 -151h-69z" />
    <glyph glyph-name="gravecomb" unicode="&#x300;" 
d="M-131 780h109l88 -151h-79z" />
    <glyph glyph-name="acutecomb" unicode="&#x301;" 
d="M-144 780h111l-124 -151h-86z" />
    <glyph glyph-name="uni0302" unicode="&#x302;" 
d="M-50 768h99l105 -139h-78l-76 83l-78 -83h-78z" />
    <glyph glyph-name="tildecomb" unicode="&#x303;" 
d="M-140 647.5q-12 9.5 -12 27.5q0 36 24.5 56t62.5 20q22 0 38.5 -6t36.5 -17q15 -9 26 -13t24 -4q39 0 44 43q50 0 50 -40q0 -30 -23 -52t-62 -22q-23 0 -40 6t-38 17q-18 9 -29 13.5t-25 4.5q-38 0 -43 -43q-22 0 -34 9.5z" />
    <glyph glyph-name="uni0304" unicode="&#x304;" 
d="M-163 724h326v-73h-326v73z" />
    <glyph glyph-name="uni0306" unicode="&#x306;" 
d="M-87 643q-36 15 -54.5 39t-18.5 50q0 21 16 33t44 12q4 -40 29 -63t71 -23q45 0 70 25t31 66q60 0 60 -49q0 -28 -19.5 -52t-56 -38.5t-85.5 -14.5q-51 0 -87 15z" />
    <glyph glyph-name="uni0307" unicode="&#x307;" 
d="M-61 707v11q0 56 56 56h10q56 0 56 -56v-11q0 -56 -56 -56h-10q-56 0 -56 56z" />
    <glyph glyph-name="uni0308" unicode="&#x308;" 
d="M-158 691v10q0 52 52 52h9q52 0 52 -52v-10q0 -52 -52 -52h-9q-52 0 -52 52zM45 691v10q0 52 51 52h10q51 0 51 -52v-10q0 -52 -51 -52h-10q-51 0 -51 52z" />
    <glyph glyph-name="hookabovecomb" unicode="&#x309;" 
d="M-182 625q-12 9 -12 20q33 17 47 38.5t14 48.5q0 20 -9.5 31.5t-28.5 11.5q-36 0 -46 -48q-22 0 -34.5 10t-12.5 28q0 28 26.5 49t69.5 21q48 0 76.5 -24t28.5 -68q0 -47 -25.5 -78.5t-66.5 -49.5q-15 1 -27 10z" />
    <glyph glyph-name="uni030A" unicode="&#x30a;" 
d="M-83 664q-34 33 -34 83t34 83.5t83 33.5t83 -33.5t34 -83.5t-34 -83t-83 -33t-83 33zM39.5 707.5q16.5 16.5 16.5 39.5q0 25 -16 40.5t-40 15.5t-40.5 -15.5t-16.5 -40.5q0 -23 16.5 -39.5t40.5 -16.5q23 0 39.5 16.5z" />
    <glyph glyph-name="uni030B" unicode="&#x30b;" 
d="M-51 766h111l-114 -151h-67zM113 766h112l-131 -151h-69z" />
    <glyph glyph-name="uni030C" unicode="&#x30c;" 
d="M-153 776h70l82 -85l80 85h70l-101 -139h-99z" />
    <glyph glyph-name="uni031B" unicode="&#x31b;" 
d="M-80 362q31 0 48 18t17 49q0 30 -29 52q2 15 15.5 25.5t32.5 10.5q30 0 49 -20.5t19 -57.5q0 -60 -38.5 -95t-113.5 -39v57z" />
    <glyph glyph-name="dotbelowcomb" unicode="&#x323;" 
d="M-177 -140v11q0 56 56 56h10q56 0 56 -56v-11q0 -56 -56 -56h-10q-56 0 -56 56z" />
    <glyph glyph-name="uni0324" unicode="&#x324;" 
d="M-158 -136v10q0 52 52 52h9q52 0 52 -52v-10q0 -52 -52 -52h-9q-52 0 -52 52zM45 -136v10q0 52 52 52h9q52 0 52 -52v-10q0 -52 -52 -52h-9q-52 0 -52 52z" />
    <glyph glyph-name="uni0326" unicode="&#x326;" 
d="M-191 -77.5q15 -15.5 15 -42.5v-14q0 -72 -46 -142q-15 -23 -27 -33t-24 -10q-21 0 -35 12q32 37 47.5 64t20.5 58h-7q-24 0 -37.5 15t-13.5 40v13q0 25 14 40t38 15h15q25 0 40 -15.5z" />
    <glyph glyph-name="uni0327" unicode="&#x327;" 
d="M74 -76q27 -22 27 -60q0 -45 -34.5 -70.5t-93.5 -25.5q-48 0 -72 12t-24 34q0 8 3 16q41 -11 84 -11q30 0 45.5 11t15.5 32q0 13 -11.5 23.5t-33.5 10.5q-17 0 -36 -6l-24 35l54 75h68l-46 -54h8q43 0 70 -22z" />
    <glyph glyph-name="uni0328" unicode="&#x328;" 
d="M-69 -183q-29 23 -29 63q0 43 24.5 72.5t68.5 51.5h48q-63 -49 -63 -109q0 -22 12 -34.5t33 -12.5q26 0 46 10q11 -11 11 -25q0 -17 -19.5 -28t-53.5 -11q-49 0 -78 23z" />
    <glyph glyph-name="uni032E" unicode="&#x32e;" 
d="M-89 -190q-36 15 -54.5 39t-18.5 50q0 21 16 33t44 12q4 -40 29 -63t71 -23q45 0 70 25t31 66q60 0 60 -49q0 -28 -19.5 -52t-56 -38.5t-85.5 -14.5q-51 0 -87 15z" />
    <glyph glyph-name="uni0331" unicode="&#x331;" 
d="M-163 -70h326v-73h-326v73z" />
    <glyph glyph-name="uni0394" unicode="&#x394;" horiz-adv-x="566" 
d="M566 43v-43h-566v43l243 657h80zM460 78l-177 494l-177 -494h354z" />
    <glyph glyph-name="uni03A9" unicode="&#x3a9;" horiz-adv-x="689" 
d="M57 71h163v73q-80 24 -130 97.5t-50 168.5q0 90 38 158t107 105t160 37t159.5 -37t106.5 -105t38 -158q0 -96 -50 -170t-130 -96v-73h164v-71h-240v190q76 16 121 75.5t45 144.5q0 106 -57.5 167t-156.5 61t-156 -61t-57 -167q0 -85 45 -144.5t121 -75.5v-190h-241v71z
" />
    <glyph glyph-name="uni03BC" unicode="&#x3bc;" horiz-adv-x="617" 
d="M534 54q4 -24 11 -44q-32 -15 -62 -15q-24 0 -34.5 17t-12.5 56q-48 -80 -145 -80q-75 0 -114 39v-247h-94v770h94v-370q0 -63 31 -94t86 -31q44 0 81.5 26.5t59.5 75.5v393h95v-430q0 -42 4 -66z" />
    <glyph glyph-name="pi" unicode="&#x3c0;" horiz-adv-x="640" 
d="M431 22q-28 32 -28 84v371h-185v-477h-92v477h-104v73h585v-73h-112v-362q0 -34 14.5 -48t41.5 -14q18 0 37.5 5t31.5 13v-58q-23 -12 -47 -17.5t-56 -5.5q-58 0 -86 32z" />
    <glyph glyph-name="uni0E01" unicode="&#xe01;" horiz-adv-x="608" 
d="M471.5 534q66.5 -52 66.5 -151v-383h-91v383q0 68 -38 103t-110 35q-44 0 -81.5 -13.5t-59.5 -32.5t-22 -34q0 -19 22.5 -35t39.5 -16q12 0 32 8q16 7 26 7q9 0 22 -19t13 -31q0 -9 -7 -9q-61 0 -84 -30t-23 -96v-220h-92v220q0 85 48 128q-32 14 -57.5 38t-25.5 52
q0 32 31.5 67t88.5 58t129 23q106 0 172.5 -52z" />
    <glyph glyph-name="uni0E02" unicode="&#xe02;" horiz-adv-x="582" 
d="M178 31q-50 40 -50 120v100q0 19 17 30q47 31 72.5 50.5t41.5 46t16 61.5q0 45 -25 66.5t-65 21.5q-36 0 -61 -21.5t-25 -53.5q0 -25 12 -38t32 -13q19 0 29.5 11t10.5 29q0 16 -8.5 26t-23.5 11q-6 1 -20 1q3 8 13 15t25 7q26 0 45 -17t19 -50q0 -37 -25.5 -61
t-63.5 -24q-41 0 -70 28t-29 76q0 56 41 91.5t105 35.5q67 0 110 -35.5t43 -101.5q0 -45 -16 -79.5t-41.5 -59.5t-66.5 -57v-88q0 -54 22.5 -78.5t74.5 -24.5q58 0 79 24t21 86v410h91v-413q0 -93 -50 -132.5t-142 -39.5q-88 0 -138 40z" />
    <glyph glyph-name="uni0E03" unicode="&#xe03;" horiz-adv-x="613" 
d="M190 33.5q-53 42.5 -53 132.5v56q0 42 20 72t57 64q34 32 51 57t17 58q0 45 -37 45q-29 0 -52 -38q-12 21 -24.5 30.5t-31.5 9.5t-31 -11.5t-12 -32.5q0 -22 12.5 -34t30.5 -12q33 0 48 32q16 -11 16 -25q0 -24 -20.5 -41t-50.5 -17q-44 0 -71.5 26.5t-27.5 72.5
q0 47 27.5 74.5t64.5 27.5q26 0 42.5 -9.5t28.5 -29.5q24 39 77 39q42 0 68.5 -26.5t26.5 -76.5q0 -44 -18.5 -76t-55.5 -74q-30 -33 -45 -56.5t-15 -52.5v-52q0 -57 26 -82.5t81 -25.5q62 0 85.5 24.5t23.5 83.5v410h91v-414q0 -83 -50 -127t-151 -44q-95 0 -148 42.5z" />
    <glyph glyph-name="uni0E04" unicode="&#xe04;" horiz-adv-x="627" 
d="M498.5 524.5q58.5 -61.5 58.5 -167.5v-357h-91v352q0 82 -34.5 125.5t-114.5 43.5q-78 0 -120.5 -41.5t-42.5 -124.5q0 -46 12 -89q23 51 61 81t91 30q45 0 72.5 -26t27.5 -70q0 -43 -25.5 -67.5t-68.5 -24.5q-27 0 -46.5 14.5t-19.5 35.5q0 22 17 29q16 -32 48 -32
q20 0 30 11.5t10 31.5q0 19 -12.5 30.5t-34.5 11.5q-62 0 -99 -85.5t-40 -235.5h-77q-15 0 -15 20q0 40 25 120q8 26 8 32q0 7 -13 30q-19 34 -31 68.5t-12 84.5q0 72 32.5 124t90 79.5t132.5 27.5q123 0 181.5 -61.5z" />
    <glyph glyph-name="uni0E05" unicode="&#xe05;" horiz-adv-x="640" 
d="M532.5 511.5q37.5 -50.5 37.5 -141.5v-370h-92v370q0 61 -16.5 92.5t-57.5 46.5q-23 -19 -80 -56q-56 34 -83 56q-43 -19 -65 -56.5t-22 -97.5q0 -46 12 -89q23 51 62 81t92 30q44 0 72 -26t28 -70q0 -43 -26 -67.5t-69 -24.5q-26 0 -45.5 14.5t-19.5 35.5q0 22 16 29
q9 -17 20.5 -24.5t27.5 -7.5q20 0 30 11.5t10 31.5q0 19 -12.5 30.5t-34.5 11.5q-62 0 -99.5 -86t-40.5 -235h-77q-15 0 -15 20q0 40 25 120q8 26 8 32q0 7 -13 30q-19 34 -31 68.5t-12 84.5q0 88 45 146.5t133 84.5q42 -23 84 -62q41 37 81 62q90 -24 127.5 -74.5z" />
    <glyph glyph-name="uni0E06" unicode="&#xe06;" horiz-adv-x="669" 
d="M585 44l2 -27q0 -17 -14 -17h-81q-29 81 -87.5 130.5t-130.5 65.5l3 -65q1 -66 -23 -103t-87 -37q-49 0 -78.5 33t-29.5 94t36 99.5t93 45.5q7 26 19.5 46.5t36.5 50.5q25 31 38 55.5t13 57.5q0 22 -9.5 33t-26.5 11q-31 0 -52 -37q-21 40 -57 40q-19 0 -31 -12t-12 -32
q0 -21 12.5 -32.5t30.5 -11.5q19 0 30.5 9.5t16.5 24.5q9 -2 14 -9t5 -16q0 -24 -20.5 -41.5t-52.5 -17.5q-44 0 -71.5 26t-27.5 70q0 47 27 74.5t65 27.5q52 0 71 -39q20 38 77 38q41 0 68 -26.5t27 -75.5q0 -44 -15 -76t-44 -74q-30 -43 -39 -71q65 -13 121 -48t88 -82
v450h91v-456q0 -36 4 -76zM178 60q6 10 7 28.5t1 38.5q0 13 -2 47l-1 27q-61 -13 -61 -84q0 -32 9.5 -49.5t26.5 -17.5q14 0 20 10z" />
    <glyph glyph-name="uni0E07" unicode="&#xe07;" horiz-adv-x="533" 
d="M201 2q-39 8 -41 19q-23 116 -54.5 197t-78.5 147q11 15 28.5 25t34.5 10q18 0 28.5 -8t19.5 -26q53 -96 91 -297q1 -6 16.5 -9.5t40.5 -3.5t40.5 4t16.5 12q16 102 24.5 201t8.5 168q0 42 -11.5 61.5t-37.5 19.5q-19 0 -30 -9.5t-11 -26.5q0 -18 9.5 -28t27.5 -10
q16 0 30 6q4 -7 4 -14q0 -14 -13 -25t-37 -11q-37 0 -59.5 22.5t-22.5 61.5q0 42 30.5 68t81.5 26q65 0 98 -35t33 -101q0 -150 -52 -424q-2 -12 -41 -20t-86 -8q-49 0 -88 8z" />
    <glyph glyph-name="uni0E08" unicode="&#xe08;" horiz-adv-x="598" 
d="M285.5 -0.5q-31.5 8.5 -32.5 19.5q-4 69 -8.5 127t-11.5 96q-5 27 -17.5 39.5t-32.5 12.5q-18 0 -29 -10t-11 -28q0 -17 11 -28t30 -11q14 0 28 7q3 -6 3 -13q0 -16 -13.5 -26.5t-35.5 -10.5q-36 0 -58 23t-22 61q0 41 28.5 67.5t73.5 26.5q47 0 77 -25.5t39 -69.5
q7 -35 13 -90t10 -106q0 -5 9.5 -8t24.5 -3q16 0 25 3.5t9 8.5q5 49 21 148q10 58 14.5 94t4.5 73q0 67 -35 102.5t-104 35.5q-52 0 -93 -19.5t-75 -53.5q-13 -12 -28 -12q-12 0 -27 16.5t-26 40.5q38 39 103.5 69t146.5 30q106 0 168.5 -54t62.5 -153q0 -39 -6.5 -77.5
t-19.5 -97.5q-2 -9 -13.5 -65t-18.5 -120q-1 -12 -35 -20t-74 -8q-44 0 -75.5 8.5z" />
    <glyph glyph-name="uni0E09" unicode="&#xe09;" horiz-adv-x="636" 
d="M613 99q0 -46 -32 -74.5t-83 -28.5q-48 0 -78.5 29t-30.5 74q0 25 9 44t25 37q-37 -2 -70.5 -28.5t-56.5 -67.5t-31 -84h-62q-11 0 -16 4.5t-5 14.5v74q0 37 5 79q1 10 3 35t2 49q0 23 -12.5 36.5t-34.5 13.5q-20 0 -33 -12.5t-13 -31.5q0 -20 13 -32t33 -12q19 0 30 9
q4 -5 4 -14q0 -15 -13.5 -26.5t-38.5 -11.5q-34 0 -58 23t-24 64q0 42 32 70.5t80 28.5q55 0 88 -31t33 -81q0 -22 -5 -95q29 39 70.5 61t87.5 22q20 0 39 -3q7 16 7 28v118q0 65 -40.5 100t-116.5 35q-60 0 -104 -22t-87 -61q-11 -8 -20 -8q-13 0 -28.5 15t-27.5 40
q43 46 113 76.5t154 30.5q114 0 181 -53t67 -151v-128q0 -25 -19 -46q64 -39 64 -109zM535 65q12 14 12 38q0 46 -48 66q-22 -17 -33.5 -31.5t-11.5 -35.5q0 -23 11.5 -37t34.5 -14t35 14z" />
    <glyph glyph-name="uni0E0A" unicode="&#xe0a;" horiz-adv-x="615" 
d="M506.5 396.5q18.5 -27.5 18.5 -71.5v-162q0 -92 -54 -132t-152 -40q-85 0 -142.5 40.5t-57.5 119.5v95q0 20 17 29q60 39 94 77t34 91q0 41 -24 61.5t-65 20.5q-34 0 -53.5 -18t-19.5 -45q0 -22 11 -35t30 -13t30 11.5t11 30.5q0 18 -9 32q6 3 16 3q17 0 28 -12t11 -33
q0 -35 -24 -59.5t-64 -24.5q-41 0 -68.5 26t-27.5 74q0 50 39 83.5t99 33.5q63 0 105.5 -36t42.5 -98q0 -70 -35 -118.5t-87 -85.5v-82q0 -52 29.5 -77.5t80.5 -25.5q62 0 87.5 24.5t25.5 85.5v165q0 37 -12 56t-27 19q-9 0 -18.5 -1.5t-19.5 -1.5q-7 0 -15 16.5t-8 27.5
q0 8 6 9q60 9 91.5 45.5t50.5 116.5q33 0 53 -14.5t20 -38.5q0 -36 -29 -74t-68 -55q31 -12 49.5 -39.5z" />
    <glyph glyph-name="uni0E0B" unicode="&#xe0b;" horiz-adv-x="628" 
d="M529 403q17 -28 17 -74v-167q0 -81 -56.5 -126t-159.5 -45q-97 0 -155 43t-58 132v56q0 42 21.5 71.5t62.5 65.5q37 32 55.5 57t18.5 58q0 22 -9.5 33t-26.5 11q-31 0 -52 -38q-13 21 -25.5 30.5t-31.5 9.5t-31 -12t-12 -32q0 -21 12.5 -32.5t30.5 -11.5q31 0 49 31
q14 -7 14 -26q0 -23 -20 -39t-52 -16q-43 0 -70 26t-27 70q0 47 27 74.5t65 27.5q27 0 43 -9.5t28 -29.5q25 39 77 39q41 0 68 -26t27 -75q0 -14 -1 -20q62 16 93.5 51t50.5 108q34 -2 53.5 -15.5t19.5 -37.5q0 -34 -27 -69t-64 -54q28 -11 45 -39zM454 336q0 38 -12 56.5
t-27 18.5q-6 0 -17.5 -2.5t-18.5 -2.5q-6 0 -13.5 11t-11.5 23q-8 -31 -26.5 -55.5t-49.5 -55.5q-33 -34 -49.5 -58t-16.5 -53v-52q0 -55 31 -81.5t88 -26.5q63 0 93 25.5t30 82.5v170z" />
    <glyph glyph-name="uni0E0C" unicode="&#xe0c;" horiz-adv-x="917" 
d="M834 44l1 -24q0 -20 -15 -20h-80q-65 149 -196 173v-56q0 -126 -98 -126q-45 0 -73 29.5t-28 80.5q0 54 29 88t78 45v149q0 68 -40 103t-116 35q-44 0 -81 -13.5t-58 -32.5t-21 -34q0 -19 21.5 -34.5t38.5 -15.5q10 0 33 7q18 6 25 6q9 0 21 -20.5t12 -33.5q0 -8 -6 -8
q-61 0 -84 -28.5t-23 -92.5v-107q0 -32 13.5 -49t37.5 -17q23 0 34.5 12t11.5 33q0 20 -11.5 31t-32.5 11q-5 0 -33 -5q-3 8 -3 14q0 16 13 26.5t36 10.5q38 0 62 -22.5t24 -64.5q0 -45 -31 -73t-83 -28q-58 0 -94 34t-36 93v101q0 84 49 128q-30 12 -55.5 37t-25.5 52
q0 32 30.5 67t87 58t128.5 23q110 0 178.5 -52t68.5 -151v-148q57 -8 107 -35.5t88 -71.5v448h92v-438q0 -52 4 -94zM451.5 65.5q4.5 15.5 4.5 53.5q0 19 -2 55q-26 -6 -39.5 -22t-13.5 -48q0 -24 9 -39t24 -15q13 0 17.5 15.5z" />
    <glyph glyph-name="uni0E0D" unicode="&#xe0d;" horiz-adv-x="940" 
d="M495 31.5q-50 40.5 -50 141.5v210q0 69 -37.5 103.5t-114.5 34.5q-46 0 -81.5 -13.5t-55.5 -32.5t-20 -34q0 -13 12 -24.5t28.5 -18.5t26.5 -7q11 0 21.5 3t13.5 4q16 6 24 6q9 0 21 -19.5t12 -32.5q0 -10 -9 -10q-59 0 -85.5 -29.5t-26.5 -91.5v-107q0 -32 13.5 -49
t37.5 -17q23 0 34.5 12t11.5 33q0 20 -11.5 31t-32.5 11q-5 0 -33 -5q-3 8 -3 14q0 16 13 26.5t36 10.5q38 0 62 -22.5t24 -64.5q0 -45 -31 -73t-83 -28q-58 0 -94 34t-36 93v101q0 82 54 128q-33 14 -59.5 38t-26.5 51q0 32 31.5 66.5t88 58t126.5 23.5q111 0 176 -51.5
t65 -151.5v-211q0 -45 11 -69.5t36.5 -34.5t71.5 -10q48 0 73 10.5t35.5 34.5t10.5 69v404h92v-399q0 -71 -22.5 -111.5t-68.5 -57.5t-120 -17q-111 0 -161 40.5zM514 -214.5q-45 26.5 -45 77.5q0 41 25.5 64.5t61.5 23.5q34 0 54.5 -19t20.5 -48q0 -18 -10.5 -30t-24.5 -12
q-9 0 -19 6q8 9 8 26q0 13 -7 21.5t-20 8.5t-21.5 -8.5t-8.5 -23.5q0 -23 25.5 -38.5t72.5 -15.5q56 0 85 20.5t42 71.5q7 23 27 23q23 0 59 -15q-11 -79 -70.5 -119t-140.5 -40q-69 0 -114 26.5z" />
    <glyph glyph-name="uni0E0E" unicode="&#xe0e;" horiz-adv-x="625" 
d="M487.5 535q67.5 -51 67.5 -163v-617h-93q-37 52 -100 90q-26 -43 -71.5 -68.5t-99.5 -25.5t-89 26t-35 67q0 28 20 50.5t55 36t78 13.5q47 0 94 -14q6 35 7 61q37 0 52.5 -12.5t15.5 -37.5q0 -14 -4 -40q48 -26 78 -60v531q0 81 -39 115t-114 34q-46 0 -83.5 -12.5
t-58.5 -30.5t-21 -33q0 -13 11 -25t25 -19.5t22 -7.5q10 0 30 8q22 8 29 8q10 0 22 -19.5t12 -32.5q0 -8 -6 -8q-42 0 -63.5 -23t-21.5 -63q0 -34 9 -77q1 -5 5 -31t4 -55q0 -50 -28.5 -79t-83.5 -29q-48 0 -75 25.5t-27 65.5q0 36 22 57t50 21q17 0 27 -9.5t10 -26.5h-17
q-19 0 -30 -10.5t-11 -29.5q0 -16 11 -27.5t30 -11.5t29.5 13t10.5 33q0 19 -4.5 41.5t-9.5 43.5q-5 22 -9.5 44.5t-4.5 42.5q0 57 39 85q-37 12 -65.5 38.5t-28.5 54.5q0 30 31.5 63.5t88.5 57t130 23.5q110 0 177.5 -51zM254.5 -177q25.5 17 41.5 52q-34 12 -70 12
q-38 0 -60.5 -13t-22.5 -31q0 -16 15 -26.5t39 -10.5q32 0 57.5 17z" />
    <glyph glyph-name="uni0E0F" unicode="&#xe0f;" horiz-adv-x="625" 
d="M487.5 535q67.5 -51 67.5 -163v-622h-95l-64 52l-69 -49l-51 47q-25 -25 -56.5 -39t-68.5 -14q-47 0 -77 23t-30 62q0 41 33 64t78 23q47 0 93 -29q12 39 12 84q33 0 52 -12.5t19 -36.5q0 -43 -24 -83l25 -22l65 41l68 -46l-2 557q0 81 -39 115t-114 34
q-46 0 -83.5 -12.5t-58.5 -30.5t-21 -33q0 -13 11 -25t25 -19.5t22 -7.5q10 0 30 8q22 8 29 8q10 0 22 -19.5t12 -32.5q0 -8 -6 -8q-42 0 -63.5 -23t-21.5 -63q0 -34 9 -77q1 -5 5 -31t4 -55q0 -50 -28.5 -79t-83.5 -29q-48 0 -75 25.5t-27 65.5q0 36 22 57t50 21
q17 0 27 -9.5t10 -26.5h-17q-19 0 -30 -10.5t-11 -29.5q0 -16 11 -27.5t30 -11.5t29.5 13t10.5 33q0 19 -4.5 41.5t-9.5 43.5q-5 22 -9.5 44.5t-4.5 42.5q0 57 39 85q-37 12 -65.5 38.5t-28.5 54.5q0 30 31.5 63.5t88.5 57t130 23.5q110 0 177.5 -51zM228 -157
q-34 26 -64 26q-21 0 -35.5 -9t-14.5 -26t13.5 -26.5t35.5 -9.5q38 0 65 45z" />
    <glyph glyph-name="uni0E10" unicode="&#xe10;" horiz-adv-x="589" 
d="M529.5 563.5q6.5 -14.5 6.5 -28.5q0 -28 -30.5 -42.5t-78.5 -14.5q-35 0 -97 17q-5 1 -27.5 6.5t-42 8t-35.5 2.5q-70 0 -70 -66q0 -25 9 -38q17 0 29 1l60 1q56 0 97 -5q75 -6 115.5 -46t40.5 -114q0 -29 -4.5 -60t-13.5 -81q-10 -56 -14 -85q-1 -12 -34 -20t-77 -8
q-45 0 -78 8.5t-34 19.5q-2 99 -10 159q-5 30 -15 42t-30 12q-17 0 -28 -10.5t-11 -26.5q0 -17 10 -27t28 -10q17 0 30 9q5 -7 5 -13q0 -15 -14 -25.5t-40 -10.5q-34 0 -55.5 21.5t-21.5 57.5q0 39 28 64t71 25q49 0 77.5 -24t35.5 -70q10 -65 12 -131q0 -5 10 -8t26 -3
t25 3.5t10 8.5q20 122 20 175q0 52 -27.5 77.5t-92.5 26.5q-16 1 -51 1q-18 0 -111 -3l-30 -1q-16 18 -26.5 44.5t-10.5 57.5q0 64 42.5 103.5t108.5 39.5q44 0 112 -12q49 -9 73 -9q76 0 113 27q9 -11 15.5 -25.5zM490 -73.5q24 -22.5 24 -59.5q0 -16 -3.5 -30.5
t-11.5 -35.5q-8 -25 -12.5 -43t-4.5 -40h-92l-48 34l-55 -37l-42 43q-20 -20 -44.5 -31.5t-50.5 -11.5q-44 0 -69.5 24t-25.5 58q0 38 25 60t63 22q40 0 79 -32q4 24 4 61q33 0 48 -7.5t15 -28.5q0 -40 -17 -74l21 -21l48 27l67 -37q1 12 5 21.5t8.5 18t6.5 11.5
q9 15 14 26.5t5 24.5q0 16 -8.5 25t-22.5 9q-15 0 -23.5 -8t-8.5 -21q0 -14 8.5 -23.5t24.5 -12.5q-1 -7 -8 -11.5t-20 -4.5q-21 0 -35.5 15t-14.5 38q0 34 24 54t61 20q42 0 66 -22.5zM206 -202q-33 31 -55 31q-15 0 -25.5 -8t-10.5 -22q0 -16 10.5 -24.5t27.5 -8.5
q34 0 53 32z" />
    <glyph glyph-name="uni0E11" unicode="&#xe11;" horiz-adv-x="663" 
d="M558 542q35 -38 35 -104v-438h-91v421q0 48 -12.5 66.5t-41.5 18.5q-23 0 -42.5 -11.5t-45 -42t-72.5 -94.5q-29 -39 -43.5 -72.5t-14.5 -73.5l-1 -212h-76q-20 0 -20 20q0 4 2 24q3 42 3 62v113q0 35 10.5 63.5t24 48.5t41.5 55q43 56 43 93q0 18 -9 28.5t-23 10.5
q-25 0 -48 -38q-13 22 -24.5 31t-30.5 9q-18 0 -30 -11.5t-12 -32.5t12 -32.5t30 -11.5q29 0 47 31q16 -11 16 -25q0 -22 -20 -39t-50 -17q-41 0 -68 26t-27 70q0 47 26.5 74.5t64.5 27.5q26 0 42 -9.5t28 -29.5q24 39 73 39q28 0 48.5 -16.5t28.5 -46.5q25 29 58 46t72 17
q62 0 97 -38z" />
    <glyph glyph-name="uni0E12" unicode="&#xe12;" horiz-adv-x="947" 
d="M863 54.5q2 -26.5 2 -34.5q0 -20 -19 -20h-75q-65 148 -195 170v-56q0 -123 -100 -123q-45 0 -73.5 29.5t-28.5 80.5t29.5 85t80.5 45v139q0 61 -16.5 92.5t-57.5 46.5q-20 -17 -47 -34t-35 -22q-7 4 -36.5 21.5t-49.5 34.5q-90 -40 -90 -172q0 -59 15.5 -99.5
t43.5 -70.5q22 22 73 58l27 20q42 31 42 65q0 22 -11 33t-30 11q-20 0 -31.5 -10.5t-11.5 -29.5q0 -15 6.5 -26.5t21.5 -23.5q-6 -7 -13 -10t-18 -3q-22 0 -37 19.5t-15 46.5q0 40 28 65.5t72 25.5q46 0 73 -26.5t27 -63.5q0 -29 -8.5 -48.5t-23.5 -34t-46 -40.5
q-46 -36 -70.5 -60.5t-41 -57.5t-16.5 -77h-84q-5 0 -8 2t-3 9q0 21 7 38.5t19 36.5t12 26q0 5 -15 22q-32 38 -55 84t-23 121q0 94 46.5 156t136.5 91q50 -28 87 -62q37 34 83 62q90 -24 127 -74.5t37 -141.5v-138q56 -8 106 -35.5t88 -71.5v451h92v-446q0 -49 2 -75.5z
M482.5 65q5.5 15 5.5 51q0 18 -2 54q-56 -12 -56 -66q0 -26 9 -40t25 -14q13 0 18.5 15z" />
    <glyph glyph-name="uni0E13" unicode="&#xe13;" horiz-adv-x="938" 
d="M898.5 181q19.5 -30 19.5 -70q0 -54 -34 -84.5t-85 -30.5q-49 0 -81 30t-32 83q0 27 9.5 46.5t26.5 40.5q-46 0 -87.5 -28t-66.5 -73.5t-25 -94.5h-81q-8 0 -11.5 4t-1.5 16q4 28 4 100l-1 263q0 68 -39 103t-115 35q-47 0 -84 -13.5t-57.5 -32.5t-20.5 -34
q0 -13 12 -24.5t28.5 -18.5t26.5 -7q14 0 36 10q3 1 11 4t14 3q9 0 21 -21t12 -34q0 -8 -6 -8q-62 0 -89.5 -31t-27.5 -93v-107q0 -32 13.5 -49t37.5 -17q23 0 34.5 12t11.5 33q0 20 -11.5 31t-32.5 11q-5 0 -33 -5q-3 8 -3 14q0 16 13 26.5t36 10.5q38 0 62 -22.5t24 -64.5
q0 -45 -31 -73t-83 -28q-58 0 -94 34t-36 93v101q0 81 54 128q-32 13 -59 37.5t-27 51.5q0 33 30.5 67.5t87 57.5t130.5 23q114 0 179.5 -51t65.5 -152v-225q33 46 82 71t107 25q13 0 35 -2q8 18 8 38v286h92v-281q0 -21 -5.5 -36.5t-17.5 -29.5q35 -18 54.5 -48zM840 69.5
q14 15.5 14 43.5q0 51 -57 72q-25 -21 -36.5 -36t-11.5 -37q0 -26 14 -42t38 -16q25 0 39 15.5z" />
    <glyph glyph-name="uni0E14" unicode="&#xe14;" horiz-adv-x="632" 
d="M499 522q63 -64 63 -175v-347h-92v342q0 89 -37.5 134t-116.5 45t-122.5 -46t-43.5 -126q0 -104 57 -181q19 19 75 55l25 17q43 31 43 67q0 23 -11.5 34.5t-30.5 11.5q-21 0 -33 -11t-12 -30q0 -16 7.5 -28.5t24.5 -23.5q-8 -8 -13.5 -11t-16.5 -3q-24 0 -40 20t-16 47
q0 41 27.5 66.5t72.5 25.5t72 -28t27 -64q0 -41 -17 -66t-58 -54q-51 -36 -78 -59.5t-45 -56t-18 -77.5h-83q-5 0 -8 2t-3 9q0 22 7.5 41t20.5 40q12 19 12 26q0 10 -19 41q-27 46 -44 91t-17 104q0 67 33 119.5t91.5 82.5t133.5 30q120 0 183 -64z" />
    <glyph glyph-name="uni0E15" unicode="&#xe15;" horiz-adv-x="640" 
d="M532 513.5q38 -51.5 38 -143.5v-370h-92v370q0 62 -17 94.5t-58 44.5q-30 -25 -78 -56q-49 30 -81 56q-44 -18 -68 -62t-24 -110q0 -57 17.5 -97t47.5 -72q23 22 68 48l28 19q23 16 33.5 32t10.5 35q0 21 -12 33t-31 12q-20 0 -32 -11t-12 -30q0 -16 8 -28t24 -24
q-8 -8 -13.5 -11t-16.5 -3q-24 0 -39.5 19.5t-15.5 47.5q0 41 26.5 66.5t71.5 25.5q46 0 73 -27t27 -65q0 -41 -16.5 -65.5t-57.5 -53.5q-51 -35 -77 -57t-42.5 -54t-16.5 -77h-84q-5 0 -8 2t-3 9q0 19 6.5 36t17.5 37q14 25 14 35q0 6 -16 25q-31 38 -52.5 82.5
t-21.5 108.5q0 96 46 161t139 90q37 -21 82 -62q45 41 79 62q90 -21 128 -72.5z" />
    <glyph glyph-name="uni0E16" unicode="&#xe16;" horiz-adv-x="613" 
d="M474.5 534q68.5 -52 68.5 -151v-383h-91v383q0 68 -40 103t-116 35q-44 0 -81 -13.5t-58 -32.5t-21 -34q0 -19 21.5 -34.5t38.5 -15.5q10 0 33 7q18 6 25 6q9 0 21 -20.5t12 -33.5q0 -8 -6 -8q-61 0 -84 -28.5t-23 -92.5v-107q0 -32 13.5 -49t37.5 -17q23 0 34.5 12
t11.5 33q0 20 -11.5 31t-32.5 11q-5 0 -33 -5q-3 8 -3 14q0 16 13 26.5t36 10.5q39 0 62.5 -22t23.5 -65q0 -45 -31 -73t-83 -28q-58 0 -94 34t-36 93v101q0 84 49 128q-30 12 -55.5 37t-25.5 52q0 32 30.5 67t87 58t128.5 23q110 0 178.5 -52z" />
    <glyph glyph-name="uni0E17" unicode="&#xe17;" horiz-adv-x="682" 
d="M580.5 553.5q31.5 -32.5 31.5 -94.5v-459h-92v435q0 36 -11.5 52t-35.5 16q-31 0 -56.5 -28t-54.5 -88q-54 -116 -76.5 -195.5t-24.5 -149.5l-1 -42h-81q-8 0 -11.5 4t-3.5 14q0 7 2.5 33.5t2.5 60.5v371q0 21 -10.5 34.5t-31.5 13.5t-32 -11.5t-11 -31.5q0 -21 13 -33.5
t33 -12.5h23q0 -43 -43 -43q-33 0 -56.5 24t-23.5 65q0 42 30.5 70t78.5 28q55 0 89 -30.5t34 -86.5l-1 -176q28 81 61 149q32 69 73.5 106.5t100.5 37.5q53 0 84.5 -32.5z" />
    <glyph glyph-name="uni0E18" unicode="&#xe18;" horiz-adv-x="590" 
d="M175.5 5.5q-43.5 14.5 -64.5 49t-21 95.5v114q22 6 47 6q21 0 33 -7.5t12 -21.5v-87q0 -37 7.5 -56.5t31 -29.5t72.5 -10q50 0 76.5 9t37 27.5t10.5 51.5v75q0 45 -18 64.5t-61 28.5q-67 14 -199 14l-46 -1q-16 16 -27 50.5t-11 65.5q0 63 47 101t116 38q36 0 104 -8
q60 -6 79 -6q71 0 109 27q7 -10 12 -25.5t5 -30.5q0 -27 -26 -41t-70 -14q-23 0 -52 4.5t-56 10.5q-25 5 -51 9.5t-46 4.5q-42 0 -62.5 -18t-20.5 -50q0 -33 11 -50h20q147 -3 210 -18q61 -15 93 -49.5t32 -104.5v-73q0 -62 -23.5 -96.5t-70.5 -48.5t-122 -14
q-74 0 -117.5 14.5z" />
    <glyph glyph-name="uni0E19" unicode="&#xe19;" horiz-adv-x="654" 
d="M632 107q0 -50 -34 -80.5t-85 -30.5t-83 30.5t-32 79.5q0 46 31 82q-45 -2 -89 -28.5t-71.5 -69t-27.5 -90.5h-75q-20 0 -20 20q0 11 1 20q3 51 3 73l-1 370q0 21 -10.5 34.5t-31.5 13.5t-32 -11.5t-11 -31.5q0 -21 13 -33.5t33 -12.5h23q0 -43 -43 -43q-33 0 -56.5 24
t-23.5 65q0 42 30.5 70t78.5 28q55 0 89 -30.5t34 -86.5l-1 -320q35 47 88.5 72.5t113.5 25.5q13 0 37 -2q9 17 9 38v293h91v-292q0 -33 -21 -59q73 -35 73 -118zM553.5 68.5q14.5 14.5 14.5 41.5q0 26 -16 43t-45 26q-22 -18 -33.5 -33t-11.5 -36q0 -25 14.5 -40.5
t38.5 -15.5t38.5 14.5z" />
    <glyph glyph-name="uni0E1A" unicode="&#xe1a;" horiz-adv-x="678" 
d="M261 4.5q-55 13.5 -82 45.5q-17 21 -23.5 54t-6.5 83v296q0 21 -10.5 34.5t-31.5 13.5t-32 -11.5t-11 -31.5q0 -21 13 -33.5t33 -12.5h23q0 -43 -43 -43q-33 0 -56.5 24t-23.5 65q0 42 30.5 70t78.5 28q55 0 89 -30.5t34 -86.5l-1 -289q0 -74 18 -92q32 -32 120 -32
q89 0 118 32q11 12 13.5 29.5t2.5 51.5v407h92v-386q0 -58 -6.5 -88t-25.5 -52q-29 -32 -82.5 -45.5t-111.5 -13.5q-63 0 -118 13.5z" />
    <glyph glyph-name="uni0E1B" unicode="&#xe1b;" horiz-adv-x="678" 
d="M261 4.5q-55 13.5 -82 45.5q-17 21 -23.5 54t-6.5 83v296q0 21 -10.5 34.5t-31.5 13.5t-32 -11.5t-11 -31.5q0 -21 13 -33.5t33 -12.5h23q0 -43 -43 -43q-33 0 -56.5 24t-23.5 65q0 42 30.5 70t78.5 28q55 0 89 -30.5t34 -86.5l-1 -289q0 -74 18 -92q32 -32 120 -32
q89 0 118 32q11 12 13.5 29.5t2.5 51.5v614h92v-593q0 -58 -6.5 -88t-25.5 -52q-29 -32 -82.5 -45.5t-111.5 -13.5q-63 0 -118 13.5z" />
    <glyph glyph-name="uni0E1C" unicode="&#xe1c;" horiz-adv-x="637" 
d="M563 49l1 -27q0 -13 -3.5 -17.5t-11.5 -4.5h-78v14q0 48 -43 108.5t-109 116.5q-69 -55 -115.5 -116t-46.5 -109v-14h-81q-15 0 -15 11q0 12 3 36q5 63 5 88v317q0 62 37.5 98t95.5 36q52 0 83.5 -28.5t31.5 -74.5q0 -42 -25 -64.5t-63 -22.5q-25 0 -38 10t-13 26
q0 7 3 14q25 -5 34 -5q20 0 32 11.5t12 31.5t-11.5 31.5t-34.5 11.5q-24 0 -38.5 -17t-14.5 -48l1 -301q23 39 64 80t89 78h9q46 -33 84 -73.5t61 -81.5v412h92v-444q0 -38 3 -83z" />
    <glyph glyph-name="uni0E1D" unicode="&#xe1d;" horiz-adv-x="637" 
d="M563 49l1 -27q0 -13 -3.5 -17.5t-11.5 -4.5h-78v14q0 48 -43 108.5t-109 116.5q-69 -55 -115.5 -116t-46.5 -109v-14h-81q-15 0 -15 11q0 12 3 36q5 63 5 88v317q0 62 37.5 98t95.5 36q52 0 83.5 -28.5t31.5 -74.5q0 -42 -25 -64.5t-63 -22.5q-25 0 -38 10t-13 26
q0 7 3 14q25 -5 34 -5q20 0 32 11.5t12 31.5t-11.5 31.5t-34.5 11.5q-24 0 -38.5 -17t-14.5 -48l1 -301q23 39 64 80t89 78h9q46 -33 84 -73.5t61 -81.5v619h92v-651q0 -38 3 -83z" />
    <glyph glyph-name="uni0E1E" unicode="&#xe1e;" horiz-adv-x="739" 
d="M665 14q0 -8 -3 -11t-9 -3h-82v14q0 56 -48 165.5t-110 219.5q-60 -108 -108 -219t-48 -166v-14h-85q-16 0 -12 20q1 4 3.5 21t4 54t1.5 95v293q0 21 -10.5 34.5t-31.5 13.5t-32 -11.5t-11 -31.5q0 -21 13 -33.5t33 -12.5h23q0 -43 -43 -43q-33 0 -56.5 24t-23.5 65
q0 42 30.5 70t78.5 28q55 0 89 -30.5t34 -86.5l-1 -238q46 126 145 296h14q43 -67 84 -149t65 -151v349h92v-386q0 -137 4 -170v-6z" />
    <glyph glyph-name="uni0E1F" unicode="&#xe1f;" horiz-adv-x="739" 
d="M665 14q0 -8 -3 -11t-9 -3h-82v14q0 56 -48 165.5t-110 219.5q-60 -108 -108 -219t-48 -166v-14h-85q-16 0 -12 20q1 4 3.5 21t4 54t1.5 95v293q0 21 -10.5 34.5t-31.5 13.5t-32 -11.5t-11 -31.5q0 -21 13 -33.5t33 -12.5h23q0 -43 -43 -43q-33 0 -56.5 24t-23.5 65
q0 42 30.5 70t78.5 28q55 0 89 -30.5t34 -86.5l-1 -238q46 126 145 296h14q43 -67 84 -149t65 -151v556h92v-593q0 -137 4 -170v-6z" />
    <glyph glyph-name="uni0E20" unicode="&#xe20;" horiz-adv-x="625" 
d="M487.5 535q67.5 -51 67.5 -163v-372h-92v372q0 81 -39 115t-114 34q-46 0 -83.5 -12.5t-58.5 -30.5t-21 -33q0 -13 11 -25t25 -19.5t22 -7.5q10 0 30 8q22 8 29 8q10 0 22 -19.5t12 -32.5q0 -8 -6 -8q-42 0 -63.5 -23t-21.5 -63q0 -34 9 -77q1 -5 5 -31t4 -55
q0 -50 -28.5 -79t-83.5 -29q-48 0 -75 25.5t-27 65.5q0 36 22 57t50 21q17 0 27 -9.5t10 -26.5h-17q-19 0 -30 -10.5t-11 -29.5q0 -16 11 -27.5t30 -11.5t29.5 13t10.5 33q0 19 -4.5 41.5t-9.5 43.5q-5 22 -9.5 44.5t-4.5 42.5q0 57 39 85q-37 12 -65.5 38.5t-28.5 54.5
q0 30 31.5 63.5t88.5 57t130 23.5q110 0 177.5 -51z" />
    <glyph glyph-name="uni0E21" unicode="&#xe21;" horiz-adv-x="674" 
d="M591 44l1 -24q0 -20 -15 -20h-80q-22 88 -81.5 141t-133.5 59l1 -32q2 -34 2 -48q0 -129 -110 -129q-48 0 -78 33t-30 89q0 62 36 101.5t88 46.5q-2 20 -2 46v176q0 21 -10.5 34.5t-31.5 13.5t-32 -11.5t-11 -31.5q0 -21 13 -33.5t33 -12.5h23q0 -43 -43 -43
q-33 0 -56.5 24t-23.5 65q0 42 30.5 70t78.5 28q55 0 89 -30.5t34 -86.5l-1 -206q64 -2 121.5 -33.5t92.5 -86.5v433h92v-438q0 -52 4 -94zM189 65.5q7 15.5 7 58.5q0 22 -4 76q-27 -7 -45 -28.5t-18 -58.5q0 -30 10 -46.5t27 -16.5q16 0 23 15.5z" />
    <glyph glyph-name="uni0E22" unicode="&#xe22;" horiz-adv-x="627" 
d="M551 158q-2 -33 -11 -61.5t-30 -48.5q-57 -57 -194 -57q-140 0 -197 57q-22 23 -32.5 51t-10.5 70v9q0 45 21.5 75t52.5 43q-35 15 -59 50t-24 93q0 41 19.5 75t52.5 53t73 19q53 0 81 -25t28 -66q0 -39 -22 -62.5t-61 -23.5q-26 0 -41.5 11.5t-15.5 29.5q0 5 2 13
q18 -10 42 -10q19 0 29.5 11t10.5 28q0 18 -11.5 28.5t-31.5 10.5q-31 0 -50 -23t-19 -70q0 -63 41 -91t138 -28q5 0 5 -8q0 -15 -12 -37t-23 -22q-14 0 -40 8q-3 1 -14.5 4t-22.5 3q-25 0 -41.5 -23.5t-16.5 -59.5v-13q0 -28 5.5 -46.5t18.5 -32.5q33 -34 125 -34
q89 0 123 34q14 14 18 39.5t4 70.5v52v322h92v-319q0 -66 -2 -99z" />
    <glyph glyph-name="uni0E23" unicode="&#xe23;" horiz-adv-x="518" 
d="M210.5 21q-31.5 29 -31.5 74q0 41 25.5 66.5t64.5 25.5q43 0 43 -47q-10 1 -31 1t-32.5 -12t-11.5 -33q0 -20 12 -32t33 -12q30 0 44.5 21.5t14.5 67.5v55q1 53 -18.5 79.5t-62.5 36.5q-49 12 -134 12h-49q-16 16 -27 48.5t-11 64.5q0 67 45 106t110 39q34 0 90 -8
q50 -6 71 -6q60 0 101 23q7 -6 12.5 -20.5t5.5 -30.5q0 -27 -27.5 -41.5t-68.5 -14.5q-33 0 -86 15q-58 14 -87 14q-37 0 -56 -19.5t-19 -54.5q0 -30 10 -48q7 0 59 -1t108 -15q127 -29 126 -173v-58q-1 -73 -38 -112.5t-103 -39.5q-50 0 -81.5 29z" />
    <glyph glyph-name="uni0E24" unicode="&#xe24;" horiz-adv-x="613" 
d="M452 383q0 68 -40 103t-116 35q-44 0 -81 -13.5t-58 -32.5t-21 -34q0 -19 21.5 -34.5t38.5 -15.5q10 0 33 7q18 6 25 6q9 0 21 -20.5t12 -33.5q0 -8 -6 -8q-61 0 -84 -28.5t-23 -92.5v-107q0 -32 13.5 -49t37.5 -17q23 0 34.5 12t11.5 33q0 20 -11.5 31t-32.5 11
q-5 0 -33 -5q-3 8 -3 14q0 16 13 26.5t36 10.5q39 0 62.5 -22t23.5 -65q0 -45 -31 -73t-83 -28q-58 0 -94 34t-36 93v101q0 85 48 128q-30 14 -55 38t-25 51q0 32 30.5 67t87 58t128.5 23q110 0 178.5 -52t68.5 -151v-603h-91v603z" />
    <glyph glyph-name="uni0E25" unicode="&#xe25;" horiz-adv-x="628" 
d="M546 284q-6 -62 -6 -97q0 -30 6 -100q5 -47 5 -68q0 -19 -12 -19h-86q0 156 -46.5 231.5t-126.5 75.5q-53 0 -84 -36t-31 -103q0 -62 18 -91.5t49 -29.5q20 0 30.5 11t10.5 30q0 18 -10 28.5t-29 10.5q-18 0 -39 -12q-3 6 -3 16q0 16 14.5 27.5t38.5 11.5q36 0 60 -23
t24 -59q0 -44 -27.5 -70.5t-79.5 -26.5q-65 0 -105 45.5t-40 136.5q0 63 26.5 108.5t71 69t95.5 23.5q63 0 109.5 -27.5t73.5 -73.5q6 70 5 114q-1 61 -38.5 94.5t-101.5 33.5q-56 0 -98.5 -18.5t-79.5 -52.5q-13 -10 -23 -10q-13 0 -28.5 14t-24.5 38q35 41 101.5 70.5
t153.5 29.5q106 0 169.5 -51t63.5 -141q0 -42 -6 -110z" />
    <glyph glyph-name="uni0E26" unicode="&#xe26;" horiz-adv-x="625" 
d="M463 372q0 81 -39 115t-114 34q-46 0 -83.5 -12.5t-58.5 -30.5t-21 -33q0 -13 11 -25t25 -19.5t22 -7.5q10 0 30 8q22 8 29 8q10 0 22 -19.5t12 -32.5q0 -8 -6 -8q-42 0 -63.5 -23t-21.5 -63q0 -34 9 -77q1 -5 5 -31t4 -55q0 -50 -28.5 -79t-83.5 -29q-48 0 -75 25.5
t-27 65.5q0 36 22 57t50 21q17 0 27 -9.5t10 -26.5h-17q-19 0 -30 -10.5t-11 -29.5q0 -16 11 -27.5t30 -11.5t29.5 13t10.5 33q0 19 -4.5 41.5t-9.5 43.5q-5 22 -9.5 44.5t-4.5 42.5q0 56 39 85q-37 11 -65.5 37.5t-28.5 55.5q0 30 31.5 63.5t88.5 57t130 23.5
q110 0 177.5 -51t67.5 -163v-592h-92v592z" />
    <glyph glyph-name="uni0E27" unicode="&#xe27;" horiz-adv-x="528" 
d="M231 19.5q-32 28.5 -32 72.5q0 40 26 65t62 25q23 0 36.5 -11t13.5 -27q0 -7 -1 -11q-13 4 -33 4q-21 0 -33 -11.5t-12 -31.5q0 -19 12.5 -31t33.5 -12q30 0 46 21.5t16 60.5v249q0 64 -29.5 99.5t-90.5 35.5q-49 0 -83.5 -21t-62.5 -59q-7 -7 -18 -7q-14 0 -29.5 13
t-27.5 36q30 44 89.5 75.5t136.5 31.5q94 0 149 -54t55 -152v-241q0 -68 -39 -108t-102 -40q-51 0 -83 28.5z" />
    <glyph glyph-name="uni0E28" unicode="&#xe28;" horiz-adv-x="617" 
d="M575.5 535q-24.5 -20 -60.5 -29q42 -56 42 -149v-357h-91v352q0 82 -34.5 125.5t-114.5 43.5q-78 0 -120.5 -41.5t-42.5 -124.5q0 -46 12 -89q23 51 61 81t91 30q45 0 72.5 -26t27.5 -70q0 -43 -25.5 -67.5t-68.5 -24.5q-27 0 -46.5 14.5t-19.5 35.5q0 22 17 29
q16 -32 48 -32q20 0 30 11.5t10 31.5q0 19 -12.5 30.5t-34.5 11.5q-62 0 -99 -85.5t-40 -235.5h-77q-15 0 -15 20q0 40 25 120q8 26 8 32q0 7 -13 30q-19 34 -31 68.5t-12 84.5q0 72 32.5 124t90 79.5t132.5 27.5q84 0 137 -29q29 9 52 29.5t36 44.5q25 -4 41.5 -20.5
t16.5 -32.5q0 -23 -24.5 -43z" />
    <glyph glyph-name="uni0E29" unicode="&#xe29;" horiz-adv-x="678" 
d="M605 576v-386q0 -58 -6.5 -88t-25.5 -52q-29 -32 -82.5 -45.5t-111.5 -13.5q-63 0 -118 13.5t-82 45.5q-17 21 -23.5 54t-6.5 83v296q0 21 -10.5 34.5t-31.5 13.5t-32 -11.5t-11 -31.5q0 -21 13 -33.5t33 -12.5h23q0 -43 -43 -43q-33 0 -56.5 24t-23.5 65q0 42 30.5 70
t78.5 28q55 0 89 -30.5t34 -86.5l-1 -289q0 -74 18 -92q32 -32 120 -32q89 0 118 32q11 12 13.5 29.5t2.5 51.5v55q-14 -19 -40.5 -31.5t-62.5 -12.5q-51 0 -86.5 29.5t-35.5 78.5q0 37 25.5 60.5t60.5 23.5q32 0 53.5 -18.5t21.5 -52.5q0 -22 -12 -33.5t-31 -11.5
q-10 0 -18 8q16 12 16 31q0 14 -7.5 22.5t-20.5 8.5q-15 0 -24.5 -8.5t-9.5 -24.5q0 -28 20.5 -43.5t56.5 -15.5q48 0 71 26.5t23 85.5v230h92z" />
    <glyph glyph-name="uni0E2A" unicode="&#xe2a;" horiz-adv-x="627" 
d="M581 530.5q-24 -19.5 -61 -28.5q32 -44 32 -108q0 -42 -6 -110q-6 -62 -6 -97q0 -30 6 -100q5 -47 5 -68q0 -19 -12 -19h-86q0 156 -46.5 231.5t-126.5 75.5q-53 0 -84 -36t-31 -103q0 -62 18 -91.5t49 -29.5q20 0 30.5 11t10.5 30q0 18 -10 28.5t-29 10.5q-18 0 -39 -12
q-3 6 -3 16q0 16 14.5 27.5t38.5 11.5q36 0 60 -23t24 -59q0 -44 -27.5 -70.5t-79.5 -26.5q-65 0 -105 45.5t-40 136.5q0 63 26.5 108.5t71 69t95.5 23.5q63 0 109.5 -27.5t73.5 -73.5q6 70 5 114q-1 61 -38.5 94.5t-101.5 33.5q-56 0 -98.5 -18.5t-79.5 -52.5
q-13 -10 -23 -10q-13 0 -28.5 14t-24.5 38q35 41 101.5 70.5t153.5 29.5q83 0 141 -32q29 9 51.5 29t35.5 45q26 -4 42 -20.5t16 -33.5q0 -24 -24 -43.5z" />
    <glyph glyph-name="uni0E2B" unicode="&#xe2b;" horiz-adv-x="671" 
d="M569 361q30 -33 30 -73v-288h-92v271q0 20 -2 32t-8 21q-91 -42 -144 -75.5t-82.5 -76t-29.5 -100.5v-72h-81q-15 0 -15 15l1 27q3 63 3 74v367q0 21 -10.5 34.5t-31.5 13.5t-32 -11.5t-11 -31.5q0 -21 13 -33.5t33 -12.5h23q0 -43 -43 -43q-33 0 -56.5 24t-23.5 65
q0 42 30.5 70t78.5 28q55 0 89 -30.5t34 -86.5l-1 -231q24 30 63 54t118 64q7 4 14 7.5l13 6.5q-25 24 -39.5 49t-14.5 57q0 49 33 79.5t86 30.5q51 0 84.5 -28.5t33.5 -80.5q0 -73 -63 -116zM476.5 514q-14.5 -14 -14.5 -37q0 -21 12.5 -37t40.5 -36q26 16 38 33t12 40
t-13 37t-38 14q-23 0 -37.5 -14z" />
    <glyph glyph-name="uni0E2C" unicode="&#xe2c;" horiz-adv-x="738" 
d="M714 585q14 -11 14 -26q0 -19 -11 -38q-20 -33 -53 -54v-277v-53q0 -96 4 -117q1 -4 1 -9q0 -7 -3 -9t-8 -2h-84v14q0 58 -37.5 121t-105.5 151l-12 16q-54 -67 -84 -107.5t-54 -89.5t-24 -91v-14h-87q-5 0 -8 2t-3 9q0 5 1 9q5 27 7 54.5t2 115.5v293q0 21 -10.5 34.5
t-31.5 13.5t-32 -11.5t-11 -31.5q0 -21 13 -33.5t33 -12.5h23q0 -43 -43 -43q-33 0 -56.5 24t-23.5 65q0 42 30.5 70t78.5 28q55 0 89 -30.5t34 -86.5l-1 -274q20 38 49.5 78t76.5 96l28 34h8q34 -45 37 -49q43 -57 69 -94.5t43 -72.5v246q-21 -4 -53 -4q-59 0 -96.5 25.5
t-37.5 66.5q0 38 35 63.5t86 25.5q41 0 77 -18t57 -48q22 27 38 57q22 -5 36 -16zM572 492q-3 29 -22 45.5t-48 16.5q-22 0 -38 -9t-16 -25q0 -18 18 -28t52 -10q26 0 54 10z" />
    <glyph glyph-name="uni0E2D" unicode="&#xe2d;" horiz-adv-x="618" 
d="M132 43.5q-55 52.5 -55 161.5q0 50 20 85t52.5 53t70.5 18q49 0 74.5 -25.5t25.5 -70.5q0 -39 -23 -62t-57 -23q-25 0 -40 14t-15 39q23 -7 36 -7q19 0 30.5 11t11.5 30q0 36 -37 36q-29 0 -45 -24.5t-16 -68.5q0 -83 33 -117t111 -34q55 0 85 19.5t43 64.5t13 124v40
q0 84 -18 129.5t-51 62t-87 16.5q-43 0 -83 -20t-72 -49q-10 -8 -16.5 -11t-15.5 -3q-12 0 -25 15.5t-25 39.5q36 40 100 69.5t140 29.5q82 0 136 -24.5t83 -86t29 -168.5v-40q0 -99 -22.5 -159t-74 -88.5t-139.5 -28.5q-122 0 -177 52.5z" />
    <glyph glyph-name="uni0E2E" unicode="&#xe2e;" horiz-adv-x="618" 
d="M563.5 512.5q-16.5 -26.5 -46.5 -50.5q32 -64 32 -152v-46q0 -139 -54.5 -206t-182.5 -67q-234 0 -234 197q0 48 20 82.5t52.5 51.5t68.5 17q50 0 76 -24.5t26 -69.5q0 -40 -22 -61.5t-58 -21.5q-27 0 -41 11t-14 27q0 7 3 14q15 -6 34 -6t29.5 10t10.5 29q0 35 -39 35
q-28 0 -43 -24t-15 -68q0 -69 34 -100t112 -31q79 0 110.5 48t31.5 157v46q0 61 -13 105q-76 -33 -166 -33q-98 0 -151 26.5t-53 74.5q0 45 54.5 74t149.5 29q119 0 190 -58q29 36 49 81q66 -3 66 -49q0 -21 -16.5 -47.5zM407 477q-23 24 -55.5 33.5t-76.5 9.5
q-53 0 -85 -9.5t-32 -27.5q0 -20 31 -29.5t86 -9.5q77 0 132 33z" />
    <glyph glyph-name="uni0E2F" unicode="&#xe2f;" horiz-adv-x="471" 
d="M391 561q0 -6 -1 -22t-1 -34v-505h-81l1 422q-46 -62 -134 -62q-62 0 -101 33t-39 89q0 44 28 72t71 28q41 0 63.5 -21t22.5 -59q0 -26 -15 -41.5t-36 -15.5q-16 0 -23 9q27 17 27 43q0 16 -10 25.5t-27 9.5t-28 -12.5t-11 -32.5q0 -30 22.5 -49t63.5 -19q56 0 89 36
t37 104l1 17h67q14 0 14 -15z" />
    <glyph glyph-name="uni0E30" unicode="&#xe30;" horiz-adv-x="455" 
d="M83.5 380q-43.5 31 -43.5 81q0 42 27 65t64 23q36 0 57.5 -19t21.5 -54q0 -21 -12.5 -33.5t-29.5 -12.5q-6 0 -12 2t-9 5q15 13 15 33q0 14 -7.5 21.5t-21.5 7.5t-22.5 -8.5t-8.5 -24.5q0 -26 23.5 -41.5t67.5 -15.5q52 0 83 24.5t47 73.5q5 13 10 18t13 5q13 0 29.5 -5
t27.5 -11q-12 -78 -70.5 -121.5t-135.5 -43.5q-70 0 -113.5 31zM83.5 68.5q-43.5 30.5 -43.5 80.5q0 42 27 65.5t64 23.5q36 0 57.5 -19t21.5 -54q0 -21 -12.5 -34t-29.5 -13q-7 0 -13 2.5t-8 5.5q6 5 10.5 14t4.5 19q0 13 -8 21t-21 8q-14 0 -22.5 -9t-8.5 -24
q0 -26 23.5 -41.5t67.5 -15.5q52 0 83 24.5t47 73.5q5 12 10 17.5t13 5.5q13 0 29.5 -5t27.5 -11q-12 -78 -70.5 -121.5t-135.5 -43.5q-70 0 -113.5 30.5z" />
    <glyph glyph-name="uni0E31" unicode="&#xe31;" 
d="M-327 660.5q-47 30.5 -47 81.5q0 42 27 67t67 25q39 0 63.5 -21.5t24.5 -56.5q0 -25 -13 -39t-33 -14q-13 0 -20 5q8 7 12.5 17.5t4.5 20.5q0 17 -9.5 26.5t-27.5 9.5q-19 0 -29 -10.5t-10 -28.5q0 -29 31 -43.5t85 -14.5q85 0 135 39t62 105q33 0 52 -12.5t19 -39.5
q0 -41 -34 -74.5t-93.5 -53t-134.5 -19.5q-85 0 -132 30.5z" />
    <glyph glyph-name="uni0E32" unicode="&#xe32;" horiz-adv-x="469" 
d="M314 7.5q-6 7.5 -6 24.5v383q0 49 -26 75t-72 26q-33 0 -57 -11t-53 -34q-4 -4 -13 -11.5t-15 -10t-14 -2.5q-20 0 -47 53q93 86 198 86q89 0 139.5 -44.5t50.5 -123.5v-418h-62q-17 0 -23 7.5z" />
    <glyph glyph-name="uni0E33" unicode="&#xe33;" horiz-adv-x="469" 
d="M314 7.5q-6 7.5 -6 24.5v383q0 49 -26 75t-72 26q-33 0 -57 -11t-53 -34q-4 -4 -13 -11.5t-15 -10t-14 -2.5q-20 0 -47 53q93 86 198 86q89 0 139.5 -44.5t50.5 -123.5v-418h-62q-17 0 -23 7.5zM-211 678.5q-32 31.5 -32 80.5t32 80.5t82 31.5t82 -31.5t32 -80.5
t-32 -80.5t-82 -31.5t-82 31.5zM-91.5 719.5q14.5 14.5 14.5 39.5t-14.5 39.5t-37.5 14.5q-24 0 -38.5 -14.5t-14.5 -39.5t14.5 -39.5t38.5 -14.5q23 0 37.5 14.5z" />
    <glyph glyph-name="uni0E34" unicode="&#xe34;" 
d="M-303.5 656q-109.5 4 -241.5 4q-6 0 -8 2t-2 7q0 46 27 90.5t79 72.5t123 28q72 0 130 -28t91 -76t33 -105v-13q-122 14 -231.5 18zM-212 771.5q-47 29.5 -114 29.5q-61 0 -98 -25.5t-47 -62.5q178 0 315 -17q-9 46 -56 75.5z" />
    <glyph glyph-name="uni0E35" unicode="&#xe35;" 
d="M-73 883v-245q-122 14 -231 18t-241 4q-6 0 -8 2t-2 7q0 46 27 90t79 72t123 28q96 0 168 -53v77h85zM-156 695q-9 47 -56.5 77.5t-113.5 30.5q-63 0 -99.5 -25.5t-46.5 -64.5q180 0 316 -18z" />
    <glyph glyph-name="uni0E36" unicode="&#xe36;" 
d="M-55 761.5q-15 -20.5 -39 -28.5q20 -38 20 -82v-13q-122 14 -231.5 18t-241.5 4q-6 0 -8 2t-2 7q0 46 27 90.5t79 72.5t123 28q64 0 116 -22q8 26 31 42t53 16q41 0 64.5 -23t23.5 -64q0 -27 -15 -47.5zM-100 782q10 11 10 28q0 16 -10 27.5t-28 11.5t-28 -11.5
t-10 -27.5q0 -17 9.5 -28t28.5 -11q18 0 28 11zM-161 696q-9 45 -55.5 75t-111.5 30q-59 0 -95.5 -25.5t-46.5 -62.5q180 0 309 -17z" />
    <glyph glyph-name="uni0E37" unicode="&#xe37;" 
d="M-74 890v-252q-122 14 -231 18t-241 4q-6 0 -8 2t-2 7q0 46 27 90t79 72t123 28q35 0 64 -7v38h72v-65q26 -14 45 -31v96h72zM-160 695q-9 45 -57.5 75t-109.5 30q-59 0 -95.5 -25.5t-46.5 -61.5q173 0 309 -18z" />
    <glyph glyph-name="uni0E38" unicode="&#xe38;" 
d="M-153 -262q0 33 4 67q2 24 2 33q0 16 -8.5 25t-23.5 9t-24.5 -8.5t-9.5 -22.5q0 -15 8.5 -23t22.5 -8q15 0 23 5q0 -19 -11 -30.5t-32 -11.5q-27 0 -45.5 18t-18.5 53t26.5 59t69.5 24q45 0 70.5 -25t25.5 -67q0 -29 -1 -43l-1 -51v-28q0 -20 -8 -29.5t-25 -9.5h-44v64z
" />
    <glyph glyph-name="uni0E39" unicode="&#xe39;" 
d="M-285 -299.5q-31 20.5 -31 53.5q0 28 8 58q1 5 3 15.5t2 20.5q0 30 -26 30q-28 0 -28 -28q0 -13 9.5 -20.5t26.5 -7.5q-2 -9 -10 -16t-22 -7q-22 0 -37 14.5t-15 40.5q0 31 24 51t61 20q41 0 64 -20t23 -52q0 -19 -3 -37q0 -7 -1.5 -21.5t-1.5 -27.5q0 -16 9.5 -24
t33.5 -8q45 0 45 34v151h78v-156q0 -84 -125 -84q-56 0 -87 20.5z" />
    <glyph glyph-name="uni0E3A" unicode="&#xe3a;" 
d="M-166.5 -178.5q-19.5 18.5 -19.5 45.5t19.5 45t47.5 18q27 0 46.5 -18t19.5 -45t-19.5 -45.5t-46.5 -18.5q-28 0 -47.5 18.5z" />
    <glyph glyph-name="uni0E3F" unicode="&#xe3f;" horiz-adv-x="615" 
d="M517 54q-62 -51 -176 -54v-120h-62v120h-196v700h196v109h62v-110q96 -5 151 -54.5t55 -131.5q0 -53 -25 -93.5t-67 -57.5q55 -15 89.5 -60.5t34.5 -104.5q0 -92 -62 -143zM279 625h-97v-232h97v232zM419.5 587q-27.5 28 -78.5 36v-228q53 8 79.5 37t26.5 81
q0 46 -27.5 74zM279 75v245h-97v-245h97zM447.5 108q31.5 28 31.5 89q0 59 -32.5 88.5t-105.5 33.5v-243q75 4 106.5 32z" />
    <glyph glyph-name="uni0E40" unicode="&#xe40;" horiz-adv-x="328" 
d="M111 26q-34 32 -34 93v433q0 24 19 24h73v-465q0 -27 11.5 -42t33.5 -15q19 0 30.5 12t11.5 31t-11 29.5t-30 10.5t-31 -5v7q0 19 11.5 31.5t34.5 12.5q37 0 59.5 -23t22.5 -65q0 -45 -29 -73t-81 -28q-57 0 -91 32z" />
    <glyph glyph-name="uni0E41" unicode="&#xe41;" horiz-adv-x="611" 
d="M111 26q-34 32 -34 93v433q0 24 19 24h73v-465q0 -27 11.5 -42t33.5 -15q19 0 30.5 12t11.5 31t-11 29.5t-30 10.5t-31 -5v7q0 19 11.5 31.5t34.5 12.5q37 0 59.5 -23t22.5 -65q0 -45 -29 -73t-81 -28q-57 0 -91 32zM394 26q-34 32 -34 93v433q0 24 19 24h73v-465
q0 -27 11.5 -42t33.5 -15q19 0 30.5 12t11.5 31t-11 29.5t-30 10.5t-31 -5v7q0 19 11.5 31.5t34.5 12.5q37 0 59.5 -23t22.5 -65q0 -45 -29 -73t-81 -28q-57 0 -91 32z" />
    <glyph glyph-name="uni0E42" unicode="&#xe42;" horiz-adv-x="353" 
d="M138.5 28q-34.5 34 -34.5 94v548q0 44 -15.5 65t-37 26.5t-59.5 9.5q-12 12 -20 34t-8 47q0 57 38 89.5t92 32.5q25 0 77 -6t73 -6q55 0 86 19q16 -26 16 -52q0 -19 -24.5 -31t-66.5 -12q-33 0 -89 12q-43 9 -63 9q-28 0 -44.5 -13t-16.5 -38q0 -20 7 -30
q54 -6 100.5 -40t46.5 -116v-557q0 -27 11.5 -42t33.5 -15q19 0 30.5 12t11.5 31t-11 29.5t-30 10.5t-32 -5v7q0 18 12 30.5t34 12.5q37 0 61 -22.5t24 -64.5q0 -46 -29 -74.5t-82 -28.5q-57 0 -91.5 34z" />
    <glyph glyph-name="uni0E43" unicode="&#xe43;" horiz-adv-x="361" 
d="M141.5 28q-34.5 34 -34.5 94v357q0 64 20 106.5t58 90.5q30 39 44.5 67t14.5 65q0 46 -26.5 73t-79.5 27q-44 0 -71 -22t-27 -59q0 -28 13 -42t36 -14q22 0 32.5 12.5t10.5 33.5q0 33 -28 49q10 10 24 10q24 0 40.5 -19t16.5 -48q0 -41 -29.5 -69.5t-73.5 -28.5
q-50 1 -82 30.5t-32 83.5q0 39 22 72.5t62 53.5t90 20q55 0 97 -21t64.5 -57t22.5 -82q0 -44 -15 -77t-46 -79q-33 -50 -49.5 -88.5t-16.5 -90.5v-363q0 -27 11.5 -42t33.5 -15q19 0 30.5 12t11.5 31t-11 29.5t-30 10.5t-31 -5v7q0 19 11.5 31t34.5 12q37 0 60.5 -22.5
t23.5 -64.5q0 -46 -29 -74.5t-82 -28.5q-57 0 -91.5 34z" />
    <glyph glyph-name="uni0E44" unicode="&#xe44;" horiz-adv-x="356" 
d="M320.5 161.5q23.5 -22.5 23.5 -64.5q0 -46 -29 -74.5t-82 -28.5q-57 0 -91.5 34t-34.5 94v482q0 93 26 151t74 107q-36 -11 -80 -11q-64 0 -107.5 20t-43.5 56q0 18 11 30.5t28 14.5q20 -23 51 -35t82 -12q46 0 73.5 8.5t52.5 22.5q17 10 24 10q13 0 22 -14l22 -38
q-52 -48 -79 -80t-45.5 -86t-18.5 -137v-498q0 -27 11.5 -42t33.5 -15q19 0 30.5 12t11.5 31t-11 29.5t-30 10.5t-31 -5v7q0 19 11.5 31t34.5 12q37 0 60.5 -22.5z" />
    <glyph glyph-name="uni0E45" unicode="&#xe45;" horiz-adv-x="469" 
d="M308 408q0 54 -25.5 81t-73.5 27q-35 0 -60.5 -11t-53.5 -36q-20 -20 -33 -27q-11 -5 -26.5 8.5t-27.5 39.5q32 39 85.5 67.5t117.5 28.5q88 0 138 -45t50 -127v-634h-91v628z" />
    <glyph glyph-name="uni0E46" unicode="&#xe46;" horiz-adv-x="512" 
d="M353 441q0 69 -45 69q-20 0 -36 -11.5t-34 -34.5h-5q-17 25 -33 37t-39 12q-59 0 -59 -99q0 -45 16 -70t45 -25q19 0 30 11t11 29t-10.5 28.5t-28.5 10.5q-20 0 -35 -5l-1 8q0 17 15.5 29.5t39.5 12.5q33 0 55.5 -23t22.5 -61q0 -44 -28.5 -70t-80.5 -26q-58 0 -93 39
t-35 112q0 72 33 117t95 45q29 0 48.5 -12t36.5 -34q15 22 36 34t56 12q48 0 80 -30.5t32 -86.5v-659h-89v641z" />
    <glyph glyph-name="uni0E47" unicode="&#xe47;" 
d="M-489 676q-30 34 -30 91q0 70 43 102.5t113 32.5q17 0 57 -2l54 -1q39 0 59.5 12t27.5 48q29 0 44.5 -12t15.5 -34q0 -32 -31 -52t-85 -20l-65 2l-65 1q-47 0 -69.5 -19t-22.5 -58q0 -67 52 -67q22 0 37 12t32 39q19 -32 41.5 -46.5t55.5 -14.5q29 0 45 14t16 38
q0 17 -8.5 26.5t-24.5 9.5t-24.5 -8t-8.5 -22q0 -20 18 -31q-9 -12 -23 -12t-24.5 13.5t-10.5 31.5q0 28 20.5 47.5t52.5 19.5q36 0 58.5 -22t22.5 -56q0 -42 -31 -69.5t-78 -27.5q-67 0 -98 38q-28 -38 -86 -38q-50 0 -80 34z" />
    <glyph glyph-name="uni0E48" unicode="&#xe48;" 
d="M-162.5 735.5q-3.5 39.5 -3.5 70.5v58h90v-58q0 -42 -11 -138h-67q-5 28 -8.5 67.5z" />
    <glyph glyph-name="uni0E49" unicode="&#xe49;" 
d="M-29 864.5q20 -11.5 20 -41.5q0 -52 -36.5 -91t-94.5 -59.5t-121 -20.5q-110 0 -110 31q0 13 4 25q12 -3 30 -3q39 0 62 25t23 67q0 18 -9 28t-25 10q-15 0 -23.5 -8t-8.5 -23q0 -32 40 -32q0 -13 -8 -20.5t-22 -7.5q-25 0 -41 16.5t-16 45.5q0 32 24 53t56 21
q37 0 62 -22t25 -60q0 -32 -13.5 -58t-36.5 -41q71 5 115.5 47.5t47.5 129.5q36 0 56 -11.5z" />
    <glyph glyph-name="uni0E4A" unicode="&#xe4a;" 
d="M-3 841q0 -80 -44 -130.5t-124 -50.5q-13 0 -27.5 1.5t-20.5 3.5q10 20 16.5 47t6.5 52q0 32 -11.5 47t-35.5 15q-29 0 -55 -33q-14 17 -28 25.5t-33 8.5q-27 0 -43 -17.5t-16 -51.5q0 -26 11 -41t29 -15q16 0 24.5 8t8.5 23q0 31 -29 31q-8 0 -17 -3q-3 5 -3 10
q0 9 9.5 15t25.5 6q28 0 44.5 -17.5t16.5 -48.5q0 -32 -23 -52t-61 -20q-44 0 -72.5 28.5t-28.5 77.5q0 55 33 87t78 32q48 0 74 -33q10 14 27.5 23t40.5 9q43 0 71 -27.5t28 -74.5q0 -33 -7 -57q30 15 44.5 52.5t14.5 103.5h36q40 0 40 -34z" />
    <glyph glyph-name="uni0E4B" unicode="&#xe4b;" 
d="M-161 748h-95v62h95v80h84v-80h95v-62h-95v-80h-84v80z" />
    <glyph glyph-name="uni0E4C" unicode="&#xe4c;" 
d="M-243.5 670q-25.5 23 -25.5 60q0 35 21 59t58 41q48 22 68.5 40t20.5 52h36q17 0 28 -7.5t11 -21.5q0 -24 -15 -41t-37.5 -29t-65.5 -29q-4 -1 -20 -8q-48 -20 -48 -54q0 -18 10.5 -29t28.5 -11t28 10.5t10 27.5q0 11 -5 18.5t-17 14.5q13 13 27 13q19 0 31.5 -14
t12.5 -37q0 -34 -24.5 -56t-65.5 -22q-42 0 -67.5 23z" />
    <glyph glyph-name="uni0E4D" unicode="&#xe4d;" 
d="M-211 678.5q-32 31.5 -32 80.5t32 80.5t82 31.5t82 -31.5t32 -80.5t-32 -80.5t-82 -31.5t-82 31.5zM-91.5 719.5q14.5 14.5 14.5 39.5t-14.5 39.5t-37.5 14.5q-24 0 -38.5 -14.5t-14.5 -39.5t14.5 -39.5t38.5 -14.5q23 0 37.5 14.5z" />
    <glyph glyph-name="uni0E4E" unicode="&#xe4e;" 
d="M-35 950q21 -9 21 -25q0 -9 -4 -20.5t-11 -16.5q-30 11 -64 11q-31 0 -51.5 -7t-20.5 -22q0 -13 17 -19t59 -6q6 0 6 -10q0 -12 -8 -26t-19 -14l-31 1q-30 0 -53 -18t-23 -50q0 -18 10 -27.5t27 -9.5q15 0 24.5 9.5t9.5 23.5q0 25 -28 33q2 7 9 11.5t17 4.5
q19 0 33 -14.5t14 -37.5q0 -33 -23 -53.5t-62 -20.5t-63.5 20.5t-24.5 57.5q0 38 22 63t54 35q-14 7 -22 19t-8 26q0 43 40 67t97 24q35 0 56 -9z" />
    <glyph glyph-name="uni0E4F" unicode="&#xe4f;" horiz-adv-x="700" 
d="M209.5 69q-63.5 36 -100 98.5t-36.5 136.5q0 75 36.5 138t100 99.5t140.5 36.5t140.5 -36.5t100 -99.5t36.5 -138q0 -74 -36.5 -136.5t-100 -98.5t-140.5 -36t-140.5 36zM451.5 130.5q45.5 26.5 72 72.5t26.5 101q0 56 -26.5 102.5t-72 73.5t-101.5 27t-101.5 -27
t-72 -73.5t-26.5 -102.5q0 -55 26.5 -101t72 -72.5t101.5 -26.5t101.5 26.5zM263.5 220.5q-35.5 35.5 -35.5 87.5t35.5 87.5t87.5 35.5t88 -35.5t36 -87.5t-36 -87.5t-88 -35.5t-87.5 35.5zM395.5 263q18.5 19 18.5 45t-18.5 45t-44.5 19t-44 -19t-18 -45t18 -45t44 -19
t44.5 19z" />
    <glyph glyph-name="uni0E50" unicode="&#xe50;" horiz-adv-x="606" 
d="M170 16.5q-58 28.5 -90.5 83t-32.5 130.5t32.5 130.5t90 83t133.5 28.5t133.5 -28.5t90 -83t32.5 -130.5t-32.5 -130.5t-90.5 -83t-133 -28.5t-133 28.5zM419.5 98q44.5 41 44.5 132t-44.5 132t-116.5 41t-116.5 -41t-44.5 -132t44.5 -132t116.5 -41t116.5 41z" />
    <glyph glyph-name="uni0E51" unicode="&#xe51;" horiz-adv-x="606" 
d="M213 3q115 4 185.5 57.5t70.5 163.5q0 87 -45.5 131t-126.5 44q-76 0 -120 -43t-44 -112q0 -63 30.5 -95.5t77.5 -32.5q36 0 57.5 17t21.5 48q0 38 -36 38q-17 0 -27.5 -9.5t-10.5 -26.5q0 -12 4.5 -22.5t11.5 -16.5q-5 -5 -19 -5q-19 0 -31.5 14.5t-12.5 38.5
q0 34 23.5 55.5t62.5 21.5q43 0 67.5 -24t24.5 -65q0 -52 -39 -87t-107 -35q-78 0 -131 49t-53 144q0 60 31.5 110t88.5 79.5t131 29.5q79 0 138 -30t91 -85.5t32 -128.5q0 -82 -38.5 -147.5t-103 -102.5t-141.5 -37q-60 0 -63 64z" />
    <glyph glyph-name="uni0E52" unicode="&#xe52;" horiz-adv-x="653" 
d="M567.5 449q33.5 -32 33.5 -88v-202q0 -88 -68.5 -128t-212.5 -40q-263 0 -263 175v273q0 44 -11 67t-42 42q23 31 62 31q38 0 57.5 -37t19.5 -103v-257q0 -49 15.5 -75.5t53 -38.5t108.5 -12q104 0 149 25t45 88v177q0 72 -46 72q-38 0 -69 -40h-4q-17 22 -33 33t-39 11
q-29 0 -46.5 -23t-17.5 -70q0 -94 62 -94q21 0 32 11.5t11 29.5t-10 28t-28 10q-12 0 -20 -4t-17 -11q-7 7 -7 18q0 18 15.5 30t44.5 12q33 0 56.5 -22.5t23.5 -61.5q0 -44 -29.5 -70t-81.5 -26q-54 0 -90.5 38.5t-36.5 108.5q0 68 33.5 112t97.5 44q50 0 83 -41
q17 21 36 30.5t53 9.5q47 0 80.5 -32z" />
    <glyph glyph-name="uni0E53" unicode="&#xe53;" horiz-adv-x="666" 
d="M555 433.5q37 -47.5 37 -142.5v-291h-88v291q0 68 -15 96.5t-51 28.5q-72 0 -72 -109v-248h-80v248q0 58 -16 83.5t-59 25.5q-83 0 -83 -149v-89q0 -68 17 -101.5t48 -33.5q18 0 28 10.5t10 26.5t-8.5 26t-24.5 10q-17 0 -39 -10q-6 8 -6 18q0 17 14 27.5t40 10.5
q34 0 56 -21.5t22 -58.5q0 -40 -26.5 -66t-75.5 -26q-60 0 -99 48t-39 138v84q0 108 44 164.5t119 56.5q45 0 75 -20t43 -48q13 29 42 48.5t79 19.5q71 0 108 -47.5z" />
    <glyph glyph-name="uni0E54" unicode="&#xe54;" horiz-adv-x="613" 
d="M561.5 68.5q17.5 -9.5 17.5 -30.5q0 -17 -9 -42q-35 11 -63 16t-70 5q-28 0 -84 -10q-25 -5 -53.5 -9t-57.5 -4q-87 0 -143 57t-56 179q0 135 63.5 191.5t178.5 56.5q22 0 40.5 -1t30.5 -2l46 -2q49 0 71.5 17.5t29.5 68.5q30 0 47 -13.5t17 -36.5q0 -50 -41.5 -76
t-112.5 -26q-15 0 -34 1t-36 2q-28 3 -48 3q-81 3 -121 -36.5t-40 -136.5q0 -107 36.5 -144t93.5 -37q30 0 76 11q-30 18 -51 52t-21 79q0 48 33 77.5t78 29.5q43 0 70 -23.5t27 -61.5q0 -37 -20.5 -57t-48.5 -20q-17 0 -27.5 8.5t-13.5 21.5q29 0 43.5 9.5t14.5 32.5
q0 18 -11.5 28t-31.5 10q-21 0 -34.5 -14.5t-13.5 -39.5q0 -61 47 -92.5t125 -31.5q39 0 56.5 -9.5z" />
    <glyph glyph-name="uni0E55" unicode="&#xe55;" horiz-adv-x="613" 
d="M561.5 68.5q17.5 -9.5 17.5 -30.5q0 -17 -9 -42q-35 11 -63 16t-70 5q-28 0 -84 -10q-25 -5 -53.5 -9t-57.5 -4q-87 0 -143 57t-56 179q0 69 26 111t69 63.5t107 35.5q-16 27 -16 57q0 38 28 63t71 25q42 0 70 -23t28 -58q0 -47 -32 -74h5q53 0 82 38.5t30 103.5
q37 0 53.5 -13t16.5 -40q0 -36 -21 -69t-63 -54.5t-100 -21.5q-60 0 -102 22q-80 -17 -120.5 -50.5t-40.5 -105.5q0 -105 37 -143t93 -38q30 0 76 11q-30 18 -51 51.5t-21 78.5q0 48 33 78t78 30q43 0 70 -23.5t27 -61.5t-20.5 -58t-48.5 -20q-17 0 -27.5 8.5t-13.5 21.5
q29 0 43.5 9.5t14.5 32.5q0 18 -11.5 28.5t-31.5 10.5q-21 0 -34.5 -14.5t-13.5 -40.5q0 -61 47 -92t125 -31q39 0 56.5 -9.5zM299.5 525q-10.5 -10 -10.5 -28q0 -28 19 -44q30 7 42 18t12 30q0 14 -9.5 24t-24.5 10q-18 0 -28.5 -10z" />
    <glyph glyph-name="uni0E56" unicode="&#xe56;" horiz-adv-x="588" 
d="M487.5 401.5q56.5 -60.5 56.5 -177.5q0 -109 -64.5 -170t-171.5 -61q-88 0 -137 38.5t-49 98.5q0 46 29.5 74t72.5 28q42 0 67.5 -24t25.5 -61q0 -29 -14 -45.5t-32 -16.5t-27 9q23 20 23 44q0 22 -11 33t-30 11t-31 -11.5t-12 -34.5q0 -39 32.5 -60.5t89.5 -21.5
q67 0 107 41t40 129q0 90 -35 132t-105 42q-94 0 -130 -68h-61q-2 71 -29 117.5t-82 93.5q8 17 22.5 27t32.5 10q30 0 55 -26t41 -65t20 -77q50 52 143 52q107 0 163.5 -60.5z" />
    <glyph glyph-name="uni0E57" unicode="&#xe57;" horiz-adv-x="727" 
d="M614.5 530.5q28.5 -28.5 45.5 -83.5t17 -131q0 -131 -61.5 -209.5t-150.5 -111.5l-59 19q9 29 15.5 86.5t6.5 122.5q0 91 -16 132t-50 41q-25 0 -45.5 -17.5t-31.5 -49.5h-6q-25 67 -77 67q-36 0 -55 -40.5t-19 -123.5q0 -186 85 -186q20 0 31 11t11 30q0 16 -11 26.5
t-29 10.5q-22 0 -42 -14q-5 8 -5 17q0 17 14.5 29.5t41.5 12.5q38 0 61.5 -20.5t23.5 -61.5q0 -43 -28.5 -69.5t-77.5 -26.5q-71 0 -115.5 57t-44.5 184q0 73 21 125t56.5 78.5t76.5 26.5q30 0 53 -14.5t33 -39.5q12 25 36.5 39t58.5 14q68 0 101.5 -58.5t33.5 -179.5
q0 -85 -16 -139q45 30 71.5 88.5t26.5 143.5q0 70 -27 127t-69 86q6 13 19.5 21.5t34.5 8.5q33 0 61.5 -28.5z" />
    <glyph glyph-name="uni0E58" unicode="&#xe58;" horiz-adv-x="625" 
d="M555.5 240.5q29.5 -30.5 29.5 -89.5q0 -72 -43.5 -114.5t-107.5 -42.5q-33 0 -56 8t-44 20q-15 10 -22 10q-4 0 -21 -11t-38 -19t-51 -8q-159 0 -159 226q0 128 62 184.5t158 56.5l81 -1q27 -1 77 -1q92 0 97 118q34 0 53 -13t19 -39q0 -58 -42.5 -95.5t-115.5 -37.5
q-25 0 -83 2t-80 2q-60 0 -97.5 -39t-37.5 -127q0 -93 23 -131t72 -38q24 0 46 11q-28 31 -28 77q0 13 22 27t37 14q8 0 8 -10q0 -59 31 -90.5t80 -31.5q45 0 68.5 25t23.5 72q0 65 -45 65q-18 0 -28 -9t-10 -25q0 -17 10 -27.5t27 -10.5q13 0 24 4q0 -16 -11.5 -27.5
t-34.5 -11.5q-29 0 -50 20t-21 54q0 39 26 61.5t70 22.5q52 0 81.5 -30.5z" />
    <glyph glyph-name="uni0E59" unicode="&#xe59;" horiz-adv-x="607" 
d="M401 282l130 -282h-85l-121 268q-32 71 -52.5 99.5t-48.5 28.5q-48 0 -71 -45t-23 -138q0 -87 20.5 -125.5t58.5 -38.5q19 0 30.5 11t11.5 30q0 17 -10.5 28.5t-28.5 11.5q-12 0 -24 -4t-20 -9q-4 8 -4 14q0 19 18 31.5t42 12.5q35 0 59 -22t24 -63q0 -43 -30.5 -70.5
t-79.5 -27.5q-71 0 -112.5 58.5t-41.5 161.5q0 119 45.5 183.5t132.5 64.5q62 0 105 -46q12 23 32.5 35.5t47.5 12.5q51 0 75 -33q10 30 10 69q0 40 -19 68q18 11 44 11q23 0 37.5 -16.5t14.5 -53.5q0 -45 -13.5 -83.5t-33 -61.5t-35.5 -23q-18 0 -24 3t-9 14
q-7 23 -19 34.5t-33 11.5q-26 0 -43 -32q17 -31 43 -88z" />
    <glyph glyph-name="uni0E5A" unicode="&#xe5a;" horiz-adv-x="612" 
d="M384 561q0 -6 -1 -22t-1 -34v-505h-81l1 416q-43 -56 -127 -56q-62 0 -101 33t-39 89q0 44 28 72t71 28q41 0 63.5 -21t22.5 -59q0 -26 -15 -41.5t-36 -15.5q-16 0 -23 9q27 17 27 43q0 16 -10 25.5t-27 9.5t-28 -12.5t-11 -32.5q0 -30 22.5 -49t63.5 -19q54 0 85 33.5
t34 96.5l1 27h67q14 0 14 -15zM533 568q3 -8 3 -34v-534h-77l-3 576h58q16 0 19 -8z" />
    <glyph glyph-name="uni0E5B" unicode="&#xe5b;" horiz-adv-x="1152" 
d="M933 389q38 -46 58.5 -65t47.5 -28t76 -9v-9q-9 -12 -27.5 -21t-41.5 -9q-73 0 -122 71q-7 -38 -26.5 -78.5t-39.5 -63.5h-26q-25 98 -69 166q-4 -46 -22 -99.5t-43 -93.5h-29q-10 55 -28.5 108t-36.5 82q-4 -156 -78.5 -239t-199.5 -83q-75 0 -129.5 32.5t-84 93
t-29.5 141.5q0 126 57 195.5t158 69.5q83 0 132.5 -51t49.5 -160q0 -72 -39.5 -111.5t-97.5 -39.5q-43 0 -73 27t-30 69q0 43 24 66t62 23q29 0 44 -14.5t15 -37.5q-18 9 -42 9q-21 0 -32.5 -11.5t-11.5 -30.5q0 -18 11 -30t31 -12q30 0 48.5 21.5t18.5 71.5
q0 78 -27.5 111.5t-76.5 33.5q-65 0 -99.5 -53.5t-34.5 -153.5q0 -87 44 -139t119 -52q62 0 110.5 35t75.5 100.5t27 152.5q0 57 -6 82h39q43 -31 74.5 -79t42.5 -106q25 84 25 164h31q39 -32 62.5 -70.5t40.5 -91.5q13 27 21.5 69t8.5 73h27q10 -11 21 -26z" />
    <glyph glyph-name="uni1E0C" unicode="&#x1e0c;" horiz-adv-x="672" 
d="M539 608.5q86 -91.5 86 -258.5q0 -107 -40 -186t-114 -121.5t-175 -42.5h-217v700h217q157 0 243 -91.5zM464 145.5q60 70.5 60 203.5q0 139 -58 207.5t-176 68.5h-111v-550h111q114 0 174 70.5zM275 -140v11q0 56 56 56h10q56 0 56 -56v-11q0 -56 -56 -56h-10
q-56 0 -56 56z" />
    <glyph glyph-name="uni1E0D" unicode="&#x1e0d;" horiz-adv-x="598" 
d="M537 14q-36 -19 -70 -19q-33 0 -42 68q-30 -38 -68 -55.5t-91 -17.5q-107 0 -168 75t-61 208q0 134 67 210.5t185 76.5q34 0 71.5 -11.5t61.5 -28.5v271h95v-637q0 -96 20 -140zM359 79.5q35 20.5 63 63.5v300q-21 22 -56.5 36t-71.5 14q-78 0 -119.5 -56.5t-41.5 -163.5
q0 -106 37 -160t108 -54q46 0 81 20.5zM238 -140v11q0 56 56 56h10q56 0 56 -56v-11q0 -56 -56 -56h-10q-56 0 -56 56z" />
    <glyph glyph-name="uni1E0E" unicode="&#x1e0e;" horiz-adv-x="672" 
d="M539 608.5q86 -91.5 86 -258.5q0 -107 -40 -186t-114 -121.5t-175 -42.5h-217v700h217q157 0 243 -91.5zM464 145.5q60 70.5 60 203.5q0 139 -58 207.5t-176 68.5h-111v-550h111q114 0 174 70.5zM173 -70h326v-73h-326v73z" />
    <glyph glyph-name="uni1E0F" unicode="&#x1e0f;" horiz-adv-x="598" 
d="M537 14q-36 -19 -70 -19q-33 0 -42 68q-30 -38 -68 -55.5t-91 -17.5q-107 0 -168 75t-61 208q0 134 67 210.5t185 76.5q34 0 71.5 -11.5t61.5 -28.5v271h95v-637q0 -96 20 -140zM359 79.5q35 20.5 63 63.5v300q-21 22 -56.5 36t-71.5 14q-78 0 -119.5 -56.5t-41.5 -163.5
q0 -106 37 -160t108 -54q46 0 81 20.5zM136 -70h326v-73h-326v73z" />
    <glyph glyph-name="uni1E20" unicode="&#x1e20;" horiz-adv-x="673" 
d="M614 377v-304q-40 -40 -101.5 -61.5t-133.5 -21.5q-158 0 -239 91.5t-81 268.5q0 113 38.5 194t111 123.5t173.5 42.5q72 0 133 -24t96 -65q-9 -22 -24 -37.5t-28 -15.5q-15 0 -31 13q-34 26 -69.5 38t-77.5 12q-108 0 -164 -71.5t-56 -209.5q0 -142 53.5 -211.5
t162.5 -69.5q45 0 82.5 10.5t55.5 28.5v192h-114q-24 0 -34 17.5t-10 59.5h257zM214 834h326v-73h-326v73z" />
    <glyph glyph-name="uni1E21" unicode="&#x1e21;" horiz-adv-x="585" 
d="M560.5 575.5q10.5 -13.5 10.5 -44.5q0 -15 -1 -23q-72 0 -101 -19q38 -47 38 -113q0 -95 -58 -143.5t-170 -48.5q-61 0 -87.5 -8.5t-26.5 -27.5q0 -21 33.5 -30.5t110.5 -9.5q115 0 177.5 -39t62.5 -110q0 -77 -68 -120t-192 -43q-119 0 -182.5 37.5t-63.5 108.5
q0 42 29.5 71.5t84.5 41.5v3q-33 8 -52.5 29.5t-19.5 50.5q0 25 20.5 45t55.5 29q-45 24 -70.5 63.5t-25.5 88.5q0 96 59.5 146t173.5 50q66 0 117 -27q24 26 54 41t58 15q23 0 33.5 -13.5zM380 281q29 28 29 91t-29.5 92t-94.5 29q-63 0 -93 -29.5t-30 -91.5
q0 -119 123 -119q66 0 95 28zM141 -47q0 -87 148 -87q82 0 124 22t42 65t-38.5 63t-123.5 20q-152 0 -152 -83zM130 724h326v-73h-326v73z" />
    <glyph glyph-name="uni1E24" unicode="&#x1e24;" horiz-adv-x="687" 
d="M607 700v-700h-99v320h-329v-320h-100v700h100v-303h329v303h99zM282 -140v11q0 56 56 56h10q56 0 56 -56v-11q0 -56 -56 -56h-10q-56 0 -56 56z" />
    <glyph glyph-name="uni1E25" unicode="&#x1e25;" horiz-adv-x="630" 
d="M494.5 512.5q47.5 -47.5 47.5 -129.5v-383h-94v372q0 57 -26.5 86t-77.5 29q-41 0 -86.5 -18.5t-85.5 -51.5v-417h-94v791h94v-302q41 33 92 52t102 19q81 0 128.5 -47.5zM254 -140v11q0 56 56 56h10q56 0 56 -56v-11q0 -56 -56 -56h-10q-56 0 -56 56z" />
    <glyph glyph-name="uni1E2A" unicode="&#x1e2a;" horiz-adv-x="687" 
d="M607 700v-700h-99v320h-329v-320h-100v700h100v-303h329v303h99zM255 -190q-36 15 -54.5 39t-18.5 50q0 21 16 33t44 12q4 -40 29 -63t71 -23q45 0 70 25t31 66q60 0 60 -49q0 -28 -19.5 -52t-56 -38.5t-85.5 -14.5q-51 0 -87 15z" />
    <glyph glyph-name="uni1E2B" unicode="&#x1e2b;" horiz-adv-x="630" 
d="M494.5 512.5q47.5 -47.5 47.5 -129.5v-383h-94v372q0 57 -26.5 86t-77.5 29q-41 0 -86.5 -18.5t-85.5 -51.5v-417h-94v791h94v-302q41 33 92 52t102 19q81 0 128.5 -47.5zM227 -190q-36 15 -54.5 39t-18.5 50q0 21 16 33t44 12q4 -40 29 -63t71 -23q45 0 70 25t31 66
q60 0 60 -49q0 -28 -19.5 -52t-56 -38.5t-85.5 -14.5q-51 0 -87 15z" />
    <glyph glyph-name="uni1E36" unicode="&#x1e36;" horiz-adv-x="513" 
d="M498 75v-75h-412v700h99v-625h313zM231 -140v11q0 56 56 56h10q56 0 56 -56v-11q0 -56 -56 -56h-10q-56 0 -56 56z" />
    <glyph glyph-name="uni1E37" unicode="&#x1e37;" horiz-adv-x="268" 
d="M87 791h94v-791h-94v791zM73 -140v11q0 56 56 56h10q56 0 56 -56v-11q0 -56 -56 -56h-10q-56 0 -56 56z" />
    <glyph glyph-name="uni1E38" unicode="&#x1e38;" horiz-adv-x="513" 
d="M498 75v-75h-412v700h99v-625h313zM231 -140v11q0 56 56 56h10q56 0 56 -56v-11q0 -56 -56 -56h-10q-56 0 -56 56zM-27 847h326v-73h-326v73z" />
    <glyph glyph-name="uni1E39" unicode="&#x1e39;" horiz-adv-x="268" 
d="M87 791h94v-791h-94v791zM73 -140v11q0 56 56 56h10q56 0 56 -56v-11q0 -56 -56 -56h-10q-56 0 -56 56zM-29 924h326v-73h-326v73z" />
    <glyph glyph-name="uni1E3A" unicode="&#x1e3a;" horiz-adv-x="513" 
d="M498 75v-75h-412v700h99v-625h313zM129 -70h326v-73h-326v73z" />
    <glyph glyph-name="uni1E3B" unicode="&#x1e3b;" horiz-adv-x="268" 
d="M87 791h94v-791h-94v791zM-29 -70h326v-73h-326v73z" />
    <glyph glyph-name="uni1E42" unicode="&#x1e42;" horiz-adv-x="835" 
d="M667 0q-4 323 -50 579q-37 -92 -68.5 -186.5t-94.5 -309.5h-75q-54 189 -88 291.5t-74 201.5q-44 -252 -51 -576h-99q9 399 82 700h111q58 -135 91.5 -227.5t64.5 -207.5q34 117 68 210t91 225h111q75 -306 81 -700h-100zM357 -140v11q0 56 56 56h10q56 0 56 -56v-11
q0 -56 -56 -56h-10q-56 0 -56 56z" />
    <glyph glyph-name="uni1E43" unicode="&#x1e43;" horiz-adv-x="912" 
d="M783 514q45 -46 45 -122v-392h-96v389q0 55 -21.5 79.5t-70.5 24.5q-74 0 -137 -69q1 -7 1 -20v-404h-94v399q0 45 -23 69.5t-65 24.5q-37 0 -71.5 -18.5t-70.5 -57.5v-417h-95v360q0 145 -12 175q17 8 35.5 13.5t32.5 5.5q20 0 29 -15.5t10 -49.5q37 37 77 54t91 17
q46 0 82 -20.5t55 -56.5q37 40 80.5 58.5t98.5 18.5q74 0 119 -46zM395 -140v11q0 56 56 56h10q56 0 56 -56v-11q0 -56 -56 -56h-10q-56 0 -56 56z" />
    <glyph glyph-name="uni1E44" unicode="&#x1e44;" horiz-adv-x="693" 
d="M612 64q2 -28 2 -37q0 -27 -26 -27h-77v47q0 57 -39 111l-294 404v-562h-99v700h85q13 0 21 -3.5t17 -16.5l309 -424v444h99v-563q0 -31 2 -73zM285 817v11q0 56 56 56h10q56 0 56 -56v-11q0 -56 -56 -56h-10q-56 0 -56 56z" />
    <glyph glyph-name="uni1E45" unicode="&#x1e45;" horiz-adv-x="610" 
d="M529.5 52q2.5 -23 9.5 -42q-36 -15 -75 -15q-19 0 -25.5 22.5t-6.5 84.5v268q0 64 -22.5 91.5t-74.5 27.5q-77 0 -160 -75v-414h-95v365q0 138 -12 171q47 18 74 18q33 0 33 -58v-10q48 39 90.5 56.5t90.5 17.5q86 0 128.5 -46.5t42.5 -141.5v-241q0 -56 2.5 -79z
M244 707v11q0 56 56 56h10q56 0 56 -56v-11q0 -56 -56 -56h-10q-56 0 -56 56z" />
    <glyph glyph-name="uni1E46" unicode="&#x1e46;" horiz-adv-x="693" 
d="M612 64q2 -28 2 -37q0 -27 -26 -27h-77v47q0 57 -39 111l-294 404v-562h-99v700h85q13 0 21 -3.5t17 -16.5l309 -424v444h99v-563q0 -31 2 -73zM284 -140v11q0 56 56 56h10q56 0 56 -56v-11q0 -56 -56 -56h-10q-56 0 -56 56z" />
    <glyph glyph-name="uni1E47" unicode="&#x1e47;" horiz-adv-x="610" 
d="M529.5 52q2.5 -23 9.5 -42q-36 -15 -75 -15q-19 0 -25.5 22.5t-6.5 84.5v268q0 64 -22.5 91.5t-74.5 27.5q-77 0 -160 -75v-414h-95v365q0 138 -12 171q47 18 74 18q33 0 33 -58v-10q48 39 90.5 56.5t90.5 17.5q86 0 128.5 -46.5t42.5 -141.5v-241q0 -56 2.5 -79z
M244 -140v11q0 56 56 56h10q56 0 56 -56v-11q0 -56 -56 -56h-10q-56 0 -56 56z" />
    <glyph glyph-name="uni1E48" unicode="&#x1e48;" horiz-adv-x="693" 
d="M612 64q2 -28 2 -37q0 -27 -26 -27h-77v47q0 57 -39 111l-294 404v-562h-99v700h85q13 0 21 -3.5t17 -16.5l309 -424v444h99v-563q0 -31 2 -73zM183 -70h326v-73h-326v73z" />
    <glyph glyph-name="uni1E49" unicode="&#x1e49;" horiz-adv-x="610" 
d="M529.5 52q2.5 -23 9.5 -42q-36 -15 -75 -15q-19 0 -25.5 22.5t-6.5 84.5v268q0 64 -22.5 91.5t-74.5 27.5q-77 0 -160 -75v-414h-95v365q0 138 -12 171q47 18 74 18q33 0 33 -58v-10q48 39 90.5 56.5t90.5 17.5q86 0 128.5 -46.5t42.5 -141.5v-241q0 -56 2.5 -79z
M142 -70h326v-73h-326v73z" />
    <glyph glyph-name="uni1E5A" unicode="&#x1e5a;" horiz-adv-x="633" 
d="M595 6q-10 -6 -26 -10t-32 -4q-23 0 -36.5 7.5t-23.5 25.5l-100 186q-22 41 -51 57t-81 16h-63v-284h-99v700h230q126 0 196 -55t70 -153q0 -71 -43 -122.5t-116 -71.5q29 -27 47 -61zM307 361q83 0 126.5 33.5t43.5 97.5q0 131 -167 131h-128v-262h125zM254 -140v11
q0 56 56 56h10q56 0 56 -56v-11q0 -56 -56 -56h-10q-56 0 -56 56z" />
    <glyph glyph-name="uni1E5B" unicode="&#x1e5b;" horiz-adv-x="413" 
d="M395 498q0 -24 -13 -39q-26 13 -68 13q-66 0 -103.5 -48.5t-37.5 -133.5v-290h-95v550h95v-92q22 45 60.5 72t82.5 27q79 0 79 -59zM64 -140v11q0 56 56 56h10q56 0 56 -56v-11q0 -56 -56 -56h-10q-56 0 -56 56z" />
    <glyph glyph-name="uni1E5C" unicode="&#x1e5c;" horiz-adv-x="633" 
d="M595 6q-10 -6 -26 -10t-32 -4q-23 0 -36.5 7.5t-23.5 25.5l-100 186q-22 41 -51 57t-81 16h-63v-284h-99v700h230q126 0 196 -55t70 -153q0 -71 -43 -122.5t-116 -71.5q29 -27 47 -61zM307 361q83 0 126.5 33.5t43.5 97.5q0 131 -167 131h-128v-262h125zM254 -140v11
q0 56 56 56h10q56 0 56 -56v-11q0 -56 -56 -56h-10q-56 0 -56 56zM150 834h326v-73h-326v73z" />
    <glyph glyph-name="uni1E5D" unicode="&#x1e5d;" horiz-adv-x="413" 
d="M395 498q0 -24 -13 -39q-26 13 -68 13q-66 0 -103.5 -48.5t-37.5 -133.5v-290h-95v550h95v-92q22 45 60.5 72t82.5 27q79 0 79 -59zM64 -140v11q0 56 56 56h10q56 0 56 -56v-11q0 -56 -56 -56h-10q-56 0 -56 56zM44 724h326v-73h-326v73z" />
    <glyph glyph-name="uni1E5E" unicode="&#x1e5e;" horiz-adv-x="633" 
d="M595 6q-10 -6 -26 -10t-32 -4q-23 0 -36.5 7.5t-23.5 25.5l-100 186q-22 41 -51 57t-81 16h-63v-284h-99v700h230q126 0 196 -55t70 -153q0 -71 -43 -122.5t-116 -71.5q29 -27 47 -61zM307 361q83 0 126.5 33.5t43.5 97.5q0 131 -167 131h-128v-262h125zM152 -70h326v-73
h-326v73z" />
    <glyph glyph-name="uni1E5F" unicode="&#x1e5f;" horiz-adv-x="413" 
d="M395 498q0 -24 -13 -39q-26 13 -68 13q-66 0 -103.5 -48.5t-37.5 -133.5v-290h-95v550h95v-92q22 45 60.5 72t82.5 27q79 0 79 -59zM-37 -70h326v-73h-326v73z" />
    <glyph glyph-name="uni1E60" unicode="&#x1e60;" horiz-adv-x="642" 
d="M193.5 10.5q-58.5 20.5 -91.5 57t-33 82.5q0 25 19.5 40t53.5 16q13 -67 60.5 -102.5t124.5 -35.5t121.5 33.5t44.5 90.5q0 49 -40 78.5t-140 56.5q-84 23 -133 49.5t-71.5 62t-22.5 85.5q0 86 65 136t178 50q96 0 161.5 -45t88.5 -127q-10 -10 -27 -16.5t-33 -6.5
q-15 0 -25.5 7t-17.5 23q-21 42 -59.5 65t-87.5 23q-71 0 -107 -26t-36 -78q0 -29 13.5 -48.5t46 -36t93.5 -34.5q105 -31 159 -58t75.5 -60.5t21.5 -85.5q0 -65 -33.5 -114t-94.5 -75.5t-142 -26.5q-73 0 -131.5 20.5zM260 817v11q0 56 56 56h10q56 0 56 -56v-11
q0 -56 -56 -56h-10q-56 0 -56 56z" />
    <glyph glyph-name="uni1E61" unicode="&#x1e61;" horiz-adv-x="492" 
d="M145 5q-48 15 -77.5 39.5t-29.5 53.5q0 18 12.5 31.5t32.5 16.5q31 -45 70 -66t96 -21t86 25.5t29 67.5q0 27 -17.5 44.5t-44 28t-71.5 22.5q-59 16 -94.5 31.5t-61 46t-25.5 80.5t28 85t72 52.5t92 17.5q67 0 119.5 -26.5t81.5 -73.5q-12 -17 -26 -27t-26 -10
q-15 0 -27 14q-48 56 -123 56q-46 0 -73 -21t-27 -64q0 -27 17 -43.5t43 -26t70 -20.5q60 -16 96 -31t62 -47t26 -85q0 -77 -56.5 -121t-153.5 -44q-52 0 -100 15zM182 707v11q0 56 56 56h10q56 0 56 -56v-11q0 -56 -56 -56h-10q-56 0 -56 56z" />
    <glyph glyph-name="uni1E62" unicode="&#x1e62;" horiz-adv-x="642" 
d="M193.5 10.5q-58.5 20.5 -91.5 57t-33 82.5q0 25 19.5 40t53.5 16q13 -67 60.5 -102.5t124.5 -35.5t121.5 33.5t44.5 90.5q0 49 -40 78.5t-140 56.5q-84 23 -133 49.5t-71.5 62t-22.5 85.5q0 86 65 136t178 50q96 0 161.5 -45t88.5 -127q-10 -10 -27 -16.5t-33 -6.5
q-15 0 -25.5 7t-17.5 23q-21 42 -59.5 65t-87.5 23q-71 0 -107 -26t-36 -78q0 -29 13.5 -48.5t46 -36t93.5 -34.5q105 -31 159 -58t75.5 -60.5t21.5 -85.5q0 -65 -33.5 -114t-94.5 -75.5t-142 -26.5q-73 0 -131.5 20.5zM263 -140v11q0 56 56 56h10q56 0 56 -56v-11
q0 -56 -56 -56h-10q-56 0 -56 56z" />
    <glyph glyph-name="uni1E63" unicode="&#x1e63;" horiz-adv-x="492" 
d="M145 5q-48 15 -77.5 39.5t-29.5 53.5q0 18 12.5 31.5t32.5 16.5q31 -45 70 -66t96 -21t86 25.5t29 67.5q0 27 -17.5 44.5t-44 28t-71.5 22.5q-59 16 -94.5 31.5t-61 46t-25.5 80.5t28 85t72 52.5t92 17.5q67 0 119.5 -26.5t81.5 -73.5q-12 -17 -26 -27t-26 -10
q-15 0 -27 14q-48 56 -123 56q-46 0 -73 -21t-27 -64q0 -27 17 -43.5t43 -26t70 -20.5q60 -16 96 -31t62 -47t26 -85q0 -77 -56.5 -121t-153.5 -44q-52 0 -100 15zM182 -140v11q0 56 56 56h10q56 0 56 -56v-11q0 -56 -56 -56h-10q-56 0 -56 56z" />
    <glyph glyph-name="uni1E6C" unicode="&#x1e6c;" horiz-adv-x="534" 
d="M523 669q0 -22 -10 -34t-29 -12h-168v-623h-98v623h-203v77h504q4 -20 4 -31zM207 -140v11q0 56 56 56h10q56 0 56 -56v-11q0 -56 -56 -56h-10q-56 0 -56 56z" />
    <glyph glyph-name="uni1E6D" unicode="&#x1e6d;" horiz-adv-x="384" 
d="M365 63.5q5 -9.5 5 -21.5q0 -20 -15 -29q-15 -11 -41.5 -17t-57.5 -6q-67 0 -107 36.5t-40 97.5v359h-97v67h97v150h95v-150h131v-67h-131v-346q0 -40 16 -58.5t49 -18.5q40 0 83 17q8 -4 13 -13.5zM188 -140v11q0 56 56 56h10q56 0 56 -56v-11q0 -56 -56 -56h-10
q-56 0 -56 56z" />
    <glyph glyph-name="uni1E6E" unicode="&#x1e6e;" horiz-adv-x="534" 
d="M523 669q0 -22 -10 -34t-29 -12h-168v-623h-98v623h-203v77h504q4 -20 4 -31zM106 -70h326v-73h-326v73z" />
    <glyph glyph-name="uni1E6F" unicode="&#x1e6f;" horiz-adv-x="384" 
d="M365 63.5q5 -9.5 5 -21.5q0 -20 -15 -29q-15 -11 -41.5 -17t-57.5 -6q-67 0 -107 36.5t-40 97.5v359h-97v67h97v150h95v-150h131v-67h-131v-346q0 -40 16 -58.5t49 -18.5q40 0 83 17q8 -4 13 -13.5zM86 -70h326v-73h-326v73z" />
    <glyph glyph-name="Wgrave" unicode="&#x1e80;" horiz-adv-x="869" 
d="M854 700q-22 -168 -59 -323t-109 -377h-109q-61 198 -89.5 303t-47.5 204q-23 -110 -53 -220t-85 -287h-109q-72 208 -112 367t-66 333h99q19 -151 48 -276t86 -309q40 125 71.5 243t83.5 342h69q76 -296 102.5 -391.5t57.5 -192.5q55 183 82 307t46 277h94zM309 893h109
l88 -151h-79z" />
    <glyph glyph-name="wgrave" unicode="&#x1e81;" horiz-adv-x="773" 
d="M741 550q-33 -314 -150 -550h-76q-48 96 -78 183t-49 183q-18 -96 -49 -183t-80 -183h-77q-60 116 -96.5 249t-56.5 301h96q15 -139 37.5 -242.5t63.5 -192.5q90 188 120 435h86q32 -253 120 -438q41 96 62.5 204t28.5 234h98zM259 780h109l88 -151h-79z" />
    <glyph glyph-name="Wacute" unicode="&#x1e82;" horiz-adv-x="869" 
d="M854 700q-22 -168 -59 -323t-109 -377h-109q-61 198 -89.5 303t-47.5 204q-23 -110 -53 -220t-85 -287h-109q-72 208 -112 367t-66 333h99q19 -151 48 -276t86 -309q40 125 71.5 243t83.5 342h69q76 -296 102.5 -391.5t57.5 -192.5q55 183 82 307t46 277h94zM474 893h111
l-124 -151h-86z" />
    <glyph glyph-name="wacute" unicode="&#x1e83;" horiz-adv-x="773" 
d="M741 550q-33 -314 -150 -550h-76q-48 96 -78 183t-49 183q-18 -96 -49 -183t-80 -183h-77q-60 116 -96.5 249t-56.5 301h96q15 -139 37.5 -242.5t63.5 -192.5q90 188 120 435h86q32 -253 120 -438q41 96 62.5 204t28.5 234h98zM424 780h111l-124 -151h-86z" />
    <glyph glyph-name="Wdieresis" unicode="&#x1e84;" horiz-adv-x="869" 
d="M854 700q-22 -168 -59 -323t-109 -377h-109q-61 198 -89.5 303t-47.5 204q-23 -110 -53 -220t-85 -287h-109q-72 208 -112 367t-66 333h99q19 -151 48 -276t86 -309q40 125 71.5 243t83.5 342h69q76 -296 102.5 -391.5t57.5 -192.5q55 183 82 307t46 277h94zM283 804v10
q0 52 52 52h9q52 0 52 -52v-10q0 -52 -52 -52h-9q-52 0 -52 52zM486 804v10q0 52 51 52h10q51 0 51 -52v-10q0 -52 -51 -52h-10q-51 0 -51 52z" />
    <glyph glyph-name="wdieresis" unicode="&#x1e85;" horiz-adv-x="773" 
d="M741 550q-33 -314 -150 -550h-76q-48 96 -78 183t-49 183q-18 -96 -49 -183t-80 -183h-77q-60 116 -96.5 249t-56.5 301h96q15 -139 37.5 -242.5t63.5 -192.5q90 188 120 435h86q32 -253 120 -438q41 96 62.5 204t28.5 234h98zM233 691v10q0 52 52 52h9q52 0 52 -52v-10
q0 -52 -52 -52h-9q-52 0 -52 52zM436 691v10q0 52 51 52h10q51 0 51 -52v-10q0 -52 -51 -52h-10q-51 0 -51 52z" />
    <glyph glyph-name="uni1E8E" unicode="&#x1e8e;" horiz-adv-x="590" 
d="M573 700l-229 -406v-294h-98v294l-229 406h104l175 -317l174 317h103zM234 817v11q0 56 56 56h10q56 0 56 -56v-11q0 -56 -56 -56h-10q-56 0 -56 56z" />
    <glyph glyph-name="uni1E8F" unicode="&#x1e8f;" horiz-adv-x="502" 
d="M496 550l-213 -592q-31 -85 -74.5 -122t-113.5 -37q-42 0 -67 14.5t-25 37.5t20 42q11 -8 30 -12.5t38 -4.5q40 0 66.5 31.5t47.5 101.5l-196 541h99l145 -419l144 419h99zM190 707v11q0 56 56 56h10q56 0 56 -56v-11q0 -56 -56 -56h-10q-56 0 -56 56z" />
    <glyph glyph-name="uni1E92" unicode="&#x1e92;" horiz-adv-x="580" 
d="M531 73v-73h-480v73l366 554h-368v73h474v-77l-360 -550h368zM225 -140v11q0 56 56 56h10q56 0 56 -56v-11q0 -56 -56 -56h-10q-56 0 -56 56z" />
    <glyph glyph-name="uni1E93" unicode="&#x1e93;" horiz-adv-x="507" 
d="M477 71v-71h-447v61l323 418h-297v71h413v-60l-326 -419h334zM192 -140v11q0 56 56 56h10q56 0 56 -56v-11q0 -56 -56 -56h-10q-56 0 -56 56z" />
    <glyph glyph-name="uni1E97" unicode="&#x1e97;" horiz-adv-x="384" 
d="M365 63.5q5 -9.5 5 -21.5q0 -20 -15 -29q-15 -11 -41.5 -17t-57.5 -6q-67 0 -107 36.5t-40 97.5v359h-97v67h97v150h95v-150h131v-67h-131v-346q0 -40 16 -58.5t49 -18.5q40 0 83 17q8 -4 13 -13.5zM0 801v10q0 52 52 52h9q52 0 52 -52v-10q0 -52 -52 -52h-9
q-52 0 -52 52zM203 801v10q0 52 51 52h10q51 0 51 -52v-10q0 -52 -51 -52h-10q-51 0 -51 52z" />
    <glyph glyph-name="uni1E9E" unicode="&#x1e9e;" horiz-adv-x="710" 
d="M597 329.5q52 -48.5 52 -135.5q0 -65 -30.5 -111t-82.5 -69.5t-118 -23.5q-44 0 -87 12t-67 32q-9 7 -13.5 18t-4.5 22q0 16 8.5 27.5t22.5 13.5q61 -50 138 -50q62 0 98 33t36 95q0 72 -40.5 104t-114.5 32q-25 0 -40 15t-15 37l157 166q-36 86 -158 86
q-72 0 -117 -44.5t-45 -122.5v-466h-99v466q0 74 35 129t95 84t134 29q108 0 177 -48.5t86 -123.5l-139 -144q80 -14 132 -62.5z" />
    <glyph glyph-name="uni1EA0" unicode="&#x1ea0;" horiz-adv-x="633" 
d="M476 193h-319q-23 -84 -43 -193h-99q41 202 101.5 371.5t149.5 328.5h102q89 -158 149.5 -327t100.5 -373h-99q-20 109 -43 193zM455 270q-54 184 -138 344q-85 -158 -139 -344h277zM255 -140v11q0 56 56 56h10q56 0 56 -56v-11q0 -56 -56 -56h-10q-56 0 -56 56z" />
    <glyph glyph-name="uni1EA1" unicode="&#x1ea1;" horiz-adv-x="561" 
d="M493.5 72q7.5 -30 26.5 -52q-14 -11 -34 -18.5t-37 -7.5q-46 0 -55 82q-30 -41 -76.5 -63.5t-104.5 -22.5q-75 0 -120.5 39t-45.5 104q0 184 344 201v39q0 58 -29 86t-90 28q-40 0 -75 -16t-80 -56q-7 -5 -13 -5q-13 0 -28 13.5t-28 37.5q42 47 104 73t129 26
q96 0 150.5 -49.5t54.5 -137.5v-213q0 -58 7.5 -88zM320 86.5q40 27.5 71 78.5v107q-248 -11 -248 -133q0 -39 23.5 -59.5t67.5 -20.5q46 0 86 27.5zM218 -140v11q0 56 56 56h10q56 0 56 -56v-11q0 -56 -56 -56h-10q-56 0 -56 56z" />
    <glyph glyph-name="uni1EA2" unicode="&#x1ea2;" horiz-adv-x="633" 
d="M476 193h-319q-23 -84 -43 -193h-99q41 202 101.5 371.5t149.5 328.5h102q89 -158 149.5 -327t100.5 -373h-99q-20 109 -43 193zM455 270q-54 184 -138 344q-85 -158 -139 -344h277zM302 735q-12 9 -12 20q33 17 47 38.5t14 48.5q0 20 -9.5 31.5t-28.5 11.5
q-36 0 -46 -48q-22 0 -34.5 10t-12.5 28q0 28 26.5 49t69.5 21q48 0 76.5 -24t28.5 -68q0 -47 -25.5 -78.5t-66.5 -49.5q-15 1 -27 10z" />
    <glyph glyph-name="uni1EA3" unicode="&#x1ea3;" horiz-adv-x="561" 
d="M493.5 72q7.5 -30 26.5 -52q-14 -11 -34 -18.5t-37 -7.5q-46 0 -55 82q-30 -41 -76.5 -63.5t-104.5 -22.5q-75 0 -120.5 39t-45.5 104q0 184 344 201v39q0 58 -29 86t-90 28q-40 0 -75 -16t-80 -56q-7 -5 -13 -5q-13 0 -28 13.5t-28 37.5q42 47 104 73t129 26
q96 0 150.5 -49.5t54.5 -137.5v-213q0 -58 7.5 -88zM320 86.5q40 27.5 71 78.5v107q-248 -11 -248 -133q0 -39 23.5 -59.5t67.5 -20.5q46 0 86 27.5zM262 625q-12 9 -12 20q33 17 47 38.5t14 48.5q0 20 -9.5 31.5t-28.5 11.5q-36 0 -46 -48q-22 0 -34.5 10t-12.5 28
q0 28 26.5 49t69.5 21q48 0 76.5 -24t28.5 -68q0 -47 -25.5 -78.5t-66.5 -49.5q-15 1 -27 10z" />
    <glyph glyph-name="uni1EA4" unicode="&#x1ea4;" horiz-adv-x="633" 
d="M476 193h-319q-23 -84 -43 -193h-99q41 202 101.5 371.5t149.5 328.5h102q89 -158 149.5 -327t100.5 -373h-99q-20 109 -43 193zM455 270q-54 184 -138 344q-85 -158 -139 -344h277zM267 878h99l105 -139h-78l-76 83l-78 -83h-78zM537 986h111l-124 -151h-86z" />
    <glyph glyph-name="uni1EA5" unicode="&#x1ea5;" horiz-adv-x="561" 
d="M493.5 72q7.5 -30 26.5 -52q-14 -11 -34 -18.5t-37 -7.5q-46 0 -55 82q-30 -41 -76.5 -63.5t-104.5 -22.5q-75 0 -120.5 39t-45.5 104q0 184 344 201v39q0 58 -29 86t-90 28q-40 0 -75 -16t-80 -56q-7 -5 -13 -5q-13 0 -28 13.5t-28 37.5q42 47 104 73t129 26
q96 0 150.5 -49.5t54.5 -137.5v-213q0 -58 7.5 -88zM320 86.5q40 27.5 71 78.5v107q-248 -11 -248 -133q0 -39 23.5 -59.5t67.5 -20.5q46 0 86 27.5zM227 768h99l105 -139h-78l-76 83l-78 -83h-78zM497 876h111l-124 -151h-86z" />
    <glyph glyph-name="uni1EA6" unicode="&#x1ea6;" horiz-adv-x="633" 
d="M476 193h-319q-23 -84 -43 -193h-99q41 202 101.5 371.5t149.5 328.5h102q89 -158 149.5 -327t100.5 -373h-99q-20 109 -43 193zM455 270q-54 184 -138 344q-85 -158 -139 -344h277zM267 878h99l105 -139h-78l-76 83l-78 -83h-78zM330 1007h109l88 -151h-79z" />
    <glyph glyph-name="uni1EA7" unicode="&#x1ea7;" horiz-adv-x="561" 
d="M493.5 72q7.5 -30 26.5 -52q-14 -11 -34 -18.5t-37 -7.5q-46 0 -55 82q-30 -41 -76.5 -63.5t-104.5 -22.5q-75 0 -120.5 39t-45.5 104q0 184 344 201v39q0 58 -29 86t-90 28q-40 0 -75 -16t-80 -56q-7 -5 -13 -5q-13 0 -28 13.5t-28 37.5q42 47 104 73t129 26
q96 0 150.5 -49.5t54.5 -137.5v-213q0 -58 7.5 -88zM320 86.5q40 27.5 71 78.5v107q-248 -11 -248 -133q0 -39 23.5 -59.5t67.5 -20.5q46 0 86 27.5zM227 768h99l105 -139h-78l-76 83l-78 -83h-78zM290 897h109l88 -151h-79z" />
    <glyph glyph-name="uni1EA8" unicode="&#x1ea8;" horiz-adv-x="633" 
d="M476 193h-319q-23 -84 -43 -193h-99q41 202 101.5 371.5t149.5 328.5h102q89 -158 149.5 -327t100.5 -373h-99q-20 109 -43 193zM455 270q-54 184 -138 344q-85 -158 -139 -344h277zM267 878h99l105 -139h-78l-76 83l-78 -83h-78zM430 857q-12 9 -12 20q33 17 47 38.5
t14 48.5q0 20 -9.5 31.5t-28.5 11.5q-36 0 -46 -48q-22 0 -34.5 10t-12.5 28q0 28 26.5 49t69.5 21q48 0 76.5 -24t28.5 -68q0 -47 -25.5 -78.5t-66.5 -49.5q-15 1 -27 10z" />
    <glyph glyph-name="uni1EA9" unicode="&#x1ea9;" horiz-adv-x="561" 
d="M493.5 72q7.5 -30 26.5 -52q-14 -11 -34 -18.5t-37 -7.5q-46 0 -55 82q-30 -41 -76.5 -63.5t-104.5 -22.5q-75 0 -120.5 39t-45.5 104q0 184 344 201v39q0 58 -29 86t-90 28q-40 0 -75 -16t-80 -56q-7 -5 -13 -5q-13 0 -28 13.5t-28 37.5q42 47 104 73t129 26
q96 0 150.5 -49.5t54.5 -137.5v-213q0 -58 7.5 -88zM320 86.5q40 27.5 71 78.5v107q-248 -11 -248 -133q0 -39 23.5 -59.5t67.5 -20.5q46 0 86 27.5zM227 768h99l105 -139h-78l-76 83l-78 -83h-78zM390 747q-12 9 -12 20q33 17 47 38.5t14 48.5q0 20 -9.5 31.5t-28.5 11.5
q-36 0 -46 -48q-22 0 -34.5 10t-12.5 28q0 28 26.5 49t69.5 21q48 0 76.5 -24t28.5 -68q0 -47 -25.5 -78.5t-66.5 -49.5q-15 1 -27 10z" />
    <glyph glyph-name="uni1EAA" unicode="&#x1eaa;" horiz-adv-x="633" 
d="M476 193h-319q-23 -84 -43 -193h-99q41 202 101.5 371.5t149.5 328.5h102q89 -158 149.5 -327t100.5 -373h-99q-20 109 -43 193zM455 270q-54 184 -138 344q-85 -158 -139 -344h277zM267 878h99l105 -139h-78l-76 83l-78 -83h-78zM176 937.5q-12 9.5 -12 27.5
q0 36 24.5 56t62.5 20q22 0 38.5 -6t36.5 -17q15 -9 26 -13t24 -4q39 0 44 43q50 0 50 -40q0 -30 -23 -52t-62 -22q-23 0 -40 6t-38 17q-18 9 -29 13.5t-25 4.5q-38 0 -43 -43q-22 0 -34 9.5z" />
    <glyph glyph-name="uni1EAB" unicode="&#x1eab;" horiz-adv-x="561" 
d="M493.5 72q7.5 -30 26.5 -52q-14 -11 -34 -18.5t-37 -7.5q-46 0 -55 82q-30 -41 -76.5 -63.5t-104.5 -22.5q-75 0 -120.5 39t-45.5 104q0 184 344 201v39q0 58 -29 86t-90 28q-40 0 -75 -16t-80 -56q-7 -5 -13 -5q-13 0 -28 13.5t-28 37.5q42 47 104 73t129 26
q96 0 150.5 -49.5t54.5 -137.5v-213q0 -58 7.5 -88zM320 86.5q40 27.5 71 78.5v107q-248 -11 -248 -133q0 -39 23.5 -59.5t67.5 -20.5q46 0 86 27.5zM227 768h99l105 -139h-78l-76 83l-78 -83h-78zM136 827.5q-12 9.5 -12 27.5q0 36 24.5 56t62.5 20q22 0 38.5 -6t36.5 -17
q15 -9 26 -13t24 -4q39 0 44 43q50 0 50 -40q0 -30 -23 -52t-62 -22q-23 0 -40 6t-38 17q-18 9 -29 13.5t-25 4.5q-38 0 -43 -43q-22 0 -34 9.5z" />
    <glyph glyph-name="uni1EAC" unicode="&#x1eac;" horiz-adv-x="633" 
d="M476 193h-319q-23 -84 -43 -193h-99q41 202 101.5 371.5t149.5 328.5h102q89 -158 149.5 -327t100.5 -373h-99q-20 109 -43 193zM455 270q-54 184 -138 344q-85 -158 -139 -344h277zM255 -140v11q0 56 56 56h10q56 0 56 -56v-11q0 -56 -56 -56h-10q-56 0 -56 56zM268 878
h99l105 -139h-78l-76 83l-78 -83h-78z" />
    <glyph glyph-name="uni1EAD" unicode="&#x1ead;" horiz-adv-x="561" 
d="M493.5 72q7.5 -30 26.5 -52q-14 -11 -34 -18.5t-37 -7.5q-46 0 -55 82q-30 -41 -76.5 -63.5t-104.5 -22.5q-75 0 -120.5 39t-45.5 104q0 184 344 201v39q0 58 -29 86t-90 28q-40 0 -75 -16t-80 -56q-7 -5 -13 -5q-13 0 -28 13.5t-28 37.5q42 47 104 73t129 26
q96 0 150.5 -49.5t54.5 -137.5v-213q0 -58 7.5 -88zM320 86.5q40 27.5 71 78.5v107q-248 -11 -248 -133q0 -39 23.5 -59.5t67.5 -20.5q46 0 86 27.5zM218 -140v11q0 56 56 56h10q56 0 56 -56v-11q0 -56 -56 -56h-10q-56 0 -56 56zM228 768h99l105 -139h-78l-76 83l-78 -83
h-78z" />
    <glyph glyph-name="uni1EAE" unicode="&#x1eae;" horiz-adv-x="633" 
d="M476 193h-319q-23 -84 -43 -193h-99q41 202 101.5 371.5t149.5 328.5h102q89 -158 149.5 -327t100.5 -373h-99q-20 109 -43 193zM455 270q-54 184 -138 344q-85 -158 -139 -344h277zM231 753q-36 15 -54.5 39t-18.5 50q0 21 16 33t44 12q4 -40 29 -63t71 -23q45 0 70 25
t31 66q60 0 60 -49q0 -28 -19.5 -52t-56 -38.5t-85.5 -14.5q-51 0 -87 15zM352 1059h111l-124 -151h-86z" />
    <glyph glyph-name="uni1EAF" unicode="&#x1eaf;" horiz-adv-x="561" 
d="M493.5 72q7.5 -30 26.5 -52q-14 -11 -34 -18.5t-37 -7.5q-46 0 -55 82q-30 -41 -76.5 -63.5t-104.5 -22.5q-75 0 -120.5 39t-45.5 104q0 184 344 201v39q0 58 -29 86t-90 28q-40 0 -75 -16t-80 -56q-7 -5 -13 -5q-13 0 -28 13.5t-28 37.5q42 47 104 73t129 26
q96 0 150.5 -49.5t54.5 -137.5v-213q0 -58 7.5 -88zM320 86.5q40 27.5 71 78.5v107q-248 -11 -248 -133q0 -39 23.5 -59.5t67.5 -20.5q46 0 86 27.5zM190 643q-36 15 -54.5 39t-18.5 50q0 21 16 33t44 12q4 -40 29 -63t71 -23q45 0 70 25t31 66q60 0 60 -49q0 -28 -19.5 -52
t-56 -38.5t-85.5 -14.5q-51 0 -87 15zM311 949h111l-124 -151h-86z" />
    <glyph glyph-name="uni1EB0" unicode="&#x1eb0;" horiz-adv-x="633" 
d="M476 193h-319q-23 -84 -43 -193h-99q41 202 101.5 371.5t149.5 328.5h102q89 -158 149.5 -327t100.5 -373h-99q-20 109 -43 193zM455 270q-54 184 -138 344q-85 -158 -139 -344h277zM231 753q-36 15 -54.5 39t-18.5 50q0 21 16 33t44 12q4 -40 29 -63t71 -23q45 0 70 25
t31 66q60 0 60 -49q0 -28 -19.5 -52t-56 -38.5t-85.5 -14.5q-51 0 -87 15zM187 1041h109l88 -151h-79z" />
    <glyph glyph-name="uni1EB1" unicode="&#x1eb1;" horiz-adv-x="561" 
d="M493.5 72q7.5 -30 26.5 -52q-14 -11 -34 -18.5t-37 -7.5q-46 0 -55 82q-30 -41 -76.5 -63.5t-104.5 -22.5q-75 0 -120.5 39t-45.5 104q0 184 344 201v39q0 58 -29 86t-90 28q-40 0 -75 -16t-80 -56q-7 -5 -13 -5q-13 0 -28 13.5t-28 37.5q42 47 104 73t129 26
q96 0 150.5 -49.5t54.5 -137.5v-213q0 -58 7.5 -88zM320 86.5q40 27.5 71 78.5v107q-248 -11 -248 -133q0 -39 23.5 -59.5t67.5 -20.5q46 0 86 27.5zM191 643q-36 15 -54.5 39t-18.5 50q0 21 16 33t44 12q4 -40 29 -63t71 -23q45 0 70 25t31 66q60 0 60 -49q0 -28 -19.5 -52
t-56 -38.5t-85.5 -14.5q-51 0 -87 15zM147 931h109l88 -151h-79z" />
    </font>
</defs>
</svg>
