<?xml version="1.0" encoding="utf-8"?>
<!-- Generator: Adobe Illustrator 23.0.1, SVG Export Plug-In . SVG Version: 6.00 Build 0)  -->
<svg version="1.1" id="Camada_1" xmlns="http://www.w3.org/2000/svg" xmlns:xlink="http://www.w3.org/1999/xlink" x="0px" y="0px"
	 viewBox="0 0 25 25" style="enable-background:new 0 0 25 25;" xml:space="preserve">
<style type="text/css">
	.st0{fill:#39D3F7;}
</style>
<path class="st0" d="M21.2,3.8c-2.4-2.5-5.4-3.7-8.8-3.7C8.9,0.1,6,1.4,3.5,3.8c-2.4,2.4-3.6,5.4-3.6,8.8c0,3.4,1.2,6.4,3.6,8.9
	c2.5,2.4,5.4,3.6,8.9,3.6c3.4,0,6.4-1.2,8.8-3.6c2.5-2.5,3.7-5.4,3.7-8.9C24.9,9.2,23.7,6.3,21.2,3.8z M4.8,12.6
	c0-0.4,0.3-0.7,0.7-0.7h8.2L12.8,11c-0.3-0.3-0.3-0.7,0-1c0.3-0.3,0.7-0.3,1,0l2.1,2.1c0,0,0,0,0,0c0,0,0,0,0,0c0,0,0,0,0,0
	c0,0,0,0,0,0c0,0,0,0,0,0c0,0,0,0,0,0c0,0,0,0,0,0c0,0,0,0,0,0c0,0,0,0,0,0c0,0,0,0,0,0c0,0,0,0,0,0c0,0,0,0,0,0c0,0,0,0,0,0
	c0,0,0,0,0,0c0,0,0,0,0,0.1c0,0,0,0,0,0c0,0,0,0,0,0c0,0,0,0,0,0.1c0,0,0,0,0,0c0,0,0,0,0,0c0,0,0,0,0,0c0,0,0,0,0,0c0,0,0,0,0,0
	c0,0,0,0,0,0c0,0,0,0,0,0c0,0,0,0,0,0c0,0,0,0,0,0c0,0,0,0,0,0c0,0,0,0,0,0c0,0,0,0,0,0c0,0,0,0,0,0.1l-2.1,2.1
	c-0.1,0.1-0.3,0.2-0.5,0.2c-0.2,0-0.4-0.1-0.5-0.2c-0.3-0.3-0.3-0.7,0-1l0.9-0.9H5.5C5.1,13.3,4.8,13,4.8,12.6z M20,18.3
	c0,0.4-0.3,0.7-0.7,0.7h-9c-0.4,0-0.7-0.3-0.7-0.7v-2.8c0-0.4,0.3-0.7,0.7-0.7c0.4,0,0.7,0.3,0.7,0.7v2.1h7.6V7.7H11v2.1
	c0,0.4-0.3,0.7-0.7,0.7c-0.4,0-0.7-0.3-0.7-0.7V7c0-0.4,0.3-0.7,0.7-0.7h9C19.6,6.2,20,6.6,20,7V18.3z"/>
</svg>
