<?xml version="1.0" encoding="utf-8"?>
<!-- Generator: Adobe Illustrator 22.0.1, SVG Export Plug-In . SVG Version: 6.00 Build 0)  -->
<svg version="1.1" id="Camada_1" xmlns="http://www.w3.org/2000/svg" xmlns:xlink="http://www.w3.org/1999/xlink" x="0px" y="0px"
	 viewBox="0 0 320 320" style="enable-background:new 0 0 320 320;" xml:space="preserve">
<style type="text/css">
	.st0{display:none;fill:#1A1E3A;}
	.st1{fill:#C1C1C1;}
	.st2{fill:#F4F4F4;}
</style>
<rect x="-152" y="-87.8" class="st0" width="2336" height="1080"/>
<g>
	<path class="st2" d="M8.9,0h265.3c8,0,12,9.6,6.3,15.3l-43.8,43.8c-1.7,1.7-3.9,2.6-6.3,2.6H70.6c-4.9,0-8.9,4-8.9,8.9v159.9
		c0,2.4-0.9,4.6-2.6,6.3l-43.8,43.8C9.6,286.2,0,282.2,0,274.3V8.9C0,4,4,0,8.9,0z"/>
	<path class="st1" d="M311.1,320H58.8c-7.9,0-11.9-9.5-6.4-15.2l30.7-31.3c1.7-1.7,4-2.7,6.4-2.7h172.3c4.9,0,8.9-4,8.9-8.9V89.5
		c0-2.4,0.9-4.6,2.6-6.3l31.3-31.3c5.6-5.6,15.3-1.6,15.3,6.3v252.8C320,316,316,320,311.1,320z"/>
	<path class="st1" d="M200.1,209.2h-65.8c-5.5,0-10-4.5-10-10v-65.8c0-5.5,4.5-10,10-10h65.8c5.5,0,10,4.5,10,10v65.8
		C210.1,204.7,205.6,209.2,200.1,209.2z"/>
</g>
</svg>
