<?xml version="1.0" encoding="utf-8"?>
<!-- Generator: Adobe Illustrator 23.0.1, SVG Export Plug-In . SVG Version: 6.00 Build 0)  -->
<svg version="1.1" id="Camada_1" xmlns="http://www.w3.org/2000/svg" xmlns:xlink="http://www.w3.org/1999/xlink" x="0px" y="0px"
	 viewBox="0 0 25 25" style="enable-background:new 0 0 25 25;" xml:space="preserve">
<style type="text/css">
	.st0{fill:#39D3F7;}
</style>
<path class="st0" d="M14.9,15.3L19.6,5L9.4,9.7L4.6,20L14.9,15.3z M3.3,3.7C5.7,1.2,8.7,0,12.1,0c3.4,0,6.4,1.2,8.8,3.7
	c2.5,2.4,3.7,5.4,3.7,8.8c0,3.4-1.2,6.4-3.7,8.9c-2.4,2.4-5.4,3.6-8.8,3.6c-3.4,0-6.4-1.2-8.9-3.6c-2.4-2.5-3.6-5.4-3.6-8.9
	C-0.4,9.1,0.8,6.1,3.3,3.7z M11.1,11.6c0.3-0.3,0.6-0.4,1-0.4c0.4,0,0.7,0.1,0.9,0.4c0.3,0.2,0.4,0.5,0.4,0.9s-0.1,0.7-0.4,1
	c-0.2,0.2-0.5,0.4-0.9,0.4c-0.4,0-0.7-0.1-1-0.4c-0.2-0.3-0.4-0.6-0.4-1S10.9,11.8,11.1,11.6z"/>
</svg>
