<svg width="50" height="50" viewBox="0 0 50 50" fill="none" xmlns="http://www.w3.org/2000/svg">
<g clip-path="url(#clip0)">
<path d="M35.4661 7.60398C35.3817 7.34414 35.2262 7.11311 35.0173 6.93701C34.8084 6.7609 34.5544 6.64676 34.2841 6.60747L28.7762 5.80746L26.3138 0.817128C26.1926 0.572202 26.0054 0.366028 25.7732 0.221878C25.5411 0.0777285 25.2733 0.00134277 25 0.00134277C24.7267 0.00134277 24.4589 0.0777285 24.2268 0.221878C23.9946 0.366028 23.8074 0.572202 23.6862 0.817128L21.2238 5.80746L15.7159 6.60747C15.4463 6.64752 15.1932 6.76196 14.985 6.93792C14.7769 7.11388 14.6219 7.34441 14.5375 7.60359C14.4531 7.86278 14.4426 8.14037 14.5073 8.40517C14.5719 8.66998 14.7091 8.91151 14.9035 9.10264L18.8894 12.9904L17.9537 18.4767C17.9074 18.7461 17.9374 19.0231 18.0403 19.2764C18.1433 19.5297 18.3151 19.7491 18.5363 19.9097C18.7575 20.0704 19.0192 20.1659 19.2919 20.1855C19.5646 20.2051 19.8373 20.148 20.0792 20.0205L25.0055 17.4303L29.9301 20.0205C30.1404 20.1308 30.3742 20.1885 30.6116 20.189C30.9996 20.1881 31.3714 20.0336 31.6456 19.7591C31.9198 19.4846 32.0739 19.1126 32.0744 18.7246C32.0747 18.6144 32.0621 18.5045 32.0369 18.3971L31.1106 12.9904L35.0965 9.10576C35.2923 8.91497 35.4307 8.67315 35.496 8.40771C35.5613 8.14227 35.551 7.86383 35.4661 7.60398Z" fill="#EE61F2"/>
<path opacity="0.5" d="M11.663 29.0266H5.38783C3.9594 29.0283 2.58994 29.5965 1.57988 30.6065C0.569826 31.6166 0.00165089 32.9861 0 34.4146L0 48.5357C0 48.9241 0.154275 49.2965 0.428885 49.5711C0.703495 49.8458 1.07595 50 1.4643 50H15.5943C15.7867 50.0002 15.9772 49.9625 16.1549 49.889C16.3327 49.8155 16.4942 49.7076 16.6302 49.5716C16.7662 49.4356 16.874 49.2741 16.9476 49.0963C17.0211 48.9186 17.0588 48.728 17.0586 48.5357V34.4146C17.057 32.9861 16.4888 31.6166 15.4787 30.6065C14.4687 29.5965 13.0992 29.0283 11.6708 29.0266H11.663Z" fill="#00AFEB"/>
<path opacity="0.3" d="M44.6122 32.9502H38.3371C36.9088 32.9514 35.5393 33.5193 34.5292 34.5291C33.5191 35.539 32.9509 36.9083 32.9492 38.3366V48.5356C32.949 48.728 32.9868 48.9185 33.0603 49.0963C33.1338 49.274 33.2416 49.4355 33.3776 49.5715C33.5137 49.7076 33.6752 49.8154 33.8529 49.8889C34.0307 49.9625 34.2212 50.0002 34.4135 50H48.5357C48.9241 50 49.2965 49.8457 49.5712 49.5711C49.8458 49.2965 50 48.924 50 48.5356V38.3366C49.9984 36.9083 49.4302 35.539 48.4201 34.5291C47.41 33.5193 46.0405 32.9514 44.6122 32.9502Z" fill="#00AFEB"/>
<path d="M30.4916 23.5356H19.5085C18.0803 23.5373 16.7111 24.1053 15.7011 25.115C14.6911 26.1248 14.1227 27.4939 14.1207 28.9221V48.5357C14.1207 48.7281 14.1586 48.9186 14.2323 49.0964C14.306 49.2742 14.414 49.4357 14.5501 49.5717C14.6862 49.7076 14.8478 49.8155 15.0257 49.889C15.2035 49.9625 15.3941 50.0002 15.5865 50H34.4135C34.606 50.0002 34.7965 49.9625 34.9744 49.889C35.1522 49.8155 35.3138 49.7076 35.45 49.5717C35.5861 49.4357 35.6941 49.2742 35.7678 49.0964C35.8415 48.9186 35.8794 48.7281 35.8794 48.5357V28.9221C35.8773 27.4939 35.309 26.1248 34.299 25.115C33.289 24.1053 31.9197 23.5373 30.4916 23.5356Z" fill="#00AFEB"/>
</g>
<defs>
<clipPath id="clip0">
<rect width="50" height="50" fill="white"/>
</clipPath>
</defs>
</svg>
