<svg width="50" height="50" viewBox="0 0 50 50" fill="none" xmlns="http://www.w3.org/2000/svg">
<path d="M32.8773 30.0672C32.4971 30.0548 32.1367 29.895 31.8722 29.6217C31.6077 29.3484 31.4598 28.9829 31.4598 28.6025C31.4598 28.2222 31.6077 27.8567 31.8722 27.5834C32.1367 27.3101 32.4971 27.1503 32.8773 27.1379C36.5567 27.1253 40.0571 24.9036 42.7339 20.8822C45.3039 17.0208 46.8133 11.9701 47.0424 6.5319H40.5859C40.2057 6.51946 39.8453 6.35969 39.5808 6.08637C39.3163 5.81305 39.1684 5.44758 39.1684 5.06722C39.1684 4.68686 39.3163 4.32139 39.5808 4.04807C39.8453 3.77475 40.2057 3.61498 40.5859 3.60254H48.5346C48.923 3.60295 49.2953 3.75754 49.5698 4.03232C49.8443 4.3071 49.9985 4.67961 49.9985 5.068C49.9985 11.6312 48.2835 17.8226 45.169 22.5045C41.9337 27.3685 37.5702 30.0531 32.882 30.0672H32.8773Z" fill="#12B0DB"/>
<path d="M17.1227 30.0675C12.4345 30.0533 8.06948 27.3672 4.83572 22.5048C1.71651 17.8228 0 11.6315 0 5.06825C0.00165987 4.68067 0.156789 4.30954 0.431438 4.03606C0.706086 3.76259 1.07788 3.60906 1.46547 3.60906H9.41256C9.60894 3.60263 9.8046 3.63576 9.98792 3.70647C10.1712 3.77719 10.3385 3.88404 10.4797 4.02069C10.6208 4.15733 10.7331 4.32097 10.8098 4.50188C10.8865 4.68278 10.926 4.87726 10.926 5.07374C10.926 5.27023 10.8865 5.4647 10.8098 5.64561C10.7331 5.82651 10.6208 5.99015 10.4797 6.1268C10.3385 6.26344 10.1712 6.3703 9.98792 6.44101C9.8046 6.51172 9.60894 6.54485 9.41256 6.53842H2.96074C3.19139 11.9766 4.70079 17.0273 7.26927 20.8887C9.94602 24.9101 13.4465 27.1318 17.1259 27.1444C17.506 27.1568 17.8665 27.3166 18.131 27.5899C18.3955 27.8632 18.5434 28.2287 18.5434 28.6091C18.5434 28.9894 18.3955 29.3549 18.131 29.6282C17.8665 29.9015 17.506 30.0613 17.1259 30.0737L17.1227 30.0675Z" fill="#12B0DB"/>
<path d="M40.6894 0H9.30899C8.9206 0.000415839 8.54825 0.154996 8.27376 0.429779C7.99927 0.704562 7.84509 1.07707 7.84509 1.46547C7.84509 10.07 9.53179 18.1818 12.5945 24.3088C14.5574 28.2314 16.958 31.0823 19.6128 32.7141V40.6894C19.6128 41.0777 19.767 41.45 20.0415 41.7246C20.3161 41.9991 20.6884 42.1533 21.0766 42.1533H28.9218C29.3101 42.1533 29.6827 41.9991 29.9574 41.7247C30.2322 41.4502 30.3868 41.0778 30.3872 40.6894V32.7078C33.0404 31.076 35.441 28.2267 37.4039 24.3026C40.4666 18.1834 42.1533 10.0637 42.1533 1.45919C42.1516 1.07188 41.9967 0.700984 41.7224 0.427557C41.4481 0.154129 41.0767 0.000411127 40.6894 0Z" fill="#39D3F7"/>
<path d="M32.8443 39.2253H17.1541C15.7255 39.2266 14.3558 39.7947 13.3456 40.8048C12.3354 41.815 11.7674 43.1848 11.7661 44.6134V48.5359C11.7665 48.9243 11.9211 49.2967 12.1959 49.5711C12.4707 49.8456 12.8432 49.9998 13.2316 49.9998H36.7669C36.9591 49.9998 37.1495 49.9619 37.3271 49.8884C37.5047 49.8148 37.6661 49.707 37.802 49.571C37.938 49.4351 38.0458 49.2737 38.1194 49.0961C38.1929 48.9185 38.2308 48.7282 38.2308 48.5359V44.6134C38.2296 43.185 37.6617 41.8155 36.6519 40.8054C35.642 39.7953 34.2727 39.227 32.8443 39.2253Z" fill="#12B0DB"/>
<path d="M38.3359 49.9922H11.6625C11.4661 49.9986 11.2705 49.9655 11.0872 49.8947C10.9038 49.824 10.7366 49.7172 10.5954 49.5805C10.4542 49.4439 10.342 49.2802 10.2653 49.0993C10.1886 48.9184 10.1491 48.724 10.1491 48.5275C10.1491 48.331 10.1886 48.1365 10.2653 47.9556C10.342 47.7747 10.4542 47.6111 10.5954 47.4744C10.7366 47.3378 10.9038 47.2309 11.0872 47.1602C11.2705 47.0895 11.4661 47.0564 11.6625 47.0628H38.3359C38.716 47.0752 39.0765 47.235 39.341 47.5083C39.6055 47.7816 39.7534 48.1471 39.7534 48.5275C39.7534 48.9078 39.6055 49.2733 39.341 49.5466C39.0765 49.8199 38.716 49.9797 38.3359 49.9922Z" fill="#19CAF9"/>
</svg>
