<svg width="22" height="22" viewBox="0 0 22 22" fill="none" xmlns="http://www.w3.org/2000/svg">
<path d="M11 20.625C15.8095 20.625 19.7084 16.7262 19.7084 11.9167C19.7084 7.1072 15.8095 3.20834 11 3.20834C6.19054 3.20834 2.29169 7.1072 2.29169 11.9167C2.29169 16.7262 6.19054 20.625 11 20.625Z" fill="#DD9F05"/>
<path d="M11 19.7083C15.3032 19.7083 18.7916 16.2199 18.7916 11.9167C18.7916 7.61345 15.3032 4.125 11 4.125C6.69676 4.125 3.20831 7.61345 3.20831 11.9167C3.20831 16.2199 6.69676 19.7083 11 19.7083Z" fill="#01579B"/>
<path d="M15.5833 14.6667C16.0036 16.0036 14.5901 16.9789 13.4828 16.9789C12.8769 16.9789 12.127 16.7479 11.9166 16.0417C11.1352 16.4569 10.4665 16.9166 10.0833 17.1957V17.875H16.0027C16.9184 17.1059 17.6591 16.1361 18.1436 15.0242C17.7517 14.8775 16.9528 14.6667 15.5833 14.6667Z" fill="#0277BD"/>
<path d="M16.758 6.67838C14.9439 7.21142 13.6546 8.17942 13.0675 8.68863C12.6633 9.91558 11.6953 11.2667 10.0833 12.375V15.5833C10.0833 15.5833 11.3648 13.2417 14.3994 12.5276C16.3776 12.062 18.0867 11.9295 18.7907 11.8924C18.7843 9.88258 18.0139 8.05567 16.758 6.67838Z" fill="#0277BD"/>
<path d="M16.0045 5.95513C15.5696 5.5903 15.0966 5.269 14.5887 5.005C14.0786 5.24105 13.4401 5.56555 12.8333 5.95834C13.1216 6.31905 13.2719 6.80167 13.2848 7.35167C13.9494 6.8828 14.8674 6.34884 16.0045 5.95513Z" fill="#0091EA"/>
<path d="M11 18.7917C14.797 18.7917 17.875 15.7136 17.875 11.9167C17.875 8.1197 14.797 5.04166 11 5.04166C7.20304 5.04166 4.125 8.1197 4.125 11.9167C4.125 15.7136 7.20304 18.7917 11 18.7917Z" fill="#0277BD"/>
<path d="M13.5469 5.53482C13.31 5.6659 13.0698 5.80524 12.8333 5.95832C13.1216 6.31903 13.2719 6.80165 13.2848 7.35165C13.7454 7.0267 14.3357 6.6724 15.0283 6.3534C14.5727 6.02295 14.0772 5.74657 13.5469 5.53482Z" fill="#00B0FF"/>
<path d="M17.875 11.9167C17.875 9.99626 17.0862 8.26193 15.8166 7.0148C14.4989 7.55563 13.546 8.27338 13.0671 8.68863C12.6633 9.91559 11.6953 11.2668 10.0833 12.375V15.5833C10.0833 15.5833 11.3648 13.2417 14.3994 12.5276C15.7717 12.205 17.0051 12.0441 17.8727 11.9621C17.8727 11.9469 17.875 11.9323 17.875 11.9167Z" fill="#0091EA"/>
<path d="M18.0918 16.9583H15.125V17.875H17.3388C17.6101 17.5867 17.8617 17.2815 18.0918 16.9583Z" fill="#B3831D"/>
<path d="M10.0833 3.25739V20.576C10.3849 20.6076 10.6901 20.625 11 20.625V3.20834C10.6901 3.20834 10.3849 3.22576 10.0833 3.25739Z" fill="#B3831D"/>
<path d="M5.04169 18.2554C5.32998 18.5263 5.63523 18.7784 5.95835 19.0084V4.82486C5.63523 5.05494 5.32998 5.30703 5.04169 5.5779V18.2554Z" fill="#B3831D"/>
<path d="M5.04169 16.9322C5.32081 17.2636 5.62835 17.5702 5.95835 17.8512V5.98172C5.62835 6.26268 5.32081 6.5693 5.04169 6.90068V16.9322Z" fill="#01579B"/>
<path d="M4.58331 1.375H10.0833V17.875H19.25L16.9583 20.625H4.58331L5.95831 18.7917V3.20833L4.58331 1.375Z" fill="#FFC107"/>
<path d="M11 16.9583V4.125C10.6892 4.125 10.3844 4.14838 10.0833 4.18367V17.875H16.0155C16.3469 17.5959 16.6535 17.2883 16.9345 16.9583H11Z" fill="#01579B"/>
<path d="M11 11.6394C10.7332 11.8887 10.4326 12.1348 10.0833 12.375V15.5833C10.0833 15.5833 10.3748 15.0567 11 14.4279V11.6394Z" fill="#0277BD"/>
<path d="M10.0834 17.875V1.375H9.16669V18.7917H18.486L19.25 17.875H10.0834Z" fill="#E8A30A"/>
<path d="M15.5833 14.6667C16.0036 16.0036 14.5901 16.9789 13.4828 16.9789C12.8769 16.9789 12.127 16.7479 11.9166 16.0417C11.1352 16.4569 10.4665 16.9166 10.0833 17.1957V17.875H14.4201C15.6516 17.1664 16.6398 16.0893 17.2388 14.7918C16.8176 14.7203 16.2731 14.6667 15.5833 14.6667Z" fill="#0091EA"/>
<path d="M16.6599 17.2562C16.7498 17.1618 16.8277 17.0569 16.9125 16.9583H13.7546C13.6629 16.9707 13.5717 16.979 13.4828 16.979C13.387 16.979 13.2875 16.9707 13.1876 16.9583H11V16.5752C10.6223 16.813 10.3042 17.0349 10.0833 17.1957V17.875H16.0027C16.2305 17.6834 16.4477 17.4795 16.6526 17.264C16.6549 17.2617 16.6572 17.259 16.6599 17.2562Z" fill="#0277BD"/>
</svg>
