<svg width="50" height="50" viewBox="0 0 50 50" fill="none" xmlns="http://www.w3.org/2000/svg">
<path opacity="0.3" d="M7.53134 39.2137H5.38868C3.95894 39.2154 2.58832 39.7843 1.57793 40.7956C0.567534 41.8068 -9.59855e-07 43.1776 0 44.6069L0 48.5299C0.000413694 48.918 0.154829 49.2901 0.429365 49.5645C0.7039 49.839 1.07613 49.9933 1.46438 49.9938H7.78452C7.61647 49.524 7.53082 49.0288 7.53134 48.5299V39.2137Z" fill="#00DE81"/>
<path opacity="0.5" d="M17.9946 31.3755H15.8503C14.4217 31.3771 13.052 31.9452 12.0418 32.9551C11.0316 33.965 10.4633 35.3342 10.4617 36.7624V48.5298C10.4621 48.9182 10.6167 49.2905 10.8916 49.565C11.1665 49.8395 11.5391 49.9937 11.9276 49.9937H18.2462C18.0794 49.5236 17.9943 49.0285 17.9946 48.5298V31.3755Z" fill="#00DE81"/>
<path d="M49.7233 14.7119L39.2523 0.591625C39.1159 0.408069 38.9385 0.258964 38.7341 0.156234C38.5298 0.0535044 38.3042 0 38.0755 0C37.8468 0 37.6212 0.0535044 37.4169 0.156234C37.2125 0.258964 37.0351 0.408069 36.8987 0.591625L26.4276 14.7119C26.2644 14.93 26.1651 15.1893 26.1411 15.4606C26.1171 15.732 26.1692 16.0047 26.2915 16.2481C26.4139 16.4915 26.6018 16.6959 26.834 16.8385C27.0661 16.9811 27.3335 17.0562 27.606 17.0554H31.3709V48.5361C31.3713 48.9245 31.5259 49.2968 31.8008 49.5713C32.0757 49.8458 32.4483 50 32.8368 50H43.2985C43.687 50 44.0597 49.8458 44.3345 49.5713C44.6094 49.2968 44.764 48.9245 44.7644 48.5361V17.0491H48.5309C48.8033 17.0497 49.0704 16.9744 49.3024 16.8317C49.5343 16.689 49.722 16.4845 49.8442 16.2411C49.9664 15.9978 50.0183 15.7252 49.9942 15.454C49.9701 15.1828 49.8709 14.9236 49.7077 14.7056L49.7233 14.7119Z" fill="#00DE81"/>
<path opacity="0.7" d="M28.4561 23.5312H26.3135C24.8848 23.5329 23.5152 24.101 22.5049 25.1109C21.4947 26.1207 20.9265 27.4899 20.9248 28.9181V48.5299C20.9252 48.9181 21.0796 49.2902 21.3542 49.5646C21.6287 49.8391 22.0009 49.9934 22.3892 49.9938H28.7078C28.541 49.5238 28.4559 49.0287 28.4561 48.5299V23.5312Z" fill="#00DE81"/>
</svg>
