<svg width="22" height="22" viewBox="0 0 22 22" fill="none" xmlns="http://www.w3.org/2000/svg">
<path d="M19.7084 4.61863C19.4764 4.61818 19.151 4.59388 18.9214 4.62963C18.5795 4.69013 18.2311 4.59022 17.8865 4.57968C17.8814 4.49534 17.9456 4.34455 17.9424 4.26068C17.8778 4.25243 17.8136 4.24784 17.7513 4.23318C17.6931 4.02372 17.7155 3.8028 17.7086 3.58784C17.6756 3.58739 17.6092 3.58601 17.5762 3.58509C17.5656 3.82984 17.5666 4.07459 17.5638 4.31934C17.479 4.25013 17.4199 4.11584 17.2966 4.12547L13.9297 4.12501C13.7519 4.14426 13.613 4.0228 13.4695 3.93709C13.4558 3.82434 13.4379 3.71251 13.4159 3.60159C13.3151 3.74047 13.3059 3.9183 13.2688 4.08193C13.0011 4.13509 12.7366 4.28497 12.4639 4.3088C12.4401 4.15113 12.4149 3.99393 12.3975 3.83488C12.5419 3.76522 12.7041 3.71847 12.8237 3.6048C12.9644 3.19322 12.8017 2.76514 12.7087 2.36272C12.4204 2.1528 12.1009 1.96718 11.7686 1.83334H11.2911C10.9629 1.94059 10.6361 2.11614 10.4496 2.42505C10.1608 2.87834 10.1209 3.46043 10.3024 3.96368C10.2768 3.98109 10.2254 4.01684 10.1998 4.03518C9.88719 3.78768 9.45498 3.91005 9.15569 4.11768C8.72119 4.44722 8.48927 4.98622 8.39302 5.51788C8.29356 5.96843 8.33802 6.43088 8.39119 6.88372C8.21152 6.92818 8.02727 6.93688 7.8444 6.95063C7.76785 6.95384 7.67115 6.98455 7.6629 7.07576C7.6079 7.43418 7.64869 7.80268 7.5749 8.1588C7.52723 8.38705 7.49652 8.61897 7.50431 8.85272C7.7046 8.89809 7.90627 8.94163 8.10748 8.98426C7.96998 9.04751 7.81185 9.09243 7.71377 9.21755C7.6276 9.79551 7.83294 10.3652 7.8146 10.945C7.71377 11.033 7.58773 11.1123 7.55473 11.2535C7.49285 11.4198 7.5914 11.589 7.5671 11.759C7.54373 11.9442 7.58544 12.1284 7.64456 12.3017C7.70002 12.447 7.65373 12.6028 7.63173 12.7508C7.56665 13.134 7.49194 13.5181 7.4759 13.9072C7.46306 14.1126 7.5341 14.3243 7.46856 14.5237C7.25498 15.0132 6.8961 15.4216 6.70635 15.9234C6.62248 16.1544 6.6651 16.4184 6.54456 16.6375C6.41577 16.8841 6.23794 17.1275 6.25398 17.4231C6.23977 17.6234 6.39927 17.803 6.3319 18.0033C6.23198 18.4117 6.1316 18.8206 6.02069 19.2266C5.94552 19.4966 5.93131 19.7922 6.01519 20.0617C6.12748 20.1208 6.25398 20.1405 6.37681 20.1671H6.84935C7.00198 20.1529 7.15323 20.1273 7.30585 20.1057C7.34985 19.894 7.29806 19.6873 7.22656 19.4902C7.13765 18.9933 7.21694 18.4653 7.4649 18.0272C7.5506 17.9135 7.70644 17.8695 7.7674 17.7338C7.8586 17.54 7.90215 17.3278 7.98556 17.1307C8.1029 16.8502 8.26331 16.5866 8.33665 16.2883C8.37744 16.1251 8.33069 15.9578 8.34535 15.7928C8.38981 15.6099 8.47185 15.4307 8.6066 15.2987C8.78719 15.1296 8.85777 14.8706 9.05531 14.7171C9.19006 14.6163 9.19648 14.4357 9.2249 14.2812C9.25148 14.0768 9.31794 13.8811 9.39173 13.69C9.49669 13.4255 9.5691 13.1354 9.77123 12.9268C9.89956 12.7926 9.96373 12.6138 10.0105 12.436C10.0907 12.5913 10.1549 12.7637 10.2836 12.8856C10.428 12.958 10.6384 12.9191 10.7259 13.0845C10.9776 13.4677 10.9964 13.6858 11.2489 14.069C11.3694 14.3069 11.66 14.2487 11.875 14.2551C11.9987 14.4251 12.1367 14.4742 12.0954 14.6804C12.0876 14.9128 11.8915 15.092 11.919 15.3299C11.9405 15.8139 11.9763 16.302 12.1019 16.7709C12.1459 16.9895 12.2595 17.1903 12.2632 17.4176C12.2687 17.6807 12.2187 18.1115 12.166 18.3714C12.0377 18.7193 11.9501 19.0832 11.9336 19.4558C12.2371 19.6346 12.5872 19.4531 12.9044 19.5589C13.2523 19.674 13.6171 19.7152 13.9815 19.7083C14.2056 19.7042 14.4302 19.6822 14.6506 19.6478C14.652 19.5209 14.6933 19.3829 14.6355 19.2642C14.4522 19.0474 14.1456 19.0465 13.9228 18.8966C13.7427 18.7344 13.5956 18.5364 13.4452 18.3462C13.3183 18.1968 13.4883 17.99 13.4833 17.8017C13.4851 17.5157 13.4837 17.221 13.5891 16.9515C13.6671 16.737 13.6409 16.5051 13.5988 16.2864C13.5419 16.0174 13.6382 15.752 13.6629 15.4857C13.6987 15.1227 13.7244 14.7588 13.7473 14.3949C13.7638 14.1873 13.6927 13.9893 13.6423 13.7917C13.6125 13.6056 13.4356 13.5007 13.3838 13.3242C13.0804 12.4873 12.8026 11.7984 12.205 11.1311C11.9754 10.9024 11.8594 10.5201 11.9987 10.2126C12.128 10.2479 12.2563 10.2868 12.3874 10.3198C12.5272 10.1315 12.6638 9.92338 12.6862 9.68138C12.7091 9.43205 12.716 9.18134 12.738 8.93201C12.7481 8.66022 12.8068 8.38018 12.7366 8.11343C12.6908 7.93101 12.5107 7.85218 12.3714 7.75959C12.4048 7.63263 12.4387 7.50659 12.4685 7.37872C12.9282 7.60284 13.3545 7.9278 13.8692 8.00755C14.0071 8.02864 14.1547 8.09464 14.2918 8.03138C14.4806 7.94063 14.6264 7.78205 14.7914 7.65463C15.0902 7.41951 15.0489 6.99051 15.153 6.65501C15.2547 6.61559 15.3583 6.57938 15.4614 6.54088C15.3936 6.24343 15.2754 5.94276 15.3157 5.63247C15.4394 5.46334 15.5957 5.36205 15.7245 5.19659C15.8166 5.07101 15.9761 5.03847 16.1214 5.04214C16.5591 5.03984 16.9973 5.04763 17.4355 5.04259C17.4497 4.97888 17.3979 5.1063 17.4135 5.04259C17.8691 5.06872 18.3251 4.96972 18.7816 5.02655C19.0662 5.07559 19.4485 5.05543 19.7345 5.03434C19.7194 4.95001 19.712 4.70251 19.7084 4.61863ZM14.0722 6.22143C13.9856 6.06651 13.8559 5.92076 13.8302 5.74201C13.844 5.72322 13.8724 5.68701 13.8861 5.66868C14.0722 5.64897 14.2597 5.66134 14.4462 5.67051C14.3257 5.85659 14.1983 6.03901 14.0722 6.22143ZM14.0452 5.62193C14.1689 5.55868 14.2088 5.42805 14.2249 5.29651C14.3243 5.29147 14.4242 5.28826 14.5251 5.28597C14.5287 5.38268 14.5319 5.47847 14.5356 5.57518C14.3743 5.61138 14.2088 5.61093 14.0452 5.62193Z" fill="#5D79AE"/>
<path d="M19.7083 10.5417H16.5V9.625H20.625C20.5649 9.26154 20.3225 8.93704 19.9856 8.79633C19.7596 8.69275 19.5071 8.70925 19.266 8.70925L16.5 8.70833C16.0416 8.70833 15.5833 9.16666 15.5833 9.625V10.5417C15.6085 10.9991 16.0416 11.4583 16.5 11.4583H19.7083V12.375H15.5833C15.6447 12.667 15.7987 12.942 16.0499 13.1051C16.2699 13.2637 16.5463 13.2995 16.8094 13.2917H19.7083C20.1666 13.2917 20.625 12.8333 20.625 12.375V11.4583C20.625 11 20.2216 10.5504 19.7083 10.5417Z" fill="#5D79AE"/>
<path d="M2.29167 9.62501H5.95833C5.95833 9.11855 5.54813 8.70834 5.04167 8.70834H2.29167C1.78521 8.70834 1.375 9.11855 1.375 9.62501V12.375C1.375 12.8815 1.78521 13.2917 2.29167 13.2917H5.04167C5.54813 13.2917 5.95833 12.8815 5.95833 12.375H2.29167V9.62501Z" fill="#5D79AE"/>
</svg>
