<svg width="22" height="22" viewBox="0 0 22 22" fill="none" xmlns="http://www.w3.org/2000/svg">
<path fill-rule="evenodd" clip-rule="evenodd" d="M5.63752 12.375L9.16669 16.1943L5.8896 16.9583L4.12502 15.4307L5.63752 12.375ZM14.9518 5.04166L16.5 5.89278L15.9839 8.70832L12.3714 6.35112L14.9518 5.04166ZM5.32815 5.04166C5.50002 5.04166 5.63798 5.04899 5.84377 5.21353C6.13023 5.4427 7.18669 6.1907 7.18669 6.1907L7.37827 6.53124C7.72706 6.54866 7.73577 6.58028 8.17623 6.90387L17.875 13.4828C17.8003 13.6446 16.6471 16.9583 16.6471 16.9583H14.867L4.12502 5.61457C4.12502 5.61457 4.3001 5.54903 4.46877 5.4427C4.73323 5.27632 5.06598 5.04166 5.32815 5.04166ZM6.64585 2.74999H2.75002C2.50802 2.87099 2.29169 3.01124 2.29169 3.49478V6.64582V7.61978L2.74452 8.87928L2.29169 9.51041V10.026L2.75002 10.3698V11L2.29169 11.4583V13.1771L2.75002 13.4635V15.3542C2.27152 15.6947 2.29169 16.099 2.29169 16.5637V18.7344C3.36373 19.002 3.1859 19.25 4.41148 19.25C5.49452 19.25 6.18752 19.25 6.18752 19.25C6.35344 19.2395 6.48269 19.2046 6.64585 19.189C7.10144 19.145 7.39065 18.7917 7.39065 18.7917L8.59377 19.25L9.0521 18.7917C9.0521 18.7917 9.65298 19.5355 9.7969 19.7083L10.1979 19.25L11.4584 19.7083C11.4584 19.7083 11.9259 19.2596 12.4323 19.25H14.8959C14.9334 19.2138 15.3542 18.7917 15.3542 18.7917C15.5471 18.9072 15.3766 19.25 17.1302 19.25C17.6142 19.25 18.0469 19.1354 18.0469 19.1354C17.9726 18.8879 17.9644 18.9383 17.8177 18.7917C17.8177 18.7917 18.9636 18.7917 19.7084 19.25V12.149L18.7917 12.4323C18.8096 12.287 19.2331 12.094 19.25 11.8021C19.2716 11.434 19.2299 10.1585 19.1762 9.88899C19.1487 9.75149 18.8861 9.34862 18.7917 9.22395C18.904 8.92099 19.25 8.70832 19.25 8.70832V8.36457L19.7084 8.09737V6.16228L19.25 4.23957L19.7084 3.7432V3.19503L19.2244 2.77566L17.6523 2.51578L17.2893 2.77566L17.1078 2.47316C17.1078 2.47316 14.7318 2.29257 14.3009 2.29257C13.7496 2.29257 13.8298 2.33382 13.6432 2.95486L12.8521 3.03553L12.7761 2.74999H11.974L12.106 2.6047C12.2462 2.47224 12.1972 2.52541 12.3067 2.29166H9.54848C9.5054 2.37049 9.34773 2.54924 9.22352 2.74999C9.22352 2.74999 8.98152 2.7477 8.80002 2.8687C8.61852 2.9897 8.61944 3.20832 8.37744 3.20832C8.13544 3.20832 7.63356 3.20832 7.3494 3.20832C6.7444 3.20832 6.64585 2.74999 6.64585 2.74999Z" fill="#F44336"/>
</svg>
