<svg width="50" height="50" viewBox="0 0 50 50" fill="none" xmlns="http://www.w3.org/2000/svg">
<g clip-path="url(#clip0)">
<path d="M36.7469 18.9515C36.3582 18.9515 35.9854 18.7971 35.7106 18.5222C35.4357 18.2474 35.2813 17.8746 35.2813 17.4859V9.64213C35.2749 9.44574 35.308 9.25007 35.3788 9.06674C35.4495 8.88342 35.5563 8.71618 35.693 8.57499C35.8297 8.4338 35.9933 8.32152 36.1742 8.24485C36.3552 8.16817 36.5496 8.12866 36.7461 8.12866C36.9426 8.12866 37.1371 8.16817 37.318 8.24485C37.499 8.32152 37.6626 8.4338 37.7993 8.57499C37.9359 8.71618 38.0428 8.88342 38.1135 9.06674C38.1843 9.25007 38.2174 9.44574 38.211 9.64213V17.4859C38.2112 17.6783 38.1735 17.8688 38.1 18.0466C38.0265 18.2244 37.9187 18.386 37.7827 18.5221C37.6467 18.6583 37.4853 18.7662 37.3076 18.8399C37.1298 18.9136 36.9393 18.9515 36.7469 18.9515Z" fill="#00AFEB"/>
<path opacity="0.3" d="M6.93599 39.5562H5.37349C3.94406 39.5562 2.57308 40.1236 1.56174 41.1337C0.550392 42.1439 -0.0186073 43.5142 -0.0202637 44.9437V48.8655C-0.0202638 49.0579 0.017657 49.2484 0.0913307 49.4262C0.165004 49.6039 0.272986 49.7654 0.409103 49.9013C0.545219 50.0373 0.7068 50.1451 0.884609 50.2186C1.06242 50.2921 1.25297 50.3298 1.44536 50.3296H10.8594C11.2477 50.3296 11.6201 50.1754 11.8947 49.9008C12.1692 49.6262 12.3235 49.2538 12.3235 48.8655V44.9437C12.3218 43.5153 11.7537 42.1459 10.7437 41.1359C9.7337 40.1259 8.36433 39.5578 6.93599 39.5562Z" fill="#00DE81"/>
<path opacity="0.6" d="M16.35 31.7188H14.7875C13.3592 31.7204 11.9898 32.2885 10.9798 33.2985C9.96982 34.3085 9.40168 35.6779 9.40002 37.1063V48.8734C9.40002 49.0658 9.43794 49.2563 9.51162 49.4341C9.58529 49.6118 9.69327 49.7733 9.82939 49.9092C9.96551 50.0452 10.1271 50.153 10.3049 50.2265C10.4827 50.3 10.6733 50.3377 10.8656 50.3375H20.2781C20.4705 50.3377 20.6611 50.3 20.8389 50.2265C21.0167 50.153 21.1783 50.0452 21.3144 49.9092C21.4505 49.7733 21.5585 49.6118 21.6322 49.4341C21.7058 49.2563 21.7438 49.0658 21.7438 48.8734V37.0984C21.74 35.6704 21.1701 34.3021 20.159 33.2936C19.1479 32.2851 17.7781 31.7187 16.35 31.7188Z" fill="#00DE81"/>
<path opacity="0.7" d="M25.7641 23.8672H24.2016C22.7734 23.8684 21.404 24.4362 20.394 25.446C19.3839 26.4557 18.8157 27.8249 18.8141 29.2531V48.8656C18.8141 49.2539 18.9683 49.6263 19.2429 49.9009C19.5175 50.1754 19.8899 50.3297 20.2781 50.3297H29.6875C29.8799 50.3299 30.0705 50.2922 30.2483 50.2187C30.4261 50.1452 30.5877 50.0374 30.7238 49.9014C30.8599 49.7655 30.9679 49.604 31.0416 49.4263C31.1152 49.2485 31.1532 49.058 31.1532 48.8656V29.2531C31.1515 27.8249 30.5833 26.4557 29.5733 25.446C28.5632 24.4362 27.1939 23.8684 25.7656 23.8672H25.7641Z" fill="#00DE81"/>
<path d="M44.5907 16.0218H33.6079C32.1802 16.0235 30.8115 16.5912 29.8018 17.6006C28.7922 18.6099 28.224 19.9785 28.2219 21.4062V48.8656C28.2217 49.0579 28.2594 49.2484 28.333 49.4261C28.4065 49.6038 28.5143 49.7653 28.6503 49.9013C28.7863 50.0373 28.9478 50.1451 29.1255 50.2186C29.3032 50.2921 29.4937 50.3298 29.686 50.3296H48.5141C48.9024 50.3296 49.2748 50.1754 49.5494 49.9008C49.8239 49.6262 49.9782 49.2538 49.9782 48.8656V21.4062C49.9765 19.9778 49.4084 18.6085 48.3984 17.5985C47.3884 16.5885 46.019 16.0203 44.5907 16.0187V16.0218Z" fill="#00DE81"/>
<path d="M49.5047 8.56089L46.6625 5.7187L49.55 2.83276C49.7543 2.62771 49.8933 2.36678 49.9494 2.08285C50.0056 1.79892 49.9765 1.50471 49.8657 1.23733C49.7549 0.969945 49.5674 0.741351 49.3268 0.580372C49.0863 0.419393 48.8035 0.333235 48.5141 0.332764H36.7469C36.3582 0.332764 35.9854 0.487177 35.7105 0.762035C35.4357 1.03689 35.2812 1.40968 35.2812 1.79839V9.64214C35.2817 10.0306 35.4363 10.403 35.7111 10.6775C35.9859 10.952 36.3584 11.1062 36.7469 11.1062H48.5156C48.811 11.1066 49.0996 11.0176 49.3436 10.851C49.5875 10.6843 49.7752 10.4478 49.8822 10.1724C49.9892 9.89707 50.0104 9.5958 49.943 9.30818C49.8757 9.02056 49.7228 8.76006 49.5047 8.56089Z" fill="#EE61F2"/>
</g>
<defs>
<clipPath id="clip0">
<rect width="50" height="50" fill="white"/>
</clipPath>
</defs>
</svg>
