<?xml version="1.0" encoding="utf-8"?>
<!-- Generator: Adobe Illustrator 22.0.1, SVG Export Plug-In . SVG Version: 6.00 Build 0)  -->
<svg version="1.1" id="Camada_1" xmlns="http://www.w3.org/2000/svg" xmlns:xlink="http://www.w3.org/1999/xlink" x="0px" y="0px"
	 viewBox="0 0 293.2 320" style="enable-background:new 0 0 293.2 320;" xml:space="preserve">
<style type="text/css">
	.st0{display:none;fill:#1A1E3A;}
	.st1{fill:#C1C1C1;}
	.st2{fill:#F4F4F4;}
</style>
<rect x="-579.9" y="-87.8" class="st0" width="2336" height="1080"/>
<g>
	<path class="st2" d="M0,94.3c0,0,32.3,26.3,41.6,70.5c7.9,37.3,10.9,58.9,11.7,64.7c0.1,1,0.6,2,1.4,2.7c6.4,5.5,36,31.1,48.1,44
		c10.6,11.2,30.8,33.2,39.4,42.4c2,2.2,5.6,1.7,6.9-1c8.4-16.7,30.1-72.5-2.9-156.2C111,72.4,55.2,2.5,55.2,2.5s37,79.8,43.3,130
		c2.5,19.5,2.7,33.4,2.2,42.9c-0.3,4.5-6.4,5.5-8.2,1.4c-4.3-9.8-12.1-23.3-26.3-39.2C39.4,107.7,0,94.3,0,94.3z"/>
	<path class="st2" d="M159.7,129.9c-0.5,1.1-0.5,2.4,0,3.6c2.6,5.6,10.6,23,12.8,32.2c1.2,5,3.2,10.8,5.1,15.6
		c1.4,3.6,6.5,3.6,7.9,0c1.4-3.7,2.9-7.4,4-9.6c2-3.9,3.4-7.3,4-8.7c0.2-0.4,0.3-0.9,0.3-1.3c0.4-6,4-51.4,12.7-78.4
		C215.9,54.4,239.6,0,239.6,0c0,0-44.2,60.3-54.4,78.2C176.4,93.6,163.1,122.5,159.7,129.9z"/>
	<path class="st2" d="M293.2,94.3c0,0-28.9,10.2-56.9,47.6c-26.7,35.6-41.1,98.1-42.4,104.1c-0.1,0.3-0.1,0.6-0.1,0.9v21.4
		c0,3.8,4.6,5.7,7.3,3l38.4-39.1c0.7-0.7,1.1-1.6,1.2-2.6c0.7-8.1,4.6-46.8,12.6-68.2C271.1,113.9,293.2,94.3,293.2,94.3z"/>
</g>
</svg>
