<?xml version="1.0" encoding="utf-8"?>
<!-- Generator: Adobe Illustrator 22.0.1, SVG Export Plug-In . SVG Version: 6.00 Build 0)  -->
<svg version="1.1" id="Camada_1" xmlns="http://www.w3.org/2000/svg" xmlns:xlink="http://www.w3.org/1999/xlink" x="0px" y="0px"
	 viewBox="0 0 320 319.1" style="enable-background:new 0 0 320 319.1;" xml:space="preserve">
<style type="text/css">
	.st0{display:none;fill:#1A1E3A;}
	.st1{fill:#C1C1C1;}
	.st2{fill:#F4F4F4;}
</style>
<rect x="-1007.5" y="-88.3" class="st0" width="2336" height="1080"/>
<g>
	<path class="st1" d="M319.1,132.7v177.5c0,4.9-4,8.9-8.9,8.9H132.9c-7.9,0-11.9-9.6-6.3-15.2l31.2-31.2c1.7-1.7,3.9-2.6,6.3-2.6h97
		c4.9,0,8.9-4,8.9-8.9v-97.9c0-2.4,1-4.7,2.7-6.4l31.2-30.6C309.6,120.8,319.1,124.8,319.1,132.7z"/>
	<path class="st1" d="M0,186.4V8.9C0,4,4,0,8.9,0h177.3c7.9,0,11.9,9.6,6.3,15.2l-31.2,31.2c-1.7,1.7-3.9,2.6-6.3,2.6h-97
		C53,49,49,53,49,57.9v97.9c0,2.4-1,4.7-2.7,6.4l-31.2,30.6C9.5,198.3,0,194.3,0,186.4z"/>
	<path class="st2" d="M255.9,2.6L2.6,255.9c-1.7,1.7-2.6,3.9-2.6,6.3v48c0,4.9,4,8.9,8.9,8.9h48.9c2.4,0,4.6-0.9,6.3-2.6L317.4,64.1
		c1.7-1.7,2.6-3.9,2.6-6.3V8.9c0-4.9-4-8.9-8.9-8.9h-48.9C259.8,0,257.6,0.9,255.9,2.6z"/>
</g>
</svg>
