<svg width="100" height="100" viewBox="0 0 100 100" fill="none" xmlns="http://www.w3.org/2000/svg">
<circle cx="50" cy="50" r="50" fill="#E4E4E4"/>
<path d="M68.014 62.889L58.461 58.113C57.56 57.662 57 56.756 57 55.748V52.367C57.229 52.087 57.47 51.768 57.719 51.416C58.958 49.666 59.951 47.718 60.673 45.617C62.084 44.97 63 43.575 63 42V38C63 37.037 62.64 36.104 62 35.375V30.056C62.056 29.506 62.276 26.232 59.908 23.531C57.854 21.188 54.521 20 50 20C45.479 20 42.146 21.188 40.092 23.53C37.724 26.231 37.944 29.506 38 30.056V35.375C37.36 36.104 37 37.037 37 38V42C37 43.217 37.553 44.352 38.497 45.109C39.413 48.736 41.33 51.469 42 52.346V55.655C42 56.623 41.472 57.511 40.623 57.975L31.702 62.841C28.801 64.424 27 67.458 27 70.762V74C27 78.746 42.045 80 50 80C57.955 80 73 78.746 73 74V70.957C73 67.519 71.089 64.427 68.014 62.889Z" fill="black" fill-opacity="0.12"/>
</svg>
