<svg width="26" height="25" viewBox="0 0 26 25" fill="none" xmlns="http://www.w3.org/2000/svg">
<path fill-rule="evenodd" clip-rule="evenodd" d="M25.3163 12.5C25.3163 19.4036 19.6693 25 12.7033 25C5.7374 25 0.0903931 19.4036 0.0903931 12.5C0.0903931 5.59644 5.7374 0 12.7033 0C19.6693 0 25.3163 5.59644 25.3163 12.5ZM9.45576 19.3466C9.51925 19.3802 9.58928 19.3966 9.65887 19.3966C9.74455 19.3966 9.83023 19.3711 9.90373 19.3216L19.4722 12.8561C19.5909 12.7759 19.6622 12.6427 19.6622 12.5C19.6622 12.3574 19.5909 12.2242 19.4726 12.144L9.90417 5.67847C9.77064 5.58882 9.59841 5.57847 9.45576 5.65347C9.3131 5.72804 9.22394 5.87459 9.22394 6.03451V18.9655C9.22394 19.1255 9.3131 19.272 9.45576 19.3466Z" fill="#39D3F7"/>
</svg>
