<?xml version="1.0" encoding="utf-8"?>
<!-- Generator: Adobe Illustrator 22.0.1, SVG Export Plug-In . SVG Version: 6.00 Build 0)  -->
<svg version="1.1" id="Camada_1" xmlns="http://www.w3.org/2000/svg" xmlns:xlink="http://www.w3.org/1999/xlink" x="0px" y="0px"
	 viewBox="0 0 374.5 320" style="enable-background:new 0 0 374.5 320;" xml:space="preserve">
<style type="text/css">
	.st0{display:none;fill:#1A1E3A;}
	.st1{fill:#C1C1C1;}
	.st2{fill:#F4F4F4;}
</style>
<rect x="-1880.8" y="-87.8" class="st0" width="2336" height="1080"/>
<g>
	<path class="st2" d="M242.7,18.8l-8.4-16.6c-0.7-1.4-2.2-2.3-3.7-2.3h-43.3h-43.3c-1.6,0-3,0.9-3.8,2.3l-8.5,16.9
		c-0.7,1.5-0.5,3.2,0.5,4.5L184,87.7c1.7,2.1,4.9,2.1,6.5,0l51.8-64.3C243.3,22.1,243.5,20.3,242.7,18.8z"/>
	<path class="st2" d="M116.2,69.2H4.3c-3.9,0-5.7,4.7-2.9,7.4C7.2,82,17.1,89.8,32.9,98.4c26.9,14.6,39.6,16.5,41.5,16.7
		c0.1,0,0.3,0,0.4,0h23.8c3.5,0,5.5,4,3.4,6.8l-25.4,33.6c-1.5,2-1,4.9,1.2,6.2c4.9,2.9,13.5,7.6,21.8,10.9
		c8.7,3.5,19.5,7.4,25.2,9.4c2.2,0.8,4.7-0.4,5.4-2.6c2.3-6.5,6.9-20,11.1-34.4c4.7-16.1,8.3-32.8,9.6-38.7c0.3-1.4-0.1-2.8-1.1-3.8
		l-30.6-32.1C118.4,69.7,117.3,69.2,116.2,69.2z"/>
	<path class="st2" d="M258.3,69.2h111.9c3.9,0,5.7,4.7,2.9,7.4c-5.8,5.4-15.7,13.2-31.6,21.8c-26.9,14.6-39.6,16.5-41.5,16.7
		c-0.1,0-0.3,0-0.4,0h-23.8c-3.5,0-5.5,4-3.4,6.8l25.4,33.6c1.5,2,1,4.9-1.2,6.2c-4.9,2.9-13.5,7.6-21.8,10.9
		c-8.7,3.5-19.5,7.4-25.2,9.4c-2.2,0.8-4.7-0.4-5.4-2.6c-2.3-6.5-6.9-20-11.1-34.4c-4.7-16.1-8.3-32.8-9.6-38.7
		c-0.3-1.4,0.1-2.8,1.1-3.8l30.6-32.1C256,69.7,257.1,69.2,258.3,69.2z"/>
	<path class="st2" d="M184.6,124.7l-3.6-2.8c-2.5-2-6.2-0.6-6.8,2.5l-31.5,159.1c-0.3,1.6,0.3,3.2,1.6,4.2l40.4,31.4
		c1.5,1.2,3.7,1.2,5.2,0l40.4-31.4c1.3-1,1.9-2.6,1.6-4.2l-31.5-159.1c-0.6-3.1-4.3-4.5-6.8-2.5l-3.6,2.8
		C188.3,125.9,186.1,125.9,184.6,124.7z"/>
</g>
</svg>
