<?xml version="1.0" encoding="utf-8"?>
<!-- Generator: Adobe Illustrator 22.0.1, SVG Export Plug-In . SVG Version: 6.00 Build 0)  -->
<svg version="1.1" xmlns="http://www.w3.org/2000/svg" xmlns:xlink="http://www.w3.org/1999/xlink" x="0px" y="0px"
	 viewBox="0 0 200 114.8" style="enable-background:new 0 0 200 114.8;" xml:space="preserve">
<style type="text/css">
	.st0{display:none;fill:#2D3052;}
	.st1{fill:#2D3052;}
	.st2{fill:#7B48F7;}
	.st3{fill:#EE61F2;}
	.st4{fill:#00DE81;}
	.st5{fill:#39D3F7;}
	.st6{fill:url(#SVGID_1_);}
	.st7{fill:url(#SVGID_2_);}
	.st8{display:none;}
	.st9{display:inline;fill:url(#SVGID_3_);}
	.st10{display:inline;fill:url(#SVGID_4_);}
	.st11{fill:url(#SVGID_5_);}
	.st12{fill:url(#SVGID_6_);}
	.st13{fill:url(#SVGID_7_);}
	.st14{fill:url(#SVGID_8_);}
	.st15{fill:url(#SVGID_9_);}
	.st16{fill:url(#SVGID_10_);}
	.st17{display:none;fill:#7B48F7;stroke:#ED1C24;stroke-width:6;stroke-miterlimit:10;}
	.st18{display:inline;}
	.st19{fill:#FF4D4D;}
	.st20{display:inline;fill:none;stroke:#FF4D4D;stroke-width:2;stroke-miterlimit:10;}
	.st21{fill:none;stroke:#FF4D4D;stroke-width:2;stroke-miterlimit:10;}
	.st22{opacity:0.3;fill:url(#);}
	.st23{display:inline;fill:none;stroke:#B9BDF9;stroke-miterlimit:10;}
</style>
<g id="Paleta">
</g>
<g id="Logo_Vertical">
</g>
<g id="Logo_Horizontal">
	<g>
		<g id="LOGO_x5F_PROFILE_7_">
			<path class="st1" d="M130.7,35l-27.6,27.6c-1.7,1.7-4.4,1.7-6.1,0L68.9,34.3c-0.5-0.7-0.7-1.5-0.7-2.4c0-0.9,0.3-1.7,0.7-2.4
				L97.1,1.3c1.7-1.7,4.4-1.7,6.1,0l27.5,27.6C132.4,30.6,132.4,33.3,130.7,35z"/>
			<linearGradient id="SVGID_1_" gradientUnits="userSpaceOnUse" x1="82.4149" y1="10.9925" x2="100.9522" y2="69.7714">
				<stop  offset="0" style="stop-color:#EE61F2"/>
				<stop  offset="0.1549" style="stop-color:#D35BF3"/>
				<stop  offset="0.4067" style="stop-color:#AD53F5"/>
				<stop  offset="0.6397" style="stop-color:#924DF6"/>
				<stop  offset="0.8448" style="stop-color:#8149F7"/>
				<stop  offset="1" style="stop-color:#7B48F7"/>
			</linearGradient>
			<path class="st6" d="M93.1,45.1c-1.7-1.7-1.7-4.4,0-6.1l11.3-11.3c1.4-1.5,2.2-3.5,2.2-5.7c0-2.2-0.8-4.2-2.2-5.7l-0.6-0.6
				L93.2,5.2L69,29.4c-0.5,0.7-0.8,1.6-0.8,2.5c0,0.9,0.3,1.8,0.8,2.5l28.1,28.1c1.7,1.7,4.4,1.7,6.1,0l3.7-3.7L93.1,45.1z
				 M78.7,30.3l12.9-13l3,3c1.6,1.6,1.6,4.2,0,5.8l-10,10L78.7,30.3z"/>
			<linearGradient id="SVGID_2_" gradientUnits="userSpaceOnUse" x1="96.5221" y1="1.1708" x2="119.0388" y2="53.7063">
				<stop  offset="4.878050e-03" style="stop-color:#39D3F7"/>
				<stop  offset="0.6277" style="stop-color:#14DAAA"/>
				<stop  offset="1" style="stop-color:#00DE81"/>
			</linearGradient>
			<path class="st7" d="M93.2,5.2l3.9-3.9c1.7-1.7,4.4-1.7,6.1,0l27.6,27.6c1.7,1.7,1.7,4.4,0,6.1l-23.9,23.9l-6-6l17-17
				c1.3-1.3,1.3-3.3,0-4.6l-0.4-0.4c-1.2-1.2-3.2-1.2-4.4,0L95.9,48l-3-3c-1.6-1.6-1.6-4.3,0-5.9l11.2-11.2c3.2-3.2,3.2-8.5,0-11.7
				L93.2,5.2z"/>
		</g>
		<g>
			<path class="st2" d="M22.6,80.1c2.5,2.1,3.8,5.1,3.8,9c0,4.1-1.3,7.2-3.9,9.5c-2.6,2.2-6.2,3.4-10.9,3.4H8.2v12.3H0V77h11.6
				C16.4,77,20.1,78,22.6,80.1z M16.4,94.3c1.1-1.1,1.7-2.8,1.7-5.2c0-2.3-0.6-4-1.7-5.1c-1.1-1-2.9-1.5-5.4-1.5H8.2v13.4h2.9
				C13.6,95.9,15.3,95.4,16.4,94.3z"/>
			<path class="st2" d="M61.4,113.6c-0.4,0.3-1,0.6-1.9,0.8c-0.9,0.2-1.8,0.3-2.8,0.3c-1.2,0-2.1-0.2-2.8-0.5
				c-0.6-0.3-1.1-0.9-1.5-1.7l-3.9-8.8c-0.6-1.3-1.2-2.2-1.9-2.7c-0.7-0.5-1.7-0.7-3-0.7h-2.8v13.9h-8.2V77h12.7c4.8,0,8.4,1,11,3
				s3.8,4.9,3.8,8.7c0,2.3-0.6,4.3-1.7,5.9c-1.1,1.7-2.7,2.9-4.9,3.8c1,1,1.8,2.2,2.4,3.6L61.4,113.6z M44.9,94.6
				c2.5,0,4.3-0.5,5.4-1.4c1.1-0.9,1.7-2.4,1.7-4.5c0-2.1-0.6-3.6-1.7-4.6c-1.1-0.9-2.9-1.4-5.4-1.4h-3.9v11.9H44.9z"/>
			<path class="st2" d="M69,109.7c-2.8-3.4-4.2-8.2-4.2-14.3c0-6,1.4-10.7,4.2-14c2.8-3.3,6.8-5,11.8-5c5.1,0,9,1.7,11.8,5
				c2.8,3.3,4.2,8,4.2,14c0,6.1-1.4,10.9-4.2,14.3c-2.8,3.4-6.8,5.1-11.8,5.1C75.8,114.8,71.8,113.1,69,109.7z M86.7,105.7
				c1.2-2.1,1.8-5.6,1.8-10.3c0-4.6-0.6-7.9-1.8-10c-1.2-2.1-3.2-3.1-5.9-3.1c-2.7,0-4.6,1-5.9,3.1c-1.2,2.1-1.8,5.4-1.8,10
				c0,4.7,0.6,8.2,1.8,10.3c1.2,2.1,3.2,3.2,5.8,3.2S85.5,107.9,86.7,105.7z"/>
			<path class="st4" d="M107.4,80.2v13.1h15.8v3.2h-15.8v17.7h-3.8V77h21.9v3.2H107.4z"/>
			<path class="st4" d="M134.6,77h3.8v37.3h-3.8V77z"/>
			<path class="st4" d="M172.3,111.1v3.2h-21.9V77h3.8v34.1H172.3z"/>
			<path class="st4" d="M200,111.1c0,1.3-0.2,2.1-0.6,2.6c-0.4,0.4-1.1,0.6-2.2,0.6h-19.5V77h22.3v3.2h-18.4v13.4h15.9v3.2h-15.9
				v14.3H200z"/>
		</g>
	</g>
</g>
<g id="Camada_3" class="st8">
</g>
<g id="fibonatti" class="st8">
</g>
<g id="grids" class="st8">
</g>
<g id="Textura">
</g>
<g id="MINIMALISTA">
</g>
</svg>
